/* XPM */
static char * wall_opxo_0_xpm[] = {
"64 64 6 1",
" 	c #42B5F7",
".	c #42C6FF",
"+	c #D6F7FF",
"@	c #FFD639",
"#	c #FFEF73",
"$	c #F7F7FF",
"                    ............            ....++++@@@@########",
"                    ............            ....++++@@@@########",
"                    ............            ....++++@@@@########",
"                    ............            ....++++@@@@########",
"                ....        ....            ....$$$$@@@@########",
"                ....        ....            ....$$$$@@@@########",
"                ....        ....            ....$$$$@@@@########",
"                ....        ....            ....$$$$@@@@########",
"....        ....                            ....++++@@@@########",
"....        ....                            ....++++@@@@########",
"....        ....                            ....++++@@@@########",
"....        ....                            ....++++@@@@########",
"    ............                            ....++++@@@@########",
"    ............                            ....++++@@@@########",
"    ............                            ....++++@@@@########",
"    ............                            ....++++@@@@########",
"            ....................            ....++++$$$$########",
"            ....................            ....++++$$$$########",
"            ....................            ....++++$$$$########",
"            ....................            ....++++$$$$########",
"                    ....                    ....++++@@@@########",
"                    ....                    ....++++@@@@########",
"                    ....                    ....++++@@@@########",
"                    ....                    ....++++@@@@########",
"                ....                        ....$$$$@@@@########",
"                ....                        ....$$$$@@@@########",
"                ....                        ....$$$$@@@@########",
"                ....                        ....$$$$@@@@########",
"            ........                        ....$$$$@@@@########",
"            ........                        ....$$$$@@@@########",
"            ........                        ....$$$$@@@@########",
"            ........                        ....$$$$@@@@########",
"....    ....        ............            ....$$$$@@@@########",
"....    ....        ............            ....$$$$@@@@########",
"....    ....        ............            ....$$$$@@@@########",
"....    ....        ............            ....$$$$@@@@########",
"    ....        ....        ....                ++++$$$$########",
"    ....        ....        ....                ++++$$$$########",
"    ....        ....        ....                ++++$$$$########",
"    ....        ....        ....                ++++$$$$########",
"    ....    ....                            ....++++@@@@########",
"    ....    ....                            ....++++@@@@########",
"    ....    ....                            ....++++@@@@########",
"    ....    ....                            ....++++@@@@########",
"        ........                            ....++++@@@@########",
"        ........                            ....++++@@@@########",
"        ........                            ....++++@@@@########",
"        ........                            ....++++@@@@########",
"                ................                ++++@@@@########",
"                ................                ++++@@@@########",
"                ................                ++++@@@@########",
"                ................                ++++@@@@########",
"            ....        ....                ....++++@@@@########",
"            ....        ....                ....++++@@@@########",
"            ....        ....                ....++++@@@@########",
"            ....        ....                ....++++@@@@########",
"        ........            ....            ....++++$$$$########",
"        ........            ....            ....++++$$$$########",
"        ........            ....            ....++++$$$$########",
"        ........            ....            ....++++$$$$########",
"    ........        ........                    $$$$$$$$########",
"    ........        ........                    $$$$$$$$########",
"    ........        ........                    $$$$$$$$########",
"    ........        ........                    $$$$$$$$########"};
