/* XPM */
static char * wall_oxxo_0_xpm[] = {
"64 64 13 1",
" 	c #D6846B",
".	c #FFD639",
"+	c #D6EF63",
"@	c #B5639C",
"#	c #F7AD21",
"$	c #E7F763",
"%	c #D6F7FF",
"&	c #DE9452",
"*	c #42B5F7",
"=	c #42C6FF",
"-	c #FFEF73",
";	c #4A73F7",
">	c #F7F7FF",
"                                                ....++++++++++++",
"                                                ....++++++++++++",
"                                                ....++++++++++++",
"                                                ....++++++++++++",
"@@@@@@@@@@@@@@@@@@@@@@@@@@@@@@@@@@@@@@@@@@@@    ####....$$$$++++",
"@@@@@@@@@@@@@@@@@@@@@@@@@@@@@@@@@@@@@@@@@@@@    ####....$$$$++++",
"@@@@@@@@@@@@@@@@@@@@@@@@@@@@@@@@@@@@@@@@@@@@    ####....$$$$++++",
"@@@@@@@@@@@@@@@@@@@@@@@@@@@@@@@@@@@@@@@@@@@@    ####....$$$$++++",
"@@@@@@@@@@@@@@@@@@@@@@@@@@@@@@@@@@@@@@@@@@@@############....++++",
"@@@@@@@@@@@@@@@@@@@@@@@@@@@@@@@@@@@@@@@@@@@@############....++++",
"@@@@@@@@@@@@@@@@@@@@@@@@@@@@@@@@@@@@@@@@@@@@############....++++",
"@@@@@@@@@@@@@@@@@@@@@@@@@@@@@@@@@@@@@@@@@@@@############....++++",
"@@@@@@@@@@@@@@@@@@@@@@@@@@@@@@@@@@@@@@@@    ################....",
"@@@@@@@@@@@@@@@@@@@@@@@@@@@@@@@@@@@@@@@@    ################....",
"@@@@@@@@@@@@@@@@@@@@@@@@@@@@@@@@@@@@@@@@    ################....",
"@@@@@@@@@@@@@@@@@@@@@@@@@@@@@@@@@@@@@@@@    ################....",
"@@@@@@@@@@@@@@@@@@@@@@@@@@@@@@@@@@@@@@@@####################....",
"@@@@@@@@@@@@@@@@@@@@@@@@@@@@@@@@@@@@@@@@####################....",
"@@@@@@@@@@@@@@@@@@@@@@@@@@@@@@@@@@@@@@@@####################....",
"@@@@@@@@@@@@@@@@@@@@@@@@@@@@@@@@@@@@@@@@####################....",
"@@@@@@@@@@@@@@@@@@@@@@@@@@@@@@@@@@@@    ####################....",
"@@@@@@@@@@@@@@@@@@@@@@@@@@@@@@@@@@@@    ####################....",
"@@@@@@@@@@@@@@@@@@@@@@@@@@@@@@@@@@@@    ####################....",
"@@@@@@@@@@@@@@@@@@@@@@@@@@@@@@@@@@@@    ####################....",
"%%%%%%%%@@@@%%%%%%%%%%%%%%%%%%%%&&&&########....####....####....",
"%%%%%%%%@@@@%%%%%%%%%%%%%%%%%%%%&&&&########....####....####....",
"%%%%%%%%@@@@%%%%%%%%%%%%%%%%%%%%&&&&########....####....####....",
"%%%%%%%%@@@@%%%%%%%%%%%%%%%%%%%%&&&&########....####....####....",
"****========****************====%%%%####....----############....",
"****========****************====%%%%####....----############....",
"****========****************====%%%%####....----############....",
"****========****************====%%%%####....----############....",
";;;;;;;;;;;;;;;;;;;;;;;;;;;;;;;;****%%%%----############........",
";;;;;;;;;;;;;;;;;;;;;;;;;;;;;;;;****%%%%----############........",
";;;;;;;;;;;;;;;;;;;;;;;;;;;;;;;;****%%%%----############........",
";;;;;;;;;;;;;;;;;;;;;;;;;;;;;;;;****%%%%----############........",
";;;;;;;;;;;;;;;;;;;;;;;;;;;;;;;;;;;;****>>>>############----....",
";;;;;;;;;;;;;;;;;;;;;;;;;;;;;;;;;;;;****>>>>############----....",
";;;;;;;;;;;;;;;;;;;;;;;;;;;;;;;;;;;;****>>>>############----....",
";;;;;;;;;;;;;;;;;;;;;;;;;;;;;;;;;;;;****>>>>############----....",
";;;;;;;;;;;;;;;;;;;;;;;;;;;;;;;;;;;;;;;;====%%%%####--------....",
";;;;;;;;;;;;;;;;;;;;;;;;;;;;;;;;;;;;;;;;====%%%%####--------....",
";;;;;;;;;;;;;;;;;;;;;;;;;;;;;;;;;;;;;;;;====%%%%####--------....",
";;;;;;;;;;;;;;;;;;;;;;;;;;;;;;;;;;;;;;;;====%%%%####--------....",
";;;;;;;;********;;;;;;;;;;;;****;;;;;;;;****%%%%####--------....",
";;;;;;;;********;;;;;;;;;;;;****;;;;;;;;****%%%%####--------....",
";;;;;;;;********;;;;;;;;;;;;****;;;;;;;;****%%%%####--------....",
";;;;;;;;********;;;;;;;;;;;;****;;;;;;;;****%%%%####--------....",
"****************============********;;;;****%%%%%%%%--------....",
"****************============********;;;;****%%%%%%%%--------....",
"****************============********;;;;****%%%%%%%%--------....",
"****************============********;;;;****%%%%%%%%--------....",
"************====********************====****%%%%>>>>--------....",
"************====********************====****%%%%>>>>--------....",
"************====********************====****%%%%>>>>--------....",
"************====********************====****%%%%>>>>--------....",
"========****========********====****====****%%%%%%%%--------....",
"========****========********====****====****%%%%%%%%--------....",
"========****========********====****====****%%%%%%%%--------....",
"========****========********====****====****%%%%%%%%--------....",
"****====********============********====****%%%%>>>>--------....",
"****====********============********====****%%%%>>>>--------....",
"****====********============********====****%%%%>>>>--------....",
"****====********============********====****%%%%>>>>--------...."};
