/* XPM */
static char *attack_l_2[] = {
/* columns rows colors chars-per-pixel */
"64 64 10 1 ",
"  c #04193F",
". c #C6E763",
"X c #CEEF63",
"o c #D6EF63",
"O c #D6F763",
"+ c #E7F763",
"@ c #780BF7",
"# c #D840FB",
"$ c #F489F6",
"% c #FCFEFE",
/* pixels */
"ooooooooooooXXXXXXXXXXXXXXXXooooXXXXXXXXXXXXooooOOOOOOOO++++++++",
"ooooooooooooXXXXXXXXXXXXXXXXooooXXXXXXXXXXXXooooOOOOOOOO++++++++",
"ooooooooooooXXXXXXXXXXXXXXXXooooXXXXXXXXXXXXooooOOOOOOOO++++++++",
"ooooooooooooXXXXXXXXXXXXXXXXooooXXXXXXXXXXXXooooOOOOOOOO++++++++",
"++++++++oooo....XXXXXXXXXXXXXXXXooooooooOOOOOOOOooooooooOOOOOOOO",
"++++++++oooo....XXXXXXXXXXXXXXXXooooooooOOOOOOOOooooooooOOOOOOOO",
"++++++++oooo....XXXXXXXXXXXXXXXXooooooooOOOOOOOOooooooooOOOOOOOO",
"++++++++oooo....XXXXXXXXXXXXXXXXooooooooOOOOOOOOooooooooOOOOOOOO",
"oooo++++XXXXXXXXooooooooOOOOooooOOOO++++OOOOXXXXooooooooXXXX++++",
"oooo++++XXXXXXXXooooooooOOOOooooOOOO++++OOOOXXXXooooooooXXXX++++",
"oooo++++XXXXXXXXooooooooOO      OO            XXooooooooXXXX++++",
"oooo++++XXXXXXXXooooooooOO      OO            XXooooooooXXXX++++",
"OOOOooooooooooooXXXXoo    @@@@@@  $$$$$$$$$$$$  XXXXooooXXXXOOOO",
"OOOOooooooooooooXXXXoo    @@@@@@  $$$$$$$$$$$$  XXXXooooXXXXOOOO",
"OOOOooooooooooooXXXX  @@@@@@########$$$$$$$$$$  XXXXooooXXXXOOOO",
"OOOOooooooooooooXXXX  @@@@@@########$$$$$$$$$$  XXXXooooXXXXOOOO",
"ooooooooooooooooXX  @@@@######$$$$$$$$####    ooXXXXOOOOoooooooo",
"ooooooooooooooooXX  @@@@######$$$$$$$$####    ooXXXXOOOOoooooooo",
"ooooooooooooooooXX  @@######$$$$$$$$$$$$$$##  ooXXXXOOOOoooooooo",
"ooooooooooooooooXX  @@######$$$$$$$$$$$$$$##  ooXXXXOOOOoooooooo",
"ooooOOOOooooXXXX  @@@@%%%%%%%%%%%%$$$$$$$$$$  XX....oooooooo++++",
"ooooOOOOooooXXXX  @@@@%%%%%%%%%%%%$$$$$$$$$$  XX....oooooooo++++",
"ooooOOOOooooXXXX  @@%%%%%%%%%%%%%%%%$$$$$$$$##  ....oooooooo++++",
"ooooOOOOooooXXXX  @@%%%%%%%%%%%%%%%%$$$$$$$$##  ....oooooooo++++",
"XXXXooooXXXXXX  @@    %%%%%%      %%%%$$$$$$$$  ....XXXXoooooooo",
"XXXXooooXXXXXX  @@    %%%%%%      %%%%$$$$$$$$  ....XXXXoooooooo",
"XXXXooooXXXXXX    %%    %%  %%%%    %%$$$$$$$$  ....XXXXoooooooo",
"XXXXooooXXXXXX    %%    %%  %%%%    %%$$$$$$$$  ....XXXXoooooooo",
"XXXXXXXXXXXX..    %%    %%  %%%%    %%$$$$$$$$  XXXXXXXX........",
"XXXXXXXXXXXX..    %%    %%  %%%%    %%$$$$$$$$  XXXXXXXX........",
"XXXXXXXXXXXX..    %%    %%  %%%%    %%$$$$$$$$  XXXXXXXX........",
"XXXXXXXXXXXX..    %%    %%  %%%%    %%$$$$$$$$  XXXXXXXX........",
"XXXXXXXXXXXXXX  @@    %%%%%%      %%$$$$$$$$##  ....XXXX....XXXX",
"XXXXXXXXXXXXXX  @@    %%%%%%      %%$$$$$$$$##  ....XXXX....XXXX",
"XXXXXXXXXXXXXXXX  %%%%%%%%%%%%%%%%%%$$$$$$$$  XX....XXXX....XXXX",
"XXXXXXXXXXXXXXXX  %%%%%%%%%%%%%%%%%%$$$$$$$$  XX....XXXX....XXXX",
"XX            OO  @@%%%%%%%%%%%%##$$$$$$$$##  XXXXXXoooo++++oooo",
"XX            OO  @@%%%%%%%%%%%%##$$$$$$$$##  XXXXXXoooo++++oooo",
"  @@@@@@@@@@@@      @@@@@@######$$$$$$$$$$$$  XXXXXXoooo++++oooo",
"  @@@@@@@@@@@@      @@@@@@######$$$$$$$$$$$$  XXXXXXoooo++++oooo",
"  @@@@@@@@@@@@@@@@@@@@@@%%%%%%$$$$$$$$$$$$$$$$  ooooOOOO++++oooo",
"  @@@@@@@@@@@@@@@@@@@@@@%%%%%%$$$$$$$$$$$$$$$$  ooooOOOO++++oooo",
"  @@@@@@@@@@@@@@@@@@@@@@%%%%%%%%$$$$@@$$$$$$$$$$  ooOOOO++++oooo",
"  @@@@@@@@@@@@@@@@@@@@@@%%%%%%%%$$$$@@$$$$$$$$$$  ooOOOO++++oooo",
"oo  @@@@@@@@@@@@@@@@@@%%%%%%%%%%$$$$##@@$$$$$$$$  XX....XXXXoooo",
"oo  @@@@@@@@@@@@@@@@@@%%%%%%%%%%$$$$##@@$$$$$$$$  XX....XXXXoooo",
"oo  @@@@@@@@@@@@@@@@@@%%%%%%%%%%%%$$####@@$$$$$$$$  ....XXXXoooo",
"oo  @@@@@@@@@@@@@@@@@@%%%%%%%%%%%%$$####@@$$$$$$$$  ....XXXXoooo",
"XXXX  @@@@@@        @@%%%%%%%%%%%%$$$$##@@$$$$$$$$  XXXXoooooooo",
"XXXX  @@@@@@        @@%%%%%%%%%%%%$$$$##@@$$$$$$$$  XXXXoooooooo",
"XXXXXX      oooo++++  %%%%%%%%%%%%$$$$####@@$$$$$$  XXXXoooooooo",
"XXXXXX      oooo++++  %%%%%%%%%%%%$$$$####@@$$$$$$  XXXXoooooooo",
"XXXXXXXXXXXXooooOOOO  %%%%%%%%%%%%$$$$$$##@@      XXOOOOoooooooo",
"XXXXXXXXXXXXooooOOOO  %%%%%%%%%%%%$$$$$$##@@      XXOOOOoooooooo",
"XXXXXXXXXXXXooooOOOO  @@%%%%%%%%$$$$$$$$$$  XXXXXXXXOOOOoooooooo",
"XXXXXXXXXXXXooooOOOO  @@%%%%%%%%$$$$$$$$$$  XXXXXXXXOOOOoooooooo",
"XXXX....XXXXXXXXoooo  @@@@######$$$$$$$$$$$$  XXXXXXXXXXOOOOXXXX",
"XXXX....XXXXXXXXoooo  @@@@######$$$$$$$$$$$$  XXXXXXXXXXOOOOXXXX",
"XXXX....XXXXXXXXooooOO  @@@@@@      $$$$$$$$  XXXXXXXXXXOOOOXXXX",
"XXXX....XXXXXXXXooooOO  @@@@@@      $$$$$$$$  XXXXXXXXXXOOOOXXXX",
"....XXXXooooXXXX....XX  @@@@@@@@  oo  $$$$$$$$  ....XXXXXXXXXXXX",
"....XXXXooooXXXX....XX  @@@@@@@@  oo  $$$$$$$$  ....XXXXXXXXXXXX",
"....XXXXooooXXXX....XXXX  @@@@@@  ooOO  $$$$$$  ....XXXXXXXXXXXX",
"....XXXXooooXXXX....XXXX  @@@@@@  ooOO  $$$$$$  ....XXXXXXXXXXXX"
};
