/* XPM */
static char *attack_l_1[] = {
/* columns rows colors chars-per-pixel */
"64 64 10 1 ",
"  c #04193F",
". c #C6E763",
"X c #CEEF63",
"o c #D6EF63",
"O c #D6F763",
"+ c #E7F763",
"@ c #780BF7",
"# c #D840FB",
"$ c #F489F6",
"% c #FCFEFE",
/* pixels */
"ooooooooooooXXXXXXXXXXXXXXXXooooXXXXXXXXXXXXooooOOOOOOOO++++++++",
"ooooooooooooXXXXXXXXXXXXXXXXooooXXXXXXXXXXXXooooOOOOOOOO++++++++",
"ooooooooooooXXXXXXXXXXXXXXXXooooXXXXXXXXXXXXooooOOOOOOOO++++++++",
"ooooooooooooXXXXXXXXXXXXXXXXooooXXXXXXXXXXXXooooOOOOOOOO++++++++",
"++++++++oooo....XXXXXXXXXXXXXXXXooooooooOOOOOOOOooooooooOOOOOOOO",
"++++++++oooo....XXXXXXXXXXXXXXXXooooooooOOOOOOOOooooooooOOOOOOOO",
"++++++++oooo....XXXXXXXXXXXXXXXXooooooooOOOOOOOOooooooooOOOOOOOO",
"++++++++oooo....XXXXXXXXXXXXXXXXooooooooOOOOOOOOooooooooOOOOOOOO",
"oooo++++XXXXXXXXooooooooOOOOooooOOOO++++OOOOXXXXooooooooXXXX++++",
"oooo++++XXXXXXXXooooooooOOOOooooOOOO++++OOOOXXXXooooooooXXXX++++",
"oooo++++XXXXXXXXooooooooOOOOooooOOOO++++OOOOXXXXooooooooXXXX++++",
"oooo++++XXXXXXXXooooooooOOOOooooOOOO++++OOOOXXXXooooooooXXXX++++",
"OOOOooooooooooooXXXXoooo++      ooooOOOO      XXXXXXooooXXXXOOOO",
"OOOOooooooooooooXXXXoooo++      ooooOOOO      XXXXXXooooXXXXOOOO",
"OOOOooooooooooooXXXXoooo  @@@@@@  ooOO  $$$$$$  XXXXooooXXXXOOOO",
"OOOOooooooooooooXXXXoooo  @@@@@@  ooOO  $$$$$$  XXXXooooXXXXOOOO",
"ooooooooooooooooXXXXoooo  @@@@@@  XXoo  $$$$$$  XXXXOOOOoooooooo",
"ooooooooooooooooXXXXoooo  @@@@@@  XXoo  $$$$$$  XXXXOOOOoooooooo",
"ooooooooooooooooXXXXoooo  @@@@@@      $$$$$$$$  XXXXOOOOoooooooo",
"ooooooooooooooooXXXXoooo  @@@@@@      $$$$$$$$  XXXXOOOOoooooooo",
"ooooOOOOooooXXXXXXXXXX  @@@@@@@@########$$$$$$  ....oooooooo++++",
"ooooOOOOooooXXXXXXXXXX  @@@@@@@@########$$$$$$  ....oooooooo++++",
"ooooOOOOooooXXXXXXXXXX  @@@@######$$$$$$$$$$##  ....oooooooo++++",
"ooooOOOOooooXXXXXXXXXX  @@@@######$$$$$$$$$$##  ....oooooooo++++",
"XXXXooooXXXXXXXXXXXXoo  @@######$$$$$$$$$$$$$$##  ..XXXXoooooooo",
"XXXXooooXXXXXXXXXXXXoo  @@######$$$$$$$$$$$$$$##  ..XXXXoooooooo",
"XXXXooooXXXXXXXXXXXX  @@@@%%%%%%%%%%%%$$$$$$$$$$  ..XXXXoooooooo",
"XXXXooooXXXXXXXXXXXX  @@@@%%%%%%%%%%%%$$$$$$$$$$  ..XXXXoooooooo",
"XXXXXXXXXXXX........  @@%%%%%%%%%%%%%%%%$$$$$$$$##  XXXX........",
"XXXXXXXXXXXX........  @@%%%%%%%%%%%%%%%%$$$$$$$$##  XXXX........",
"XXXXXXXXXXXX......  @@    %%%%%%      %%%%$$$$$$$$  XXXX........",
"XXXXXXXXXXXX......  @@    %%%%%%      %%%%$$$$$$$$  XXXX........",
"XXXXXXXXXXXXXXXX..    %%    %%  %%%%    %%$$$$$$$$  XXXX....XXXX",
"XXXXXXXXXXXXXXXX..    %%    %%  %%%%    %%$$$$$$$$  XXXX....XXXX",
"XXXXXXXXXXXXXXXX..          %%          %%$$$$$$$$  XXXX....XXXX",
"XXXXXXXXXXXXXXXX..          %%          %%$$$$$$$$  XXXX....XXXX",
"XXXXXXXXooooOOOOoo          %%          %%$$$$$$$$  oooo++++oooo",
"XXXXXXXXooooOOOOoo          %%          %%$$$$$$$$  oooo++++oooo",
"XXXXXXXXooooOOOOoo  @@    %%%%%%      %%$$$$$$$$##  oooo++++oooo",
"XXXXXXXXooooOOOOoo  @@    %%%%%%      %%$$$$$$$$##  oooo++++oooo",
"XXXXoooooooo++++OOOO  %%%%%%%%%%%%%%%%%%$$$$$$$$  ooOOOO++++oooo",
"XXXXoooooooo++++OOOO  %%%%%%%%%%%%%%%%%%$$$$$$$$  ooOOOO++++oooo",
"XXXXoooooooo++++OOOO  @@%%%%%%%%%%%%##$$$$$$$$##  ooOOOO++++oooo",
"XXXXoooooooo++++OOOO  @@%%%%%%%%%%%%##$$$$$$$$##  ooOOOO++++oooo",
"ooooooooXXXXoooo++++++  @@@@@@######$$$$$$$$$$  XXXX....XXXXoooo",
"ooooooooXXXXoooo++++++  @@@@@@######$$$$$$$$$$  XXXX....XXXXoooo",
"ooooooooXXXXoooo++++++  @@@@%%%%%%%%$$$$$$$$$$  XXXX....XXXXoooo",
"ooooooooXXXXoooo++++++  @@@@%%%%%%%%$$$$$$$$$$  XXXX....XXXXoooo",
"XXXXXXXXXXXXoooo++++++  @@%%%%%%%%%%$$@@$$$$$$$$  XXXXXXoooooooo",
"XXXXXXXXXXXXoooo++++++  @@%%%%%%%%%%$$@@$$$$$$$$  XXXXXXoooooooo",
"XXXXXXXXXXXXoooo++++++  @@%%%%%%%%%%%%@@$$$$$$$$  XXXXXXoooooooo",
"XXXXXXXXXXXXoooo++++++  @@%%%%%%%%%%%%@@$$$$$$$$  XXXXXXoooooooo",
"XXXXXXXXXXXXooooOOOO++  @@%%%%%%%%%%%%@@$$$$$$$$  XXOOOOoooooooo",
"XXXXXXXXXXXXooooOOOO++  @@%%%%%%%%%%%%@@$$$$$$$$  XXOOOOoooooooo",
"XXXXXXXXXXXXooooOOOO++++  %%%%%%%%%%%%@@$$$$$$$$  XXOOOOoooooooo",
"XXXXXXXXXXXXooooOOOO++++  %%%%%%%%%%%%@@$$$$$$$$  XXOOOOoooooooo",
"XXXX....XXXXXXXXooooOOOO  @@%%%%%%%%$$##@@$$$$$$  XXXXXXOOOOXXXX",
"XXXX....XXXXXXXXooooOOOO  @@%%%%%%%%$$##@@$$$$$$  XXXXXXOOOOXXXX",
"XXXX....XXXXXXXXooooOOOO  @@@@######$$$$##@@@@  XXXXXXXXOOOOXXXX",
"XXXX....XXXXXXXXooooOOOO  @@@@######$$$$##@@@@  XXXXXXXXOOOOXXXX",
"....XXXXooooXXXX....XXXX  @@@@@@@@    $$$$$$$$  ....XXXXXXXXXXXX",
"....XXXXooooXXXX....XXXX  @@@@@@@@    $$$$$$$$  ....XXXXXXXXXXXX",
"....XXXXooooXXXX....XXXX  @@@@@@  ooOO  $$$$$$  ....XXXXXXXXXXXX",
"....XXXXooooXXXX....XXXX  @@@@@@  ooOO  $$$$$$  ....XXXXXXXXXXXX"
};
