/* XPM */
static char *attack_r_1[] = {
/* columns rows colors chars-per-pixel */
"64 64 10 1 ",
"  c #04193F",
". c #C6E763",
"X c #CEEF63",
"o c #D6EF63",
"O c #D6F763",
"+ c #E7F763",
"@ c #780BF7",
"# c #D840FB",
"$ c #F489F6",
"% c #FCFEFE",
/* pixels */
"ooooooooooooXXXXXXXXXXXXXXXXooooXXXXXXXXXXXXooooOOOOOOOO++++++++",
"ooooooooooooXXXXXXXXXXXXXXXXooooXXXXXXXXXXXXooooOOOOOOOO++++++++",
"ooooooooooooXXXXXXXXXXXXXXXXooooXXXXXXXXXXXXooooOOOOOOOO++++++++",
"ooooooooooooXXXXXXXXXXXXXXXXooooXXXXXXXXXXXXooooOOOOOOOO++++++++",
"++++++++oooo....XXXXXXXXXXXXXXXXooooooooOOOOOOOOooooooooOOOOOOOO",
"++++++++oooo....XXXXXXXXXXXXXXXXooooooooOOOOOOOOooooooooOOOOOOOO",
"++++++++oooo....XXXXXXXXXXXXXXXXooooooooOOOOOOOOooooooooOOOOOOOO",
"++++++++oooo....XXXXXXXXXXXXXXXXooooooooOOOOOOOOooooooooOOOOOOOO",
"oooo++++XXXXXXXXooooooooOOOOooooOOOO++++OOOOXXXXooooooooXXXX++++",
"oooo++++XXXXXXXXooooooooOOOOooooOOOO++++OOOOXXXXooooooooXXXX++++",
"oooo++++XXXXXXXXooooooooOOOOooooOOOO++++OOOOXXXXooooooooXXXX++++",
"oooo++++XXXXXXXXooooooooOOOOooooOOOO++++OOOOXXXXooooooooXXXX++++",
"OOOOooooooooooooXX      ++++oooo      OOooooXXXXXXXXooooXXXXOOOO",
"OOOOooooooooooooXX      ++++oooo      OOooooXXXXXXXXooooXXXXOOOO",
"OOOOoooooooooooo  $$$$$$  ++oo  @@@@@@  ooooXXXXXXXXooooXXXXOOOO",
"OOOOoooooooooooo  $$$$$$  ++oo  @@@@@@  ooooXXXXXXXXooooXXXXOOOO",
"oooooooooooooooo  $$$$$$  ooXX  @@@@@@  ooooooooXXXXOOOOoooooooo",
"oooooooooooooooo  $$$$$$  ooXX  @@@@@@  ooooooooXXXXOOOOoooooooo",
"oooooooooooooooo  $$$$$$$$      @@@@@@  ooooooooXXXXOOOOoooooooo",
"oooooooooooooooo  $$$$$$$$      @@@@@@  ooooooooXXXXOOOOoooooooo",
"ooooOOOOooooXXXX  $$$$$$########@@@@@@@@  ooXXXX....oooooooo++++",
"ooooOOOOooooXXXX  $$$$$$########@@@@@@@@  ooXXXX....oooooooo++++",
"ooooOOOOooooXXXX  ##$$$$$$$$$$######@@@@  ooXXXX....oooooooo++++",
"ooooOOOOooooXXXX  ##$$$$$$$$$$######@@@@  ooXXXX....oooooooo++++",
"XXXXooooXXXXXX  ##$$$$$$$$$$$$$$######@@  XXXXXX....XXXXoooooooo",
"XXXXooooXXXXXX  ##$$$$$$$$$$$$$$######@@  XXXXXX....XXXXoooooooo",
"XXXXooooXXXXXX  $$$$$$$$$$%%%%%%%%%%%%@@@@  XXXX....XXXXoooooooo",
"XXXXooooXXXXXX  $$$$$$$$$$%%%%%%%%%%%%@@@@  XXXX....XXXXoooooooo",
"XXXXXXXXXXXX  ##$$$$$$$$%%%%%%%%%%%%%%%%@@  XXXXXXXXXXXX........",
"XXXXXXXXXXXX  ##$$$$$$$$%%%%%%%%%%%%%%%%@@  XXXXXXXXXXXX........",
"XXXXXXXXXXXX  $$$$$$$$%%%%      %%%%%%    @@  XXXXXXXXXX........",
"XXXXXXXXXXXX  $$$$$$$$%%%%      %%%%%%    @@  XXXXXXXXXX........",
"XXXXXXXXXXXX  $$$$$$$$%%    %%%%  %%    %%    XX....XXXX....XXXX",
"XXXXXXXXXXXX  $$$$$$$$%%    %%%%  %%    %%    XX....XXXX....XXXX",
"XXXXXXXXXXXX  $$$$$$$$%%          %%          XX....XXXX....XXXX",
"XXXXXXXXXXXX  $$$$$$$$%%          %%          XX....XXXX....XXXX",
"XXXXXXXXoooo  $$$$$$$$%%          %%          XXXXXXoooo++++oooo",
"XXXXXXXXoooo  $$$$$$$$%%          %%          XXXXXXoooo++++oooo",
"XXXXXXXXoooo  ##$$$$$$$$%%      %%%%%%    @@  XXXXXXoooo++++oooo",
"XXXXXXXXoooo  ##$$$$$$$$%%      %%%%%%    @@  XXXXXXoooo++++oooo",
"XXXXoooooooo++  $$$$$$$$%%%%%%%%%%%%%%%%%%  OOOOooooOOOO++++oooo",
"XXXXoooooooo++  $$$$$$$$%%%%%%%%%%%%%%%%%%  OOOOooooOOOO++++oooo",
"XXXXoooooooo++  ##$$$$$$$$##%%%%%%%%%%%%@@  OOOOooooOOOO++++oooo",
"XXXXoooooooo++  ##$$$$$$$$##%%%%%%%%%%%%@@  OOOOooooOOOO++++oooo",
"ooooooooXXXXoooo  $$$$$$$$$$######@@@@@@  XXooooXXXX....XXXXoooo",
"ooooooooXXXXoooo  $$$$$$$$$$######@@@@@@  XXooooXXXX....XXXXoooo",
"ooooooooXXXXoooo  $$$$$$$$$$%%%%%%%%@@@@  XXooooXXXX....XXXXoooo",
"ooooooooXXXXoooo  $$$$$$$$$$%%%%%%%%@@@@  XXooooXXXX....XXXXoooo",
"XXXXXXXXXXXXoo  $$$$$$$$@@$$%%%%%%%%%%@@  XXXXXXXXXXXXXXoooooooo",
"XXXXXXXXXXXXoo  $$$$$$$$@@$$%%%%%%%%%%@@  XXXXXXXXXXXXXXoooooooo",
"XXXXXXXXXXXXoo  $$$$$$$$@@%%%%%%%%%%%%@@  XXXXXXXXXXXXXXoooooooo",
"XXXXXXXXXXXXoo  $$$$$$$$@@%%%%%%%%%%%%@@  XXXXXXXXXXXXXXoooooooo",
"XXXXXXXXXXXXoo  $$$$$$$$@@%%%%%%%%%%%%@@  XXXXXXXXXXOOOOoooooooo",
"XXXXXXXXXXXXoo  $$$$$$$$@@%%%%%%%%%%%%@@  XXXXXXXXXXOOOOoooooooo",
"XXXXXXXXXXXXoo  $$$$$$$$@@%%%%%%%%%%%%  XXXXXXXXXXXXOOOOoooooooo",
"XXXXXXXXXXXXoo  $$$$$$$$@@%%%%%%%%%%%%  XXXXXXXXXXXXOOOOoooooooo",
"XXXX....XXXXXX  $$$$$$@@##$$%%%%%%%%@@  XXXXXXXXXXXXXXXXOOOOXXXX",
"XXXX....XXXXXX  $$$$$$@@##$$%%%%%%%%@@  XXXXXXXXXXXXXXXXOOOOXXXX",
"XXXX....XXXXXXXX  @@@@##$$$$######@@@@  XXXXXXXXXXXXXXXXOOOOXXXX",
"XXXX....XXXXXXXX  @@@@##$$$$######@@@@  XXXXXXXXXXXXXXXXOOOOXXXX",
"....XXXXooooXXXX  $$$$$$$$    @@@@@@@@  OOOOXXXX....XXXXXXXXXXXX",
"....XXXXooooXXXX  $$$$$$$$    @@@@@@@@  OOOOXXXX....XXXXXXXXXXXX",
"....XXXXooooXXXX  $$$$$$  oooo  @@@@@@  OOOOXXXX....XXXXXXXXXXXX",
"....XXXXooooXXXX  $$$$$$  oooo  @@@@@@  OOOOXXXX....XXXXXXXXXXXX"
};
