/* XPM */
static char *attack_r_2[] = {
/* columns rows colors chars-per-pixel */
"64 64 10 1 ",
"  c #04193F",
". c #C6E763",
"X c #CEEF63",
"o c #D6EF63",
"O c #D6F763",
"+ c #E7F763",
"@ c #780BF7",
"# c #D840FB",
"$ c #F489F6",
"% c #FCFEFE",
/* pixels */
"ooooooooooooXXXXXXXXXXXXXXXXooooXXXXXXXXXXXXooooOOOOOOOO++++++++",
"ooooooooooooXXXXXXXXXXXXXXXXooooXXXXXXXXXXXXooooOOOOOOOO++++++++",
"ooooooooooooXXXXXXXXXXXXXXXXooooXXXXXXXXXXXXooooOOOOOOOO++++++++",
"ooooooooooooXXXXXXXXXXXXXXXXooooXXXXXXXXXXXXooooOOOOOOOO++++++++",
"++++++++oooo....XXXXXXXXXXXXXXXXooooooooOOOOOOOOooooooooOOOOOOOO",
"++++++++oooo....XXXXXXXXXXXXXXXXooooooooOOOOOOOOooooooooOOOOOOOO",
"++++++++oooo....XXXXXXXXXXXXXXXXooooooooOOOOOOOOooooooooOOOOOOOO",
"++++++++oooo....XXXXXXXXXXXXXXXXooooooooOOOOOOOOooooooooOOOOOOOO",
"oooo++++XXXXXXXXooooooooOOOOooooOOOO++++OOOOXXXXooooooooXXXX++++",
"oooo++++XXXXXXXXooooooooOOOOooooOOOO++++OOOOXXXXooooooooXXXX++++",
"oooo++++XXXXXXXXoo            oo      ++OOOOXXXXooooooooXXXX++++",
"oooo++++XXXXXXXXoo            oo      ++OOOOXXXXooooooooXXXX++++",
"OOOOoooooooooooo  $$$$$$$$$$$$  @@@@@@    ooXXXXXXXXooooXXXXOOOO",
"OOOOoooooooooooo  $$$$$$$$$$$$  @@@@@@    ooXXXXXXXXooooXXXXOOOO",
"OOOOoooooooooooo  $$$$$$$$$$########@@@@@@  XXXXXXXXooooXXXXOOOO",
"OOOOoooooooooooo  $$$$$$$$$$########@@@@@@  XXXXXXXXooooXXXXOOOO",
"ooooooooooooooooXX    ####$$$$$$$$######@@@@  ooXXXXOOOOoooooooo",
"ooooooooooooooooXX    ####$$$$$$$$######@@@@  ooXXXXOOOOoooooooo",
"ooooooooooooooooXX  ##$$$$$$$$$$$$$$######@@  ooXXXXOOOOoooooooo",
"ooooooooooooooooXX  ##$$$$$$$$$$$$$$######@@  ooXXXXOOOOoooooooo",
"ooooOOOOooooXXXXXX  $$$$$$$$$$%%%%%%%%%%%%@@@@  ....oooooooo++++",
"ooooOOOOooooXXXXXX  $$$$$$$$$$%%%%%%%%%%%%@@@@  ....oooooooo++++",
"ooooOOOOooooXXXX  ##$$$$$$$$%%%%%%%%%%%%%%%%@@  ....oooooooo++++",
"ooooOOOOooooXXXX  ##$$$$$$$$%%%%%%%%%%%%%%%%@@  ....oooooooo++++",
"XXXXooooXXXXXXXX  $$$$$$$$%%%%      %%%%%%    @@  ..XXXXoooooooo",
"XXXXooooXXXXXXXX  $$$$$$$$%%%%      %%%%%%    @@  ..XXXXoooooooo",
"XXXXooooXXXXXXXX  $$$$$$$$%%    %%%%  %%    %%    ..XXXXoooooooo",
"XXXXooooXXXXXXXX  $$$$$$$$%%    %%%%  %%    %%    ..XXXXoooooooo",
"XXXXXXXXXXXX....  $$$$$$$$%%    %%%%  %%    %%    XXXXXX........",
"XXXXXXXXXXXX....  $$$$$$$$%%    %%%%  %%    %%    XXXXXX........",
"XXXXXXXXXXXX....  $$$$$$$$%%    %%%%  %%    %%    XXXXXX........",
"XXXXXXXXXXXX....  $$$$$$$$%%    %%%%  %%    %%    XXXXXX........",
"XXXXXXXXXXXXXXXX  ##$$$$$$$$%%      %%%%%%    @@  ..XXXX....XXXX",
"XXXXXXXXXXXXXXXX  ##$$$$$$$$%%      %%%%%%    @@  ..XXXX....XXXX",
"XXXXXXXXXXXXXXXX..  $$$$$$$$%%%%%%%%%%%%%%%%%%  ....XXXX....XXXX",
"XXXXXXXXXXXXXXXX..  $$$$$$$$%%%%%%%%%%%%%%%%%%  ....XXXX....XXXX",
"XXXXXXXXooooOOOOoo  ##$$$$$$$$##%%%%%%%%%%%%@@  XX            oo",
"XXXXXXXXooooOOOOoo  ##$$$$$$$$##%%%%%%%%%%%%@@  XX            oo",
"XXXXXXXXooooOOOOoo  $$$$$$$$$$$$######@@@@@@      @@@@@@@@@@@@  ",
"XXXXXXXXooooOOOOoo  $$$$$$$$$$$$######@@@@@@      @@@@@@@@@@@@  ",
"XXXXoooooooo++++  $$$$$$$$$$$$$$$$%%%%%%@@@@@@@@@@@@@@@@@@@@@@  ",
"XXXXoooooooo++++  $$$$$$$$$$$$$$$$%%%%%%@@@@@@@@@@@@@@@@@@@@@@  ",
"XXXXoooooooo++  $$$$$$$$$$@@$$$$%%%%%%%%@@@@@@@@@@@@@@@@@@@@@@  ",
"XXXXoooooooo++  $$$$$$$$$$@@$$$$%%%%%%%%@@@@@@@@@@@@@@@@@@@@@@  ",
"ooooooooXXXXoo  $$$$$$$$@@##$$$$%%%%%%%%%%@@@@@@@@@@@@@@@@@@  oo",
"ooooooooXXXXoo  $$$$$$$$@@##$$$$%%%%%%%%%%@@@@@@@@@@@@@@@@@@  oo",
"ooooooooXXXX  $$$$$$$$@@####$$%%%%%%%%%%%%@@@@@@@@@@@@@@@@@@  oo",
"ooooooooXXXX  $$$$$$$$@@####$$%%%%%%%%%%%%@@@@@@@@@@@@@@@@@@  oo",
"XXXXXXXXXXXX  $$$$$$$$@@##$$$$%%%%%%%%%%%%@@        @@@@@@  oooo",
"XXXXXXXXXXXX  $$$$$$$$@@##$$$$%%%%%%%%%%%%@@        @@@@@@  oooo",
"XXXXXXXXXXXX  $$$$$$@@####$$$$%%%%%%%%%%%%  XXXXXXXX      oooooo",
"XXXXXXXXXXXX  $$$$$$@@####$$$$%%%%%%%%%%%%  XXXXXXXX      oooooo",
"XXXXXXXXXXXXoo      @@##$$$$$$%%%%%%%%%%%%  XXXXXXXXOOOOoooooooo",
"XXXXXXXXXXXXoo      @@##$$$$$$%%%%%%%%%%%%  XXXXXXXXOOOOoooooooo",
"XXXXXXXXXXXXooooOOOO  $$$$$$$$$$%%%%%%%%@@  XXXXXXXXOOOOoooooooo",
"XXXXXXXXXXXXooooOOOO  $$$$$$$$$$%%%%%%%%@@  XXXXXXXXOOOOoooooooo",
"XXXX....XXXXXXXXoo  $$$$$$$$$$$$######@@@@  XXXXXXXXXXXXOOOOXXXX",
"XXXX....XXXXXXXXoo  $$$$$$$$$$$$######@@@@  XXXXXXXXXXXXOOOOXXXX",
"XXXX....XXXXXXXXoo  $$$$$$$$      @@@@@@  XXXXXXXXXXXXXXOOOOXXXX",
"XXXX....XXXXXXXXoo  $$$$$$$$      @@@@@@  XXXXXXXXXXXXXXOOOOXXXX",
"....XXXXooooXXXX  $$$$$$$$  oo  @@@@@@@@  OOXXXX....XXXXXXXXXXXX",
"....XXXXooooXXXX  $$$$$$$$  oo  @@@@@@@@  OOXXXX....XXXXXXXXXXXX",
"....XXXXooooXXXX  $$$$$$  oooo  @@@@@@  OOOOXXXX....XXXXXXXXXXXX",
"....XXXXooooXXXX  $$$$$$  oooo  @@@@@@  OOOOXXXX....XXXXXXXXXXXX"
};
