/* XPM */
static char * idle_l_2_xpm[] = {
"64 64 6 1",
" 	c None",
".	c #04193F",
"+	c #F489F6",
"@	c #780BF7",
"#	c #D840FB",
"$	c #FCFEFE",
"                                                                ",
"                                                                ",
"                                                                ",
"                                                                ",
"                                                                ",
"                                                                ",
"                                        ....                    ",
"                                        ....                    ",
"                            ....      ..++++..                  ",
"                            ....      ..++++..                  ",
"                        ....@@@@..  ..++++++++..                ",
"                        ....@@@@..  ..++++++++..                ",
"                      ..@@@@@@@@@@..++++++++++..                ",
"                      ..@@@@@@@@@@..++++++++++..                ",
"                      ..@@@@@@########++++++++..                ",
"                      ..@@@@@@########++++++++..                ",
"                    ..@@@@######++++++++++##..                  ",
"                    ..@@@@######++++++++++##..                  ",
"                    ..@@######++++++++++++++##..                ",
"                    ..@@######++++++++++++++##..                ",
"                  ..@@@@$$$$$$$$$$$$++++++++++..                ",
"                  ..@@@@$$$$$$$$$$$$++++++++++..                ",
"                  ..@@$$$$$$$$$$$$$$$$++++++++##..              ",
"                  ..@@$$$$$$$$$$$$$$$$++++++++##..              ",
"                ..@@....$$$$$$......$$$$++++++++..              ",
"                ..@@....$$$$$$......$$$$++++++++..              ",
"                ....$$....$$..$$$$....$$++++++++..              ",
"                ....$$....$$..$$$$....$$++++++++..              ",
"                ....$$....$$..$$$$....$$++++++++..              ",
"                ....$$....$$..$$$$....$$++++++++..              ",
"                ..........$$..........$$++++++++..              ",
"                ..........$$..........$$++++++++..              ",
"                ..@@....$$$$$$......$$++++++++##..              ",
"                ..@@....$$$$$$......$$++++++++##..              ",
"                  ..$$$$$$$$$$$$$$$$$$++++++++..                ",
"                  ..$$$$$$$$$$$$$$$$$$++++++++..                ",
"                  ..@@$$$$$$$$$$$$##++++++++##..                ",
"                  ..@@$$$$$$$$$$$$##++++++++##..                ",
"                    ..@@@@@@######++++++++++..                  ",
"                    ..@@@@@@######++++++++++..                  ",
"                      ..@@$$$$$$++++++++++++..                  ",
"                      ..@@$$$$$$++++++++++++..                  ",
"                    ..@@@@$$$$$$$$++@@++++++++..                ",
"                    ..@@@@$$$$$$$$++@@++++++++..                ",
"                  ..@@@@$$$$$$$$$$++##@@++++++++..              ",
"                  ..@@@@$$$$$$$$$$++##@@++++++++..              ",
"                ..@@@@@@$$$$$$$$$$$$++##@@++++++++..            ",
"                ..@@@@@@$$$$$$$$$$$$++##@@++++++++..            ",
"                ..@@@@@@$$$$$$$$$$$$++##@@++++++++..            ",
"                ..@@@@@@$$$$$$$$$$$$++##@@++++++++..            ",
"                ..@@@@..$$$$$$$$$$$$++++##@@++++++..            ",
"                ..@@@@..$$$$$$$$$$$$++++##@@++++++..            ",
"                  ......@@$$$$$$$$++++++####@@....              ",
"                  ......@@$$$$$$$$++++++####@@....              ",
"                      ..@@@@######++++++++++..                  ",
"                      ..@@@@######++++++++++..                  ",
"                      ..@@@@@@@@....++++++++..                  ",
"                      ..@@@@@@@@....++++++++..                  ",
"                        ..@@@@@@....++++++++..                  ",
"                        ..@@@@@@....++++++++..                  ",
"                        ..@@@@@@..  ..++++++..                  ",
"                        ..@@@@@@..  ..++++++..                  ",
"                        ..@@@@@@..  ..++++++..                  ",
"                        ..@@@@@@..  ..++++++..                  "};
