/* XPM */
static char * idle_l_1 _xpm[] = {
"64 64 6 1",
" 	c None",
".	c #04193F",
"+	c #780BF7",
"@	c #F489F6",
"#	c #D840FB",
"$	c #FCFEFE",
"                                                                ",
"                                                                ",
"                                                                ",
"                                                                ",
"                                                                ",
"                                                                ",
"                                                                ",
"                                                                ",
"                            ......      ......                  ",
"                            ......      ......                  ",
"                        ....++++++......@@@@@@..                ",
"                        ....++++++......@@@@@@..                ",
"                      ..++++++++++..@@@@@@@@@@..                ",
"                      ..++++++++++..@@@@@@@@@@..                ",
"                      ..++++++########@@@@@@@@..                ",
"                      ..++++++########@@@@@@@@..                ",
"                    ..++++######@@@@@@@@@@##..                  ",
"                    ..++++######@@@@@@@@@@##..                  ",
"                    ..++######@@@@@@@@@@@@@@##..                ",
"                    ..++######@@@@@@@@@@@@@@##..                ",
"                  ..++++$$$$$$$$$$$$@@@@@@@@@@..                ",
"                  ..++++$$$$$$$$$$$$@@@@@@@@@@..                ",
"                  ..++$$$$$$$$$$$$$$$$@@@@@@@@##..              ",
"                  ..++$$$$$$$$$$$$$$$$@@@@@@@@##..              ",
"                ..++....$$$$$$......$$$$@@@@@@@@..              ",
"                ..++....$$$$$$......$$$$@@@@@@@@..              ",
"                ....$$....$$..$$$$....$$@@@@@@@@..              ",
"                ....$$....$$..$$$$....$$@@@@@@@@..              ",
"                ....$$....$$..$$$$....$$@@@@@@@@..              ",
"                ....$$....$$..$$$$....$$@@@@@@@@..              ",
"                ....$$....$$..$$$$....$$@@@@@@@@..              ",
"                ....$$....$$..$$$$....$$@@@@@@@@..              ",
"                ..++....$$$$$$......$$@@@@@@@@##..              ",
"                ..++....$$$$$$......$$@@@@@@@@##..              ",
"                  ..++$$$$$$$$$$$$$$$$@@@@@@@@..                ",
"                  ..++$$$$$$$$$$$$$$$$@@@@@@@@..                ",
"                  ..++$$$$$$$$$$$$##@@@@@@@@##..                ",
"                  ..++$$$$$$$$$$$$##@@@@@@@@##..                ",
"                    ..++++++######@@@@@@@@@@..                  ",
"                    ..++++++######@@@@@@@@@@..                  ",
"                      ..++$$$$$$@@@@@@@@@@@@..                  ",
"                      ..++$$$$$$@@@@@@@@@@@@..                  ",
"                      ..++$$$$$$$$@@++@@@@@@..                  ",
"                      ..++$$$$$$$$@@++@@@@@@..                  ",
"                    ..++$$$$$$$$$$@@++@@@@@@@@..                ",
"                    ..++$$$$$$$$$$@@++@@@@@@@@..                ",
"                    ..++$$$$$$$$$$$$##++@@@@@@..                ",
"                    ..++$$$$$$$$$$$$##++@@@@@@..                ",
"                  ..++++$$$$$$$$$$$$##++@@@@@@@@..              ",
"                  ..++++$$$$$$$$$$$$##++@@@@@@@@..              ",
"                  ..++++$$$$$$$$$$$$@@##++@@@@@@..              ",
"                  ..++++$$$$$$$$$$$$@@##++@@@@@@..              ",
"                  ..++++$$$$$$$$$$$$@@##++@@@@@@..              ",
"                  ..++++$$$$$$$$$$$$@@##++@@@@@@..              ",
"                    ....++$$$$$$$$@@@@@@##++++..                ",
"                    ....++$$$$$$$$@@@@@@##++++..                ",
"                      ..++++######@@@@@@####..                  ",
"                      ..++++######@@@@@@####..                  ",
"                        ..++++++....@@@@@@@@..                  ",
"                        ..++++++....@@@@@@@@..                  ",
"                        ..++++++..  ..@@@@@@..                  ",
"                        ..++++++..  ..@@@@@@..                  ",
"                        ..++++++..  ..@@@@@@..                  ",
"                        ..++++++..  ..@@@@@@..                  "};
