/* XPM */
static char *idle_l_2[] = {
/* columns rows colors chars-per-pixel */
"64 64 10 1 ",
"  c #04193F",
". c #C6E763",
"X c #CEEF63",
"o c #D6EF63",
"O c #D6F763",
"+ c #E7F763",
"@ c #780BF7",
"# c #D840FB",
"$ c #F489F6",
"% c #FCFEFE",
/* pixels */
"ooooooooooooXXXXXXXXXXXXXXXXooooXXXXXXXXXXXXooooOOOOOOOO++++++++",
"ooooooooooooXXXXXXXXXXXXXXXXooooXXXXXXXXXXXXooooOOOOOOOO++++++++",
"ooooooooooooXXXXXXXXXXXXXXXXooooXXXXXXXXXXXXooooOOOOOOOO++++++++",
"ooooooooooooXXXXXXXXXXXXXXXXooooXXXXXXXXXXXXooooOOOOOOOO++++++++",
"++++++++oooo....XXXXXXXXXXXXXXXXooooooooOOOOOOOOooooooooOOOOOOOO",
"++++++++oooo....XXXXXXXXXXXXXXXXooooooooOOOOOOOOooooooooOOOOOOOO",
"++++++++oooo....XXXXXXXXXXXXXXXXoooooooo    OOOOooooooooOOOOOOOO",
"++++++++oooo....XXXXXXXXXXXXXXXXoooooooo    OOOOooooooooOOOOOOOO",
"oooo++++XXXXXXXXooooooooOOOO    OOOO++  $$$$  XXooooooooXXXX++++",
"oooo++++XXXXXXXXooooooooOOOO    OOOO++  $$$$  XXooooooooXXXX++++",
"oooo++++XXXXXXXXoooooooo    @@@@  OO  $$$$$$$$  ooooooooXXXX++++",
"oooo++++XXXXXXXXoooooooo    @@@@  OO  $$$$$$$$  ooooooooXXXX++++",
"OOOOooooooooooooXXXXoo  @@@@@@@@@@  $$$$$$$$$$  XXXXooooXXXXOOOO",
"OOOOooooooooooooXXXXoo  @@@@@@@@@@  $$$$$$$$$$  XXXXooooXXXXOOOO",
"OOOOooooooooooooXXXXoo  @@@@@@########$$$$$$$$  XXXXooooXXXXOOOO",
"OOOOooooooooooooXXXXoo  @@@@@@########$$$$$$$$  XXXXooooXXXXOOOO",
"ooooooooooooooooXXXX  @@@@######$$$$$$$$$$##  ooXXXXOOOOoooooooo",
"ooooooooooooooooXXXX  @@@@######$$$$$$$$$$##  ooXXXXOOOOoooooooo",
"ooooooooooooooooXXXX  @@######$$$$$$$$$$$$$$##  XXXXOOOOoooooooo",
"ooooooooooooooooXXXX  @@######$$$$$$$$$$$$$$##  XXXXOOOOoooooooo",
"ooooOOOOooooXXXXXX  @@@@%%%%%%%%%%%%$$$$$$$$$$  ....oooooooo++++",
"ooooOOOOooooXXXXXX  @@@@%%%%%%%%%%%%$$$$$$$$$$  ....oooooooo++++",
"ooooOOOOooooXXXXXX  @@%%%%%%%%%%%%%%%%$$$$$$$$##  ..oooooooo++++",
"ooooOOOOooooXXXXXX  @@%%%%%%%%%%%%%%%%$$$$$$$$##  ..oooooooo++++",
"XXXXooooXXXXXXXX  @@    %%%%%%      %%%%$$$$$$$$  ..XXXXoooooooo",
"XXXXooooXXXXXXXX  @@    %%%%%%      %%%%$$$$$$$$  ..XXXXoooooooo",
"XXXXooooXXXXXXXX    %%    %%  %%%%    %%$$$$$$$$  ..XXXXoooooooo",
"XXXXooooXXXXXXXX    %%    %%  %%%%    %%$$$$$$$$  ..XXXXoooooooo",
"XXXXXXXXXXXX....    %%    %%  %%%%    %%$$$$$$$$  XXXXXX........",
"XXXXXXXXXXXX....    %%    %%  %%%%    %%$$$$$$$$  XXXXXX........",
"XXXXXXXXXXXX....          %%          %%$$$$$$$$  XXXXXX........",
"XXXXXXXXXXXX....          %%          %%$$$$$$$$  XXXXXX........",
"XXXXXXXXXXXXXXXX  @@    %%%%%%      %%$$$$$$$$##  ..XXXX....XXXX",
"XXXXXXXXXXXXXXXX  @@    %%%%%%      %%$$$$$$$$##  ..XXXX....XXXX",
"XXXXXXXXXXXXXXXX..  %%%%%%%%%%%%%%%%%%$$$$$$$$  ....XXXX....XXXX",
"XXXXXXXXXXXXXXXX..  %%%%%%%%%%%%%%%%%%$$$$$$$$  ....XXXX....XXXX",
"XXXXXXXXooooOOOOoo  @@%%%%%%%%%%%%##$$$$$$$$##  XXXXoooo++++oooo",
"XXXXXXXXooooOOOOoo  @@%%%%%%%%%%%%##$$$$$$$$##  XXXXoooo++++oooo",
"XXXXXXXXooooOOOOoooo  @@@@@@######$$$$$$$$$$  XXXXXXoooo++++oooo",
"XXXXXXXXooooOOOOoooo  @@@@@@######$$$$$$$$$$  XXXXXXoooo++++oooo",
"XXXXoooooooo++++OOOOXX  @@%%%%%%$$$$$$$$$$$$  OOooooOOOO++++oooo",
"XXXXoooooooo++++OOOOXX  @@%%%%%%$$$$$$$$$$$$  OOooooOOOO++++oooo",
"XXXXoooooooo++++OOOO  @@@@%%%%%%%%$$@@$$$$$$$$  ooooOOOO++++oooo",
"XXXXoooooooo++++OOOO  @@@@%%%%%%%%$$@@$$$$$$$$  ooooOOOO++++oooo",
"ooooooooXXXXoooo++  @@@@%%%%%%%%%%$$##@@$$$$$$$$  XX....XXXXoooo",
"ooooooooXXXXoooo++  @@@@%%%%%%%%%%$$##@@$$$$$$$$  XX....XXXXoooo",
"ooooooooXXXXoooo  @@@@@@%%%%%%%%%%%%$$##@@$$$$$$$$  ....XXXXoooo",
"ooooooooXXXXoooo  @@@@@@%%%%%%%%%%%%$$##@@$$$$$$$$  ....XXXXoooo",
"XXXXXXXXXXXXoooo  @@@@@@%%%%%%%%%%%%$$##@@$$$$$$$$  XXXXoooooooo",
"XXXXXXXXXXXXoooo  @@@@@@%%%%%%%%%%%%$$##@@$$$$$$$$  XXXXoooooooo",
"XXXXXXXXXXXXoooo  @@@@  %%%%%%%%%%%%$$$$##@@$$$$$$  XXXXoooooooo",
"XXXXXXXXXXXXoooo  @@@@  %%%%%%%%%%%%$$$$##@@$$$$$$  XXXXoooooooo",
"XXXXXXXXXXXXooooOO      @@%%%%%%%%$$$$$$####@@    XXOOOOoooooooo",
"XXXXXXXXXXXXooooOO      @@%%%%%%%%$$$$$$####@@    XXOOOOoooooooo",
"XXXXXXXXXXXXooooOOOO++  @@@@######$$$$$$$$$$  XXXXXXOOOOoooooooo",
"XXXXXXXXXXXXooooOOOO++  @@@@######$$$$$$$$$$  XXXXXXOOOOoooooooo",
"XXXX....XXXXXXXXooooOO  @@@@@@@@    $$$$$$$$  XXXXXXXXXXOOOOXXXX",
"XXXX....XXXXXXXXooooOO  @@@@@@@@    $$$$$$$$  XXXXXXXXXXOOOOXXXX",
"XXXX....XXXXXXXXooooOOOO  @@@@@@    $$$$$$$$  XXXXXXXXXXOOOOXXXX",
"XXXX....XXXXXXXXooooOOOO  @@@@@@    $$$$$$$$  XXXXXXXXXXOOOOXXXX",
"....XXXXooooXXXX....XXXX  @@@@@@  oo  $$$$$$  XX....XXXXXXXXXXXX",
"....XXXXooooXXXX....XXXX  @@@@@@  oo  $$$$$$  XX....XXXXXXXXXXXX",
"....XXXXooooXXXX....XXXX  @@@@@@  oo  $$$$$$  XX....XXXXXXXXXXXX",
"....XXXXooooXXXX....XXXX  @@@@@@  oo  $$$$$$  XX....XXXXXXXXXXXX"
};
