/* XPM */
static const char *Pink_Idle_0_64x64[] = {
/* columns rows colors chars-per-pixel */
"64 64 6 1 ",
"  c #04193F",
". c #780BF7",
"X c #D840FB",
"o c #F489F6",
"O c #FCFEFE",
"+ c None",
/* pixels */
"++++++++++++++++++++++++++++++++++++++++++++++++++++++++++++++++",
"++++++++++++++++++++++++++++++++++++++++++++++++++++++++++++++++",
"++++++++++++++++++++++++++++++++++++++++++++++++++++++++++++++++",
"++++++++++++++++++++++++++++++++++++++++++++++++++++++++++++++++",
"++++++++++++++++++++++++++++++++++++++++++++++++++++++++++++++++",
"++++++++++++++++++++++++++++++++++++++++++++++++++++++++++++++++",
"++++++++++++++++++++++++++++++++++++++++++++++++++++++++++++++++",
"++++++++++++++++++++++++++++++++++++++++++++++++++++++++++++++++",
"++++++++++++++++++++    ++++++++++    ++++++++++++++++++++++++++",
"++++++++++++++++++++    ++++++++++    ++++++++++++++++++++++++++",
"++++++++++++++++++  oooo  ++++++  ....  ++++++++++++++++++++++++",
"++++++++++++++++++  oooo  ++++++  ....  ++++++++++++++++++++++++",
"++++++++++++++++  oooooooo  ++  ......  ++++++++++++++++++++++++",
"++++++++++++++++  oooooooo  ++  ......  ++++++++++++++++++++++++",
"++++++++++++++++  oooooooooo    ........  ++++++++++++++++++++++",
"++++++++++++++++  oooooooooo    ........  ++++++++++++++++++++++",
"++++++++++++++++++  ooooooXXXXXXXX......  ++++++++++++++++++++++",
"++++++++++++++++++  ooooooXXXXXXXX......  ++++++++++++++++++++++",
"++++++++++++++++++  XXooooooooooXXXXXX....  ++++++++++++++++++++",
"++++++++++++++++++  XXooooooooooXXXXXX....  ++++++++++++++++++++",
"++++++++++++++++  XXooooooooooooooXXXXXX..  ++++++++++++++++++++",
"++++++++++++++++  XXooooooooooooooXXXXXX..  ++++++++++++++++++++",
"++++++++++++++++  ooooooooooOOOOOOOOOOOO....  ++++++++++++++++++",
"++++++++++++++++  ooooooooooOOOOOOOOOOOO....  ++++++++++++++++++",
"++++++++++++++  XXooooooooOOOOOOOOOOOOOOOO..  ++++++++++++++++++",
"++++++++++++++  XXooooooooOOOOOOOOOOOOOOOO..  ++++++++++++++++++",
"++++++++++++++  ooooooooOOOO      OOOOOO    ..  ++++++++++++++++",
"++++++++++++++  ooooooooOOOO      OOOOOO    ..  ++++++++++++++++",
"++++++++++++++  ooooooooOO    OOOO  OO    OO    ++++++++++++++++",
"++++++++++++++  ooooooooOO    OOOO  OO    OO    ++++++++++++++++",
"++++++++++++++  ooooooooOO    OOOO  OO    OO    ++++++++++++++++",
"++++++++++++++  ooooooooOO    OOOO  OO    OO    ++++++++++++++++",
"++++++++++++++  ooooooooOO          OO          ++++++++++++++++",
"++++++++++++++  ooooooooOO          OO          ++++++++++++++++",
"++++++++++++++  XXooooooooOO      OOOOOO    ..  ++++++++++++++++",
"++++++++++++++  XXooooooooOO      OOOOOO    ..  ++++++++++++++++",
"++++++++++++++++  ooooooooOOOOOOOOOOOOOOOOOO  ++++++++++++++++++",
"++++++++++++++++  ooooooooOOOOOOOOOOOOOOOOOO  ++++++++++++++++++",
"++++++++++++++++  XXooooooooXXOOOOOOOOOOOO..  ++++++++++++++++++",
"++++++++++++++++  XXooooooooXXOOOOOOOOOOOO..  ++++++++++++++++++",
"++++++++++++++++++  ooooooooooXXXXXX......  ++++++++++++++++++++",
"++++++++++++++++++  ooooooooooXXXXXX......  ++++++++++++++++++++",
"++++++++++++++++++  ooooooooooooOOOOOO..  ++++++++++++++++++++++",
"++++++++++++++++++  ooooooooooooOOOOOO..  ++++++++++++++++++++++",
"++++++++++++++++  oooooooo..ooOOOOOOOO....  ++++++++++++++++++++",
"++++++++++++++++  oooooooo..ooOOOOOOOO....  ++++++++++++++++++++",
"++++++++++++++++  oooooooo..ooOOOOOOOOOO..  ++++++++++++++++++++",
"++++++++++++++++  oooooooo..ooOOOOOOOOOO..  ++++++++++++++++++++",
"++++++++++++++  oooooooo..XXOOOOOOOOOOOO....  ++++++++++++++++++",
"++++++++++++++  oooooooo..XXOOOOOOOOOOOO....  ++++++++++++++++++",
"++++++++++++++  oooooooo..XXOOOOOOOOOOOO....  ++++++++++++++++++",
"++++++++++++++  oooooooo..XXOOOOOOOOOOOO....  ++++++++++++++++++",
"++++++++++++++  oooooo..XXooOOOOOOOOOOOO....  ++++++++++++++++++",
"++++++++++++++  oooooo..XXooOOOOOOOOOOOO....  ++++++++++++++++++",
"++++++++++++++++  ....XXXXooooOOOOOOOO..    ++++++++++++++++++++",
"++++++++++++++++  ....XXXXooooOOOOOOOO..    ++++++++++++++++++++",
"++++++++++++++++++  XXXXooooooXXXXXX....  ++++++++++++++++++++++",
"++++++++++++++++++  XXXXooooooXXXXXX....  ++++++++++++++++++++++",
"++++++++++++++++++  oooooooo    ........  ++++++++++++++++++++++",
"++++++++++++++++++  oooooooo    ........  ++++++++++++++++++++++",
"++++++++++++++++++  oooooooo    ......  ++++++++++++++++++++++++",
"++++++++++++++++++  oooooooo    ......  ++++++++++++++++++++++++",
"++++++++++++++++++  oooooo  ++  ......  ++++++++++++++++++++++++",
"++++++++++++++++++  oooooo  ++  ......  ++++++++++++++++++++++++"
};
