/* XPM */
static char *idle_r_1[] = {
/* columns rows colors chars-per-pixel */
"64 64 10 1 ",
"  c #04193F",
". c #C6E763",
"X c #CEEF63",
"o c #D6EF63",
"O c #D6F763",
"+ c #E7F763",
"@ c #780BF7",
"# c #D840FB",
"$ c #F489F6",
"% c #FCFEFE",
/* pixels */
"ooooooooooooXXXXXXXXXXXXXXXXooooXXXXXXXXXXXXooooOOOOOOOO++++++++",
"ooooooooooooXXXXXXXXXXXXXXXXooooXXXXXXXXXXXXooooOOOOOOOO++++++++",
"ooooooooooooXXXXXXXXXXXXXXXXooooXXXXXXXXXXXXooooOOOOOOOO++++++++",
"ooooooooooooXXXXXXXXXXXXXXXXooooXXXXXXXXXXXXooooOOOOOOOO++++++++",
"++++++++oooo....XXXXXXXXXXXXXXXXooooooooOOOOOOOOooooooooOOOOOOOO",
"++++++++oooo....XXXXXXXXXXXXXXXXooooooooOOOOOOOOooooooooOOOOOOOO",
"++++++++oooo....XXXXXXXXXXXXXXXXooooooooOOOOOOOOooooooooOOOOOOOO",
"++++++++oooo....XXXXXXXXXXXXXXXXooooooooOOOOOOOOooooooooOOOOOOOO",
"oooo++++XXXXXXXXoo      OOOOoo      ++++OOOOXXXXooooooooXXXX++++",
"oooo++++XXXXXXXXoo      OOOOoo      ++++OOOOXXXXooooooooXXXX++++",
"oooo++++XXXXXXXX  $$$$$$      @@@@@@    OOOOXXXXooooooooXXXX++++",
"oooo++++XXXXXXXX  $$$$$$      @@@@@@    OOOOXXXXooooooooXXXX++++",
"OOOOoooooooooooo  $$$$$$$$$$  @@@@@@@@@@  ooXXXXXXXXooooXXXXOOOO",
"OOOOoooooooooooo  $$$$$$$$$$  @@@@@@@@@@  ooXXXXXXXXooooXXXXOOOO",
"OOOOoooooooooooo  $$$$$$$$########@@@@@@  ooXXXXXXXXooooXXXXOOOO",
"OOOOoooooooooooo  $$$$$$$$########@@@@@@  ooXXXXXXXXooooXXXXOOOO",
"ooooooooooooooooXX  ##$$$$$$$$$$######@@@@  ooooXXXXOOOOoooooooo",
"ooooooooooooooooXX  ##$$$$$$$$$$######@@@@  ooooXXXXOOOOoooooooo",
"oooooooooooooooo  ##$$$$$$$$$$$$$$######@@  ooooXXXXOOOOoooooooo",
"oooooooooooooooo  ##$$$$$$$$$$$$$$######@@  ooooXXXXOOOOoooooooo",
"ooooOOOOooooXXXX  $$$$$$$$$$%%%%%%%%%%%%@@@@  XX....oooooooo++++",
"ooooOOOOooooXXXX  $$$$$$$$$$%%%%%%%%%%%%@@@@  XX....oooooooo++++",
"ooooOOOOooooXX  ##$$$$$$$$%%%%%%%%%%%%%%%%@@  XX....oooooooo++++",
"ooooOOOOooooXX  ##$$$$$$$$%%%%%%%%%%%%%%%%@@  XX....oooooooo++++",
"XXXXooooXXXXXX  $$$$$$$$%%%%      %%%%%%    @@  ....XXXXoooooooo",
"XXXXooooXXXXXX  $$$$$$$$%%%%      %%%%%%    @@  ....XXXXoooooooo",
"XXXXooooXXXXXX  $$$$$$$$%%    %%%%  %%    %%    ....XXXXoooooooo",
"XXXXooooXXXXXX  $$$$$$$$%%    %%%%  %%    %%    ....XXXXoooooooo",
"XXXXXXXXXXXX..  $$$$$$$$%%    %%%%  %%    %%    XXXXXXXX........",
"XXXXXXXXXXXX..  $$$$$$$$%%    %%%%  %%    %%    XXXXXXXX........",
"XXXXXXXXXXXX..  $$$$$$$$%%    %%%%  %%    %%    XXXXXXXX........",
"XXXXXXXXXXXX..  $$$$$$$$%%    %%%%  %%    %%    XXXXXXXX........",
"XXXXXXXXXXXXXX  ##$$$$$$$$%%      %%%%%%    @@  ....XXXX....XXXX",
"XXXXXXXXXXXXXX  ##$$$$$$$$%%      %%%%%%    @@  ....XXXX....XXXX",
"XXXXXXXXXXXXXXXX  $$$$$$$$%%%%%%%%%%%%%%%%@@  XX....XXXX....XXXX",
"XXXXXXXXXXXXXXXX  $$$$$$$$%%%%%%%%%%%%%%%%@@  XX....XXXX....XXXX",
"XXXXXXXXooooOOOO  ##$$$$$$$$##%%%%%%%%%%%%@@  XXXXXXoooo++++oooo",
"XXXXXXXXooooOOOO  ##$$$$$$$$##%%%%%%%%%%%%@@  XXXXXXoooo++++oooo",
"XXXXXXXXooooOOOOoo  $$$$$$$$$$######@@@@@@  XXXXXXXXoooo++++oooo",
"XXXXXXXXooooOOOOoo  $$$$$$$$$$######@@@@@@  XXXXXXXXoooo++++oooo",
"XXXXoooooooo++++OO  $$$$$$$$$$$$%%%%%%@@  ooOOOOooooOOOO++++oooo",
"XXXXoooooooo++++OO  $$$$$$$$$$$$%%%%%%@@  ooOOOOooooOOOO++++oooo",
"XXXXoooooooo++++OO  $$$$$$@@$$%%%%%%%%@@  ooOOOOooooOOOO++++oooo",
"XXXXoooooooo++++OO  $$$$$$@@$$%%%%%%%%@@  ooOOOOooooOOOO++++oooo",
"ooooooooXXXXoooo  $$$$$$$$@@$$%%%%%%%%%%@@  ooooXXXX....XXXXoooo",
"ooooooooXXXXoooo  $$$$$$$$@@$$%%%%%%%%%%@@  ooooXXXX....XXXXoooo",
"ooooooooXXXXoooo  $$$$$$@@##%%%%%%%%%%%%@@  ooooXXXX....XXXXoooo",
"ooooooooXXXXoooo  $$$$$$@@##%%%%%%%%%%%%@@  ooooXXXX....XXXXoooo",
"XXXXXXXXXXXXoo  $$$$$$$$@@##%%%%%%%%%%%%@@@@  XXXXXXXXXXoooooooo",
"XXXXXXXXXXXXoo  $$$$$$$$@@##%%%%%%%%%%%%@@@@  XXXXXXXXXXoooooooo",
"XXXXXXXXXXXXoo  $$$$$$@@##$$%%%%%%%%%%%%@@@@  XXXXXXXXXXoooooooo",
"XXXXXXXXXXXXoo  $$$$$$@@##$$%%%%%%%%%%%%@@@@  XXXXXXXXXXoooooooo",
"XXXXXXXXXXXXoo  $$$$$$@@##$$%%%%%%%%%%%%@@@@  XXXXXXOOOOoooooooo",
"XXXXXXXXXXXXoo  $$$$$$@@##$$%%%%%%%%%%%%@@@@  XXXXXXOOOOoooooooo",
"XXXXXXXXXXXXoooo  @@@@##$$$$$$%%%%%%%%@@    XXXXXXXXOOOOoooooooo",
"XXXXXXXXXXXXoooo  @@@@##$$$$$$%%%%%%%%@@    XXXXXXXXOOOOoooooooo",
"XXXX....XXXXXXXXoo  ####$$$$$$######@@@@  XXXXXXXXXXXXXXOOOOXXXX",
"XXXX....XXXXXXXXoo  ####$$$$$$######@@@@  XXXXXXXXXXXXXXOOOOXXXX",
"XXXX....XXXXXXXXoo  $$$$$$$$    @@@@@@  XXXXXXXXXXXXXXXXOOOOXXXX",
"XXXX....XXXXXXXXoo  $$$$$$$$    @@@@@@  XXXXXXXXXXXXXXXXOOOOXXXX",
"....XXXXooooXXXX..  $$$$$$  oo  @@@@@@  OOOOXXXX....XXXXXXXXXXXX",
"....XXXXooooXXXX..  $$$$$$  oo  @@@@@@  OOOOXXXX....XXXXXXXXXXXX",
"....XXXXooooXXXX..  $$$$$$  oo  @@@@@@  OOOOXXXX....XXXXXXXXXXXX",
"....XXXXooooXXXX..  $$$$$$  oo  @@@@@@  OOOOXXXX....XXXXXXXXXXXX"
};
