/* XPM */
static char *idle_l_3[] = {
/* columns rows colors chars-per-pixel */
"64 64 10 1 ",
"  c #04193F",
". c #C6E763",
"X c #CEEF63",
"o c #D6EF63",
"O c #D6F763",
"+ c #E7F763",
"@ c #780BF7",
"# c #D840FB",
"$ c #F489F6",
"% c #FCFEFE",
/* pixels */
"ooooooooooooXXXXXXXXXXXXXXXXooooXXXXXXXXXXXXooooOOOOOOOO++++++++",
"ooooooooooooXXXXXXXXXXXXXXXXooooXXXXXXXXXXXXooooOOOOOOOO++++++++",
"ooooooooooooXXXXXXXXXXXXXXXXooooXXXXXXXXXXXXooooOOOOOOOO++++++++",
"ooooooooooooXXXXXXXXXXXXXXXXooooXXXXXXXXXXXXooooOOOOOOOO++++++++",
"++++++++oooo....XXXXXXXXXXXXXXXXooooooooOOOOOOOOooooooooOOOOOOOO",
"++++++++oooo....XXXXXXXXXXXXXXXXooooooooOOOOOOOOooooooooOOOOOOOO",
"++++++++oooo....XXXXXXXXXXXXXXXXoooooo      OOOOooooooooOOOOOOOO",
"++++++++oooo....XXXXXXXXXXXXXXXXoooooo      OOOOooooooooOOOOOOOO",
"oooo++++XXXXXXXXoooooooo      ooOOOO  $$$$$$  XXooooooooXXXX++++",
"oooo++++XXXXXXXXoooooooo      ooOOOO  $$$$$$  XXooooooooXXXX++++",
"oooo++++XXXXXXXXoooooo  @@@@@@  OOOO  $$$$$$  XXooooooooXXXX++++",
"oooo++++XXXXXXXXoooooo  @@@@@@  OOOO  $$$$$$  XXooooooooXXXX++++",
"OOOOooooooooooooXXXXoo  @@@@@@  oo  $$$$$$$$  XXXXXXooooXXXXOOOO",
"OOOOooooooooooooXXXXoo  @@@@@@  oo  $$$$$$$$  XXXXXXooooXXXXOOOO",
"OOOOooooooooooooXXXXoo  @@@@@@      $$$$$$$$  XXXXXXooooXXXXOOOO",
"OOOOooooooooooooXXXXoo  @@@@@@      $$$$$$$$  XXXXXXooooXXXXOOOO",
"ooooooooooooooooXXXX  @@@@@@@@########$$$$$$  ooXXXXOOOOoooooooo",
"ooooooooooooooooXXXX  @@@@@@@@########$$$$$$  ooXXXXOOOOoooooooo",
"ooooooooooooooooXXXX  @@@@######$$$$$$$$$$##  ooXXXXOOOOoooooooo",
"ooooooooooooooooXXXX  @@@@######$$$$$$$$$$##  ooXXXXOOOOoooooooo",
"ooooOOOOooooXXXXXXXX  @@######$$$$$$$$$$$$$$##  ....oooooooo++++",
"ooooOOOOooooXXXXXXXX  @@######$$$$$$$$$$$$$$##  ....oooooooo++++",
"ooooOOOOooooXXXXXX  @@@@%%%%%%%%%%%%$$$$$$$$$$  ....oooooooo++++",
"ooooOOOOooooXXXXXX  @@@@%%%%%%%%%%%%$$$$$$$$$$  ....oooooooo++++",
"XXXXooooXXXXXXXXXX  @@%%%%%%%%%%%%%%%%$$$$$$$$##  ..XXXXoooooooo",
"XXXXooooXXXXXXXXXX  @@%%%%%%%%%%%%%%%%$$$$$$$$##  ..XXXXoooooooo",
"XXXXooooXXXXXXXX  @@    %%%%%%      %%%%$$$$$$$$  ..XXXXoooooooo",
"XXXXooooXXXXXXXX  @@    %%%%%%      %%%%$$$$$$$$  ..XXXXoooooooo",
"XXXXXXXXXXXX....    %%    %%  %%%%    %%$$$$$$$$  XXXXXX........",
"XXXXXXXXXXXX....    %%    %%  %%%%    %%$$$$$$$$  XXXXXX........",
"XXXXXXXXXXXX....          %%          %%$$$$$$$$  XXXXXX........",
"XXXXXXXXXXXX....          %%          %%$$$$$$$$  XXXXXX........",
"XXXXXXXXXXXXXXXX          %%          %%$$$$$$$$  ..XXXX....XXXX",
"XXXXXXXXXXXXXXXX          %%          %%$$$$$$$$  ..XXXX....XXXX",
"XXXXXXXXXXXXXXXX  @@    %%%%%%      %%$$$$$$$$##  ..XXXX....XXXX",
"XXXXXXXXXXXXXXXX  @@    %%%%%%      %%$$$$$$$$##  ..XXXX....XXXX",
"XXXXXXXXooooOOOOoo  %%%%%%%%%%%%%%%%%%$$$$$$$$  XXXXoooo++++oooo",
"XXXXXXXXooooOOOOoo  %%%%%%%%%%%%%%%%%%$$$$$$$$  XXXXoooo++++oooo",
"XXXXXXXXooooOOOOoo  @@%%%%%%%%%%%%##$$$$$$$$##  XXXXoooo++++oooo",
"XXXXXXXXooooOOOOoo  @@%%%%%%%%%%%%##$$$$$$$$##  XXXXoooo++++oooo",
"XXXXoooooooo++++OOOO  @@@@@@######$$$$$$$$$$  OOooooOOOO++++oooo",
"XXXXoooooooo++++OOOO  @@@@@@######$$$$$$$$$$  OOooooOOOO++++oooo",
"XXXXoooooooo++++OOOOXX  @@%%%%%%$$$$$$$$$$$$$$  ooooOOOO++++oooo",
"XXXXoooooooo++++OOOOXX  @@%%%%%%$$$$$$$$$$$$$$  ooooOOOO++++oooo",
"ooooooooXXXXoooo++++  @@@@%%%%%%%%$$@@$$$$$$$$$$    ....XXXXoooo",
"ooooooooXXXXoooo++++  @@@@%%%%%%%%$$@@$$$$$$$$$$    ....XXXXoooo",
"ooooooooXXXXoooo    @@@@%%%%%%%%%%$$##@@$$$$$$$$$$$$  ..XXXXoooo",
"ooooooooXXXXoooo    @@@@%%%%%%%%%%$$##@@$$$$$$$$$$$$  ..XXXXoooo",
"XXXXXXXXXXXXoo  @@@@@@@@%%%%%%%%%%%%$$##@@$$$$$$$$$$  XXoooooooo",
"XXXXXXXXXXXXoo  @@@@@@@@%%%%%%%%%%%%$$##@@$$$$$$$$$$  XXoooooooo",
"XXXXXXXXXXXXoo  @@@@@@@@%%%%%%%%%%%%$$$$##@@$$$$$$$$  XXoooooooo",
"XXXXXXXXXXXXoo  @@@@@@@@%%%%%%%%%%%%$$$$##@@$$$$$$$$  XXoooooooo",
"XXXXXXXXXXXXoo  @@@@@@  %%%%%%%%%%%%$$$$####@@      OOOOoooooooo",
"XXXXXXXXXXXXoo  @@@@@@  %%%%%%%%%%%%$$$$####@@      OOOOoooooooo",
"XXXXXXXXXXXXoooo        @@%%%%%%%%$$$$$$$$##  XXXXXXOOOOoooooooo",
"XXXXXXXXXXXXoooo        @@%%%%%%%%$$$$$$$$##  XXXXXXOOOOoooooooo",
"XXXX....XXXXXXXXooooOO  @@@@######$$$$$$$$$$  XXXXXXXXXXOOOOXXXX",
"XXXX....XXXXXXXXooooOO  @@@@######$$$$$$$$$$  XXXXXXXXXXOOOOXXXX",
"XXXX....XXXXXXXXooooOO  @@@@@@@@    $$$$$$$$  XXXXXXXXXXOOOOXXXX",
"XXXX....XXXXXXXXooooOO  @@@@@@@@    $$$$$$$$  XXXXXXXXXXOOOOXXXX",
"....XXXXooooXXXX....XXXX  @@@@@@    $$$$$$$$  XX....XXXXXXXXXXXX",
"....XXXXooooXXXX....XXXX  @@@@@@    $$$$$$$$  XX....XXXXXXXXXXXX",
"....XXXXooooXXXX....XXXX  @@@@@@  oo  $$$$$$  XX....XXXXXXXXXXXX",
"....XXXXooooXXXX....XXXX  @@@@@@  oo  $$$$$$  XX....XXXXXXXXXXXX"
};
