/* XPM */
static char *idle_r_3[] = {
/* columns rows colors chars-per-pixel */
"64 64 10 1 ",
"  c #04193F",
". c #C6E763",
"X c #CEEF63",
"o c #D6EF63",
"O c #D6F763",
"+ c #E7F763",
"@ c #780BF7",
"# c #D840FB",
"$ c #F489F6",
"% c #FCFEFE",
/* pixels */
"ooooooooooooXXXXXXXXXXXXXXXXooooXXXXXXXXXXXXooooOOOOOOOO++++++++",
"ooooooooooooXXXXXXXXXXXXXXXXooooXXXXXXXXXXXXooooOOOOOOOO++++++++",
"ooooooooooooXXXXXXXXXXXXXXXXooooXXXXXXXXXXXXooooOOOOOOOO++++++++",
"ooooooooooooXXXXXXXXXXXXXXXXooooXXXXXXXXXXXXooooOOOOOOOO++++++++",
"++++++++oooo....XXXXXXXXXXXXXXXXooooooooOOOOOOOOooooooooOOOOOOOO",
"++++++++oooo....XXXXXXXXXXXXXXXXooooooooOOOOOOOOooooooooOOOOOOOO",
"++++++++oooo....XXXX      XXXXXXooooooooOOOOOOOOooooooooOOOOOOOO",
"++++++++oooo....XXXX      XXXXXXooooooooOOOOOOOOooooooooOOOOOOOO",
"oooo++++XXXXXXXXoo  $$$$$$  ooooOO      OOOOXXXXooooooooXXXX++++",
"oooo++++XXXXXXXXoo  $$$$$$  ooooOO      OOOOXXXXooooooooXXXX++++",
"oooo++++XXXXXXXXoo  $$$$$$  oooo  @@@@@@  OOXXXXooooooooXXXX++++",
"oooo++++XXXXXXXXoo  $$$$$$  oooo  @@@@@@  OOXXXXooooooooXXXX++++",
"OOOOooooooooooooXX  $$$$$$$$  oo  @@@@@@  ooXXXXXXXXooooXXXXOOOO",
"OOOOooooooooooooXX  $$$$$$$$  oo  @@@@@@  ooXXXXXXXXooooXXXXOOOO",
"OOOOooooooooooooXX  $$$$$$$$      @@@@@@  ooXXXXXXXXooooXXXXOOOO",
"OOOOooooooooooooXX  $$$$$$$$      @@@@@@  ooXXXXXXXXooooXXXXOOOO",
"ooooooooooooooooXX  $$$$$$########@@@@@@@@  ooooXXXXOOOOoooooooo",
"ooooooooooooooooXX  $$$$$$########@@@@@@@@  ooooXXXXOOOOoooooooo",
"ooooooooooooooooXX  ##$$$$$$$$$$######@@@@  ooooXXXXOOOOoooooooo",
"ooooooooooooooooXX  ##$$$$$$$$$$######@@@@  ooooXXXXOOOOoooooooo",
"ooooOOOOooooXXXX  ##$$$$$$$$$$$$$$######@@  XXXX....oooooooo++++",
"ooooOOOOooooXXXX  ##$$$$$$$$$$$$$$######@@  XXXX....oooooooo++++",
"ooooOOOOooooXXXX  $$$$$$$$$$%%%%%%%%%%%%@@@@  XX....oooooooo++++",
"ooooOOOOooooXXXX  $$$$$$$$$$%%%%%%%%%%%%@@@@  XX....oooooooo++++",
"XXXXooooXXXXXX  ##$$$$$$$$%%%%%%%%%%%%%%%%@@  XX....XXXXoooooooo",
"XXXXooooXXXXXX  ##$$$$$$$$%%%%%%%%%%%%%%%%@@  XX....XXXXoooooooo",
"XXXXooooXXXXXX  $$$$$$$$%%%%      %%%%%%    @@  ....XXXXoooooooo",
"XXXXooooXXXXXX  $$$$$$$$%%%%      %%%%%%    @@  ....XXXXoooooooo",
"XXXXXXXXXXXX..  $$$$$$$$%%    %%%%  %%    %%    XXXXXXXX........",
"XXXXXXXXXXXX..  $$$$$$$$%%    %%%%  %%    %%    XXXXXXXX........",
"XXXXXXXXXXXX..  $$$$$$$$%%          %%          XXXXXXXX........",
"XXXXXXXXXXXX..  $$$$$$$$%%          %%          XXXXXXXX........",
"XXXXXXXXXXXXXX  $$$$$$$$%%          %%          ....XXXX....XXXX",
"XXXXXXXXXXXXXX  $$$$$$$$%%          %%          ....XXXX....XXXX",
"XXXXXXXXXXXXXX  ##$$$$$$$$%%      %%%%%%    @@  ....XXXX....XXXX",
"XXXXXXXXXXXXXX  ##$$$$$$$$%%      %%%%%%    @@  ....XXXX....XXXX",
"XXXXXXXXooooOOOO  $$$$$$$$%%%%%%%%%%%%%%%%%%  XXXXXXoooo++++oooo",
"XXXXXXXXooooOOOO  $$$$$$$$%%%%%%%%%%%%%%%%%%  XXXXXXoooo++++oooo",
"XXXXXXXXooooOOOO  ##$$$$$$$$##%%%%%%%%%%%%@@  XXXXXXoooo++++oooo",
"XXXXXXXXooooOOOO  ##$$$$$$$$##%%%%%%%%%%%%@@  XXXXXXoooo++++oooo",
"XXXXoooooooo++++OO  $$$$$$$$$$######@@@@@@  OOOOooooOOOO++++oooo",
"XXXXoooooooo++++OO  $$$$$$$$$$######@@@@@@  OOOOooooOOOO++++oooo",
"XXXXoooooooo++++  $$$$$$$$$$$$$$%%%%%%@@  ooOOOOooooOOOO++++oooo",
"XXXXoooooooo++++  $$$$$$$$$$$$$$%%%%%%@@  ooOOOOooooOOOO++++oooo",
"ooooooooXXXX    $$$$$$$$$$@@$$%%%%%%%%@@@@  ooooXXXX....XXXXoooo",
"ooooooooXXXX    $$$$$$$$$$@@$$%%%%%%%%@@@@  ooooXXXX....XXXXoooo",
"ooooooooXX  $$$$$$$$$$$$@@##$$%%%%%%%%%%@@@@    XXXX....XXXXoooo",
"ooooooooXX  $$$$$$$$$$$$@@##$$%%%%%%%%%%@@@@    XXXX....XXXXoooo",
"XXXXXXXXXX  $$$$$$$$$$@@##$$%%%%%%%%%%%%@@@@@@@@  XXXXXXoooooooo",
"XXXXXXXXXX  $$$$$$$$$$@@##$$%%%%%%%%%%%%@@@@@@@@  XXXXXXoooooooo",
"XXXXXXXXXX  $$$$$$$$@@##$$$$%%%%%%%%%%%%@@@@@@@@  XXXXXXoooooooo",
"XXXXXXXXXX  $$$$$$$$@@##$$$$%%%%%%%%%%%%@@@@@@@@  XXXXXXoooooooo",
"XXXXXXXXXXXX      @@####$$$$%%%%%%%%%%%%  @@@@@@  XXOOOOoooooooo",
"XXXXXXXXXXXX      @@####$$$$%%%%%%%%%%%%  @@@@@@  XXOOOOoooooooo",
"XXXXXXXXXXXXooooOO  ##$$$$$$$$%%%%%%%%@@        XXXXOOOOoooooooo",
"XXXXXXXXXXXXooooOO  ##$$$$$$$$%%%%%%%%@@        XXXXOOOOoooooooo",
"XXXX....XXXXXXXXoo  $$$$$$$$$$######@@@@  XXXXXXXXXXXXXXOOOOXXXX",
"XXXX....XXXXXXXXoo  $$$$$$$$$$######@@@@  XXXXXXXXXXXXXXOOOOXXXX",
"XXXX....XXXXXXXXoo  $$$$$$$$    @@@@@@@@  XXXXXXXXXXXXXXOOOOXXXX",
"XXXX....XXXXXXXXoo  $$$$$$$$    @@@@@@@@  XXXXXXXXXXXXXXOOOOXXXX",
"....XXXXooooXXXX..  $$$$$$$$    @@@@@@  OOOOXXXX....XXXXXXXXXXXX",
"....XXXXooooXXXX..  $$$$$$$$    @@@@@@  OOOOXXXX....XXXXXXXXXXXX",
"....XXXXooooXXXX..  $$$$$$  oo  @@@@@@  OOOOXXXX....XXXXXXXXXXXX",
"....XXXXooooXXXX..  $$$$$$  oo  @@@@@@  OOOOXXXX....XXXXXXXXXXXX"
};
