/* XPM */
static char *jump_l_6[] = {
/* columns rows colors chars-per-pixel */
"64 64 10 1 ",
"  c #04193F",
". c #C6E763",
"X c #CEEF63",
"o c #D6EF63",
"O c #D6F763",
"+ c #E7F763",
"@ c #780BF7",
"# c #D840FB",
"$ c #F489F6",
"% c #FCFEFE",
/* pixels */
"ooooooooooooXXXXXXXXXXXXXXXXooooXXXXXXXXXXXXooooOOOOOOOO++++++++",
"ooooooooooooXXXXXXXXXXXXXXXXooooXXXXXXXXXXXXooooOOOOOOOO++++++++",
"ooooooooooooXXXXXXXXXXXXXXXXooooXXXXXXXXXXXXooooOOOOOOOO++++++++",
"ooooooooooooXXXXXXXXXXXXXXXXooooXXXXXXXXXXXXooooOOOOOOOO++++++++",
"++++++++oooo....XXXXXXXXXXXXXXXXooooooooOOOOOOOOooooooooOOOOOOOO",
"++++++++oooo....XXXXXXXXXXXXXXXXooooooooOOOOOOOOooooooooOOOOOOOO",
"++++++++oooo....XXXXXXXXXXXXXXXXooooooooOOOOOOOOooooooooOOOOOOOO",
"++++++++oooo....XXXXXXXXXXXXXXXXooooooooOOOOOOOOooooooooOOOOOOOO",
"oooo++++XXXXXXXXooooooooOOOOooooOOOO++++OOOOXXXXooooooooXXXX++++",
"oooo++++XXXXXXXXooooooooOOOOooooOOOO++++OOOOXXXXooooooooXXXX++++",
"oooo++++XXXXXXXXoooooooo      ooOOOO++      XXXXooooooooXXXX++++",
"oooo++++XXXXXXXXoooooooo      ooOOOO++      XXXXooooooooXXXX++++",
"OOOOooooooooooooXXXXoo  @@@@@@  oooo  $$$$$$  XXXXXXooooXXXXOOOO",
"OOOOooooooooooooXXXXoo  @@@@@@  oooo  $$$$$$  XXXXXXooooXXXXOOOO",
"OOOOooooooooooooXXXXoo  @@@@@@  oooo  $$$$$$  XXXXXXooooXXXXOOOO",
"OOOOooooooooooooXXXXoo  @@@@@@  oooo  $$$$$$  XXXXXXooooXXXXOOOO",
"ooooooooooooooooXXXXoo  @@@@@@  XXXX  $$$$$$  ooXXXXOOOOoooooooo",
"ooooooooooooooooXXXXoo  @@@@@@  XXXX  $$$$$$  ooXXXXOOOOoooooooo",
"ooooooooooooooooXXXXoo  @@@@@@      $$$$$$$$  ooXXXXOOOOoooooooo",
"ooooooooooooooooXXXXoo  @@@@@@      $$$$$$$$  ooXXXXOOOOoooooooo",
"ooooOOOOooooXXXXXXXX  @@@@@@@@########$$$$$$  XX....oooooooo++++",
"ooooOOOOooooXXXXXXXX  @@@@@@@@########$$$$$$  XX....oooooooo++++",
"ooooOOOOooooXXXXXXXX  @@@@######$$$$$$$$$$##  XX....oooooooo++++",
"ooooOOOOooooXXXXXXXX  @@@@######$$$$$$$$$$##  XX....oooooooo++++",
"XXXXooooXXXXXXXXXXXX  @@######$$$$$$$$$$$$$$##  ....XXXXoooooooo",
"XXXXooooXXXXXXXXXXXX  @@######$$$$$$$$$$$$$$##  ....XXXXoooooooo",
"XXXXooooXXXXXXXXXX  @@@@%%%%%%%%%%%%$$$$$$$$$$  ....XXXXoooooooo",
"XXXXooooXXXXXXXXXX  @@@@%%%%%%%%%%%%$$$$$$$$$$  ....XXXXoooooooo",
"XXXXXXXXXXXX......  @@%%%%%%%%%%%%%%%%$$$$$$$$##  XXXXXX........",
"XXXXXXXXXXXX......  @@%%%%%%%%%%%%%%%%$$$$$$$$##  XXXXXX........",
"XXXXXXXXXXXX....  @@    %%%%%%      %%%%$$$$$$$$  XXXXXX........",
"XXXXXXXXXXXX....  @@    %%%%%%      %%%%$$$$$$$$  XXXXXX........",
"XXXXXXXXXXXXXXXX    %%    %%  %%%%    %%$$$$$$$$  ..XXXX....XXXX",
"XXXXXXXXXXXXXXXX    %%    %%  %%%%    %%$$$$$$$$  ..XXXX....XXXX",
"XXXXXXXXXXXXXXXX          %%          %%$$$$$$$$  ..XXXX....XXXX",
"XXXXXXXXXXXXXXXX          %%          %%$$$$$$$$  ..XXXX....XXXX",
"XXXXXXXXooooOOOO          %%          %%$$$$$$$$  XXoooo++++oooo",
"XXXXXXXXooooOOOO          %%          %%$$$$$$$$  XXoooo++++oooo",
"XXXXXXXXooooOOOO  @@    %%%%%%      %%$$$$$$$$##  XXoooo++++oooo",
"XXXXXXXXooooOOOO  @@    %%%%%%      %%$$$$$$$$##  XXoooo++++oooo",
"XXXXoooooooo++++OO  %%%%%%%%%%%%%%%%%%$$$$$$$$  ooooOOOO++++oooo",
"XXXXoooooooo++++OO  %%%%%%%%%%%%%%%%%%$$$$$$$$  ooooOOOO++++oooo",
"XXXXoooooooo++++OO  @@%%%%%%%%%%%%##$$$$$$$$##  ooooOOOO++++oooo",
"XXXXoooooooo++++OO  @@%%%%%%%%%%%%##$$$$$$$$##  ooooOOOO++++oooo",
"ooooooooXXXXoo        @@@@@@######$$$$$$$$$$@@        ..XXXXoooo",
"ooooooooXXXXoo        @@@@@@######$$$$$$$$$$@@        ..XXXXoooo",
"ooooooooXXXX  @@@@@@@@@@%%%%%%%%%%$$$$$$$$$$$$$$$$$$$$  XXXXoooo",
"ooooooooXXXX  @@@@@@@@@@%%%%%%%%%%$$$$$$$$$$$$$$$$$$$$  XXXXoooo",
"XXXXXXXXXXXX  @@@@@@@@%%%%%%%%%%%%%%$$$$$$$$$$$$$$$$$$  oooooooo",
"XXXXXXXXXXXX  @@@@@@@@%%%%%%%%%%%%%%$$$$$$$$$$$$$$$$$$  oooooooo",
"XXXXXXXXXXXX  @@@@@@@@%%%%%%%%%%%%%%%%$$$$$$$$$$$$$$$$  oooooooo",
"XXXXXXXXXXXX  @@@@@@@@%%%%%%%%%%%%%%%%$$$$$$$$$$$$$$$$  oooooooo",
"XXXXXXXXXXXXoo        %%%%%%%%%%%%%%%%$$$$@@@@        OOoooooooo",
"XXXXXXXXXXXXoo        %%%%%%%%%%%%%%%%$$$$@@@@        OOoooooooo",
"XXXXXXXXXXXXooooOOOO++  %%%%%%%%%%%%%%$$$$##  XXXXXXOOOOoooooooo",
"XXXXXXXXXXXXooooOOOO++  %%%%%%%%%%%%%%$$$$##  XXXXXXOOOOoooooooo",
"XXXX....XXXXXXXXooooOO  %%%%%%%%%%%%$$$$$$$$  XXXXXXXXXXOOOOXXXX",
"XXXX....XXXXXXXXooooOO  %%%%%%%%%%%%$$$$$$$$  XXXXXXXXXXOOOOXXXX",
"XXXX....XXXXXXXXooooOO  @@@@######$$$$$$$$$$  XXXXXXXXXXOOOOXXXX",
"XXXX....XXXXXXXXooooOO  @@@@######$$$$$$$$$$  XXXXXXXXXXOOOOXXXX",
"....XXXXooooXXXX....XX  @@@@@@@@    $$$$$$$$  XX....XXXXXXXXXXXX",
"....XXXXooooXXXX....XX  @@@@@@@@    $$$$$$$$  XX....XXXXXXXXXXXX",
"....XXXXooooXXXX....XXXX  @@@@@@  oo  $$$$$$  XX....XXXXXXXXXXXX",
"....XXXXooooXXXX....XXXX  @@@@@@  oo  $$$$$$  XX....XXXXXXXXXXXX"
};
