/* XPM */
static char *jump_r_3[] = {
/* columns rows colors chars-per-pixel */
"64 64 10 1 ",
"  c #04193F",
". c #C6E763",
"X c #CEEF63",
"o c #D6EF63",
"O c #D6F763",
"+ c #E7F763",
"@ c #780BF7",
"# c #D840FB",
"$ c #F489F6",
"% c #FCFEFE",
/* pixels */
"ooooooooooooXXXXXXXXXXXXXXXXooooXXXXXXXXXXXXooooOOOOOOOO++++++++",
"ooooooooooooXXXXXXXXXXXXXXXXooooXXXXXXXXXXXXooooOOOOOOOO++++++++",
"ooooooooooooXXXXXXXXXXXXXXXXooooXXXXXXXXXXXXooooOOOOOOOO++++++++",
"ooooooooooooXXXXXXXXXXXXXXXXooooXXXXXXXXXXXXooooOOOOOOOO++++++++",
"++++++++oooo....        XXXXXX      ooooOOOOOOOOooooooooOOOOOOOO",
"++++++++oooo....        XXXXXX      ooooOOOOOOOOooooooooOOOOOOOO",
"++++++++oooo..  $$$$$$$$      @@@@@@    OOOOOOOOooooooooOOOOOOOO",
"++++++++oooo..  $$$$$$$$      @@@@@@    OOOOOOOOooooooooOOOOOOOO",
"oooo++++XXXXXX  $$$$$$$$$$########@@@@@@  OOXXXXooooooooXXXX++++",
"oooo++++XXXXXX  $$$$$$$$$$########@@@@@@  OOXXXXooooooooXXXX++++",
"oooo++++XXXXXX  $$$$$$$$$$$$$$$$######@@@@  XXXXooooooooXXXX++++",
"oooo++++XXXXXX  $$$$$$$$$$$$$$$$######@@@@  XXXXooooooooXXXX++++",
"OOOOoooooooooooo  ####$$$$$$$$$$$$######@@  XXXXXXXXooooXXXXOOOO",
"OOOOoooooooooooo  ####$$$$$$$$$$$$######@@  XXXXXXXXooooXXXXOOOO",
"OOOOoooooooooooo  $$$$$$$$$$%%%%%%%%%%%%@@@@  XXXXXXooooXXXXOOOO",
"OOOOoooooooooooo  $$$$$$$$$$%%%%%%%%%%%%@@@@  XXXXXXooooXXXXOOOO",
"oooooooooooooo  ##$$$$$$$$%%%%%%%%%%%%%%%%@@  ooXXXXOOOOoooooooo",
"oooooooooooooo  ##$$$$$$$$%%%%%%%%%%%%%%%%@@  ooXXXXOOOOoooooooo",
"oooooooooooooo  $$$$$$$$%%%%      %%%%%%    @@  XXXXOOOOoooooooo",
"oooooooooooooo  $$$$$$$$%%%%      %%%%%%    @@  XXXXOOOOoooooooo",
"ooooOOOOooooXX  $$$$$$$$%%    %%%%  %%    %%    ....oooooooo++++",
"ooooOOOOooooXX  $$$$$$$$%%    %%%%  %%    %%    ....oooooooo++++",
"ooooOOOOooooXX  $$$$$$$$%%    %%%%  %%    %%    ....oooooooo++++",
"ooooOOOOooooXX  $$$$$$$$%%    %%%%  %%    %%    ....oooooooo++++",
"XXXXooooXXXXXX  $$$$$$$$%%    %%%%  %%    %%    ....XXXXoooooooo",
"XXXXooooXXXXXX  $$$$$$$$%%    %%%%  %%    %%    ....XXXXoooooooo",
"XXXXooooXXXXXX  ##$$$$$$$$%%      %%%%%%    @@  ....XXXXoooooooo",
"XXXXooooXXXXXX  ##$$$$$$$$%%      %%%%%%    @@  ....XXXXoooooooo",
"XXXXXXXXXXXX....  $$$$$$$$%%%%%%%%%%%%%%%%%%  XXXXXXXXXX........",
"XXXXXXXXXXXX....  $$$$$$$$%%%%%%%%%%%%%%%%%%  XXXXXXXXXX........",
"XXXXXXXXXXXX....  ##$$$$$$$$##%%%%%%%%%%%%@@  XXXXXXXXXX........",
"XXXXXXXXXXXX....  ##$$$$$$$$##%%%%%%%%%%%%@@  XXXXXXXXXX........",
"XXXXXXXXXXXXXXXX..  $$$$$$$$$$######@@@@@@  XXXX....XXXX....XXXX",
"XXXXXXXXXXXXXXXX..  $$$$$$$$$$######@@@@@@  XXXX....XXXX....XXXX",
"XXXXXXXXXXXXXXXX..  $$$$$$$$$$$$%%%%%%@@  XXXXXX....XXXX....XXXX",
"XXXXXXXXXXXXXXXX..  $$$$$$$$$$$$%%%%%%@@  XXXXXX....XXXX....XXXX",
"XXXXXXXXooooOOOOoo  $$$$$$$$$$%%%%%%%%@@  XXXXXXXXXXoooo++++oooo",
"XXXXXXXXooooOOOOoo  $$$$$$$$$$%%%%%%%%@@  XXXXXXXXXXoooo++++oooo",
"XXXXXXXXooooOOOO  $$$$$$$$@@$$%%%%%%%%%%@@  XXXXXXXXoooo++++oooo",
"XXXXXXXXooooOOOO  $$$$$$$$@@$$%%%%%%%%%%@@  XXXXXXXXoooo++++oooo",
"XXXXoooooooo++++  $$$$$$$$@@%%%%%%%%%%%%@@  OOOOooooOOOO++++oooo",
"XXXXoooooooo++++  $$$$$$$$@@%%%%%%%%%%%%@@  OOOOooooOOOO++++oooo",
"XXXXoooooooo++++  $$$$$$@@##%%%%%%%%%%%%@@@@  OOooooOOOO++++oooo",
"XXXXoooooooo++++  $$$$$$@@##%%%%%%%%%%%%@@@@  OOooooOOOO++++oooo",
"ooooooooXXXXoo  $$$$$$$$@@##%%%%%%%%%%%%@@@@  ooXXXX....XXXXoooo",
"ooooooooXXXXoo  $$$$$$$$@@##%%%%%%%%%%%%@@@@  ooXXXX....XXXXoooo",
"ooooooooXXXXoo  $$$$$$@@##$$%%%%%%%%%%%%@@@@  ooXXXX....XXXXoooo",
"ooooooooXXXXoo  $$$$$$@@##$$%%%%%%%%%%%%@@@@  ooXXXX....XXXXoooo",
"XXXXXXXXXXXXoo  $$$$$$@@##$$%%%%%%%%%%%%@@@@  XXXXXXXXXXoooooooo",
"XXXXXXXXXXXXoo  $$$$$$@@##$$%%%%%%%%%%%%@@@@  XXXXXXXXXXoooooooo",
"XXXXXXXXXXXXoooo  @@@@##$$$$$$%%%%%%%%@@    XXXXXXXXXXXXoooooooo",
"XXXXXXXXXXXXoooo  @@@@##$$$$$$%%%%%%%%@@    XXXXXXXXXXXXoooooooo",
"XXXXXXXXXXXXooooOO  ####$$$$$$######@@@@  XXXXXXXXXXOOOOoooooooo",
"XXXXXXXXXXXXooooOO  ####$$$$$$######@@@@  XXXXXXXXXXOOOOoooooooo",
"XXXXXXXXXXXXooooOO  $$$$$$$$    @@@@@@@@  XXXXXXXXXXOOOOoooooooo",
"XXXXXXXXXXXXooooOO  $$$$$$$$    @@@@@@@@  XXXXXXXXXXOOOOoooooooo",
"XXXX....XXXXXXXXoo  $$$$$$$$    @@@@@@@@  XXXXXXXXXXXXXXOOOOXXXX",
"XXXX....XXXXXXXXoo  $$$$$$$$    @@@@@@@@  XXXXXXXXXXXXXXOOOOXXXX",
"XXXX....XXXXXXXXoo  $$$$$$  XX  @@@@@@  XXXXXXXXXXXXXXXXOOOOXXXX",
"XXXX....XXXXXXXXoo  $$$$$$  XX  @@@@@@  XXXXXXXXXXXXXXXXOOOOXXXX",
"....XXXXooooXXXX..  $$$$$$  oo  @@@@@@  OOOOXXXX....XXXXXXXXXXXX",
"....XXXXooooXXXX..  $$$$$$  oo  @@@@@@  OOOOXXXX....XXXXXXXXXXXX",
"....XXXXooooXXXX....        oooo        OOOOXXXX....XXXXXXXXXXXX",
"....XXXXooooXXXX....        oooo        OOOOXXXX....XXXXXXXXXXXX"
};
