/* XPM */
static char *jump_r_2[] = {
/* columns rows colors chars-per-pixel */
"64 64 10 1 ",
"  c #04193F",
". c #C6E763",
"X c #CEEF63",
"o c #D6EF63",
"O c #D6F763",
"+ c #E7F763",
"@ c #780BF7",
"# c #D840FB",
"$ c #F489F6",
"% c #FCFEFE",
/* pixels */
"ooooooooooooXXXXXXXXXXXXXXXXooooXXXXXXXXXXXXooooOOOOOOOO++++++++",
"ooooooooooooXXXXXXXXXXXXXXXXooooXXXXXXXXXXXXooooOOOOOOOO++++++++",
"ooooooooooooXXXXXXXXXXXXXXXXooooXXXXXXXXXXXXooooOOOOOOOO++++++++",
"ooooooooooooXXXXXXXXXXXXXXXXooooXXXXXXXXXXXXooooOOOOOOOO++++++++",
"++++++++oooo....XXXXXXXXXXXXXXXXooooooooOOOOOOOOooooooooOOOOOOOO",
"++++++++oooo....XXXXXXXXXXXXXXXXooooooooOOOOOOOOooooooooOOOOOOOO",
"++++++++oooo....XXXXXXXXXXXXXXXXooooooooOOOOOOOOooooooooOOOOOOOO",
"++++++++oooo....XXXXXXXXXXXXXXXXooooooooOOOOOOOOooooooooOOOOOOOO",
"oooo++++XXXXXXXXooooooooOOOOooooOOOO++++OOOOXXXXooooooooXXXX++++",
"oooo++++XXXXXXXXooooooooOOOOooooOOOO++++OOOOXXXXooooooooXXXX++++",
"oooo++++XXXXXXXXooooooooOOOOooooOOOO++++OOOOXXXXooooooooXXXX++++",
"oooo++++XXXXXXXXooooooooOOOOooooOOOO++++OOOOXXXXooooooooXXXX++++",
"OOOOooooooooooooXX      ++++oooo      OOooooXXXXXXXXooooXXXXOOOO",
"OOOOooooooooooooXX      ++++oooo      OOooooXXXXXXXXooooXXXXOOOO",
"OOOOoooooooooooo  $$$$$$  ++oo  @@@@@@  ooooXXXXXXXXooooXXXXOOOO",
"OOOOoooooooooooo  $$$$$$  ++oo  @@@@@@  ooooXXXXXXXXooooXXXXOOOO",
"oooooooooooooooo  $$$$$$$$  XX  @@@@@@  ooooooooXXXXOOOOoooooooo",
"oooooooooooooooo  $$$$$$$$  XX  @@@@@@  ooooooooXXXXOOOOoooooooo",
"oooooooooooooooo  $$$$$$$$$$      @@@@@@  ooooooXXXXOOOOoooooooo",
"oooooooooooooooo  $$$$$$$$$$      @@@@@@  ooooooXXXXOOOOoooooooo",
"ooooOOOOooooXXXXXX  $$$$$$########@@@@@@  ooXXXX....oooooooo++++",
"ooooOOOOooooXXXXXX  $$$$$$########@@@@@@  ooXXXX....oooooooo++++",
"ooooOOOOooooXXXXXX  ##$$$$$$$$$$######@@@@  XXXX....oooooooo++++",
"ooooOOOOooooXXXXXX  ##$$$$$$$$$$######@@@@  XXXX....oooooooo++++",
"XXXXooooXXXXXXXX  ##$$$$$$$$$$$$$$######@@  XXXX....XXXXoooooooo",
"XXXXooooXXXXXXXX  ##$$$$$$$$$$$$$$######@@  XXXX....XXXXoooooooo",
"XXXXooooXXXXXXXX  $$$$$$$$$$%%%%%%%%%%%%@@@@  XX....XXXXoooooooo",
"XXXXooooXXXXXXXX  $$$$$$$$$$%%%%%%%%%%%%@@@@  XX....XXXXoooooooo",
"XXXXXXXXXXXX..  ##$$$$$$$$%%%%%%%%%%%%%%%%@@  XXXXXXXXXX........",
"XXXXXXXXXXXX..  ##$$$$$$$$%%%%%%%%%%%%%%%%@@  XXXXXXXXXX........",
"XXXXXXXXXXXX..  $$$$$$$$%%%%      %%%%%%    @@  XXXXXXXX........",
"XXXXXXXXXXXX..  $$$$$$$$%%%%      %%%%%%    @@  XXXXXXXX........",
"XXXXXXXXXXXXXX  $$$$$$$$%%    %%%%  %%    %%    ....XXXX....XXXX",
"XXXXXXXXXXXXXX  $$$$$$$$%%    %%%%  %%    %%    ....XXXX....XXXX",
"XXXXXXXXXXXXXX  $$$$$$$$%%          %%          ....XXXX....XXXX",
"XXXXXXXXXXXXXX  $$$$$$$$%%          %%          ....XXXX....XXXX",
"XXXXXXXXooooOO  $$$$$$$$%%          %%          XXXXoooo++++oooo",
"XXXXXXXXooooOO  $$$$$$$$%%          %%          XXXXoooo++++oooo",
"XXXXXXXXooooOO  ##$$$$$$$$%%      %%%%%%    @@  XXXXoooo++++oooo",
"XXXXXXXXooooOO  ##$$$$$$$$%%      %%%%%%    @@  XXXXoooo++++oooo",
"XXXXoooooooo++++  $$$$$$$$%%%%%%%%%%%%%%%%%%  OOooooOOOO++++oooo",
"XXXXoooooooo++++  $$$$$$$$%%%%%%%%%%%%%%%%%%  OOooooOOOO++++oooo",
"XXXXoooooooo++++  ##$$$$$$$$##%%%%%%%%%%%%@@  OOooooOOOO++++oooo",
"XXXXoooooooo++++  ##$$$$$$$$##%%%%%%%%%%%%@@  OOooooOOOO++++oooo",
"ooooooooXX          $$$$$$$$$$######@@@@@@        XX....XXXXoooo",
"ooooooooXX          $$$$$$$$$$######@@@@@@        XX....XXXXoooo",
"oooooooo  $$$$$$$$$$$$$$$$$$$$%%%%%%%%%%@@@@@@@@@@  ....XXXXoooo",
"oooooooo  $$$$$$$$$$$$$$$$$$$$%%%%%%%%%%@@@@@@@@@@  ....XXXXoooo",
"XXXXXXXX  $$$$$$$$$$$$$$$$$$%%%%%%%%%%%%%%@@@@@@@@  XXXXoooooooo",
"XXXXXXXX  $$$$$$$$$$$$$$$$$$%%%%%%%%%%%%%%@@@@@@@@  XXXXoooooooo",
"XXXXXXXX  $$$$$$$$$$$$$$$$%%%%%%%%%%%%%%%%@@@@@@@@  XXXXoooooooo",
"XXXXXXXX  $$$$$$$$$$$$$$$$%%%%%%%%%%%%%%%%@@@@@@@@  XXXXoooooooo",
"XXXXXXXXXX        @@@@$$$$%%%%%%%%%%%%%%%%        XXOOOOoooooooo",
"XXXXXXXXXX        @@@@$$$$%%%%%%%%%%%%%%%%        XXOOOOoooooooo",
"XXXXXXXXXXXXooooOO  ##$$$$%%%%%%%%%%%%%%  XXXXXXXXXXOOOOoooooooo",
"XXXXXXXXXXXXooooOO  ##$$$$%%%%%%%%%%%%%%  XXXXXXXXXXOOOOoooooooo",
"XXXX....XXXXXXXXoo  $$$$$$$$%%%%%%%%%%%%  XXXXXXXXXXXXXXOOOOXXXX",
"XXXX....XXXXXXXXoo  $$$$$$$$%%%%%%%%%%%%  XXXXXXXXXXXXXXOOOOXXXX",
"XXXX....XXXXXXXXoo  $$$$$$$$$$######@@@@  XXXXXXXXXXXXXXOOOOXXXX",
"XXXX....XXXXXXXXoo  $$$$$$$$$$######@@@@  XXXXXXXXXXXXXXOOOOXXXX",
"....XXXXooooXXXX  $$$$$$$$$$    @@@@@@@@  OOXXXX....XXXXXXXXXXXX",
"....XXXXooooXXXX  $$$$$$$$$$    @@@@@@@@  OOXXXX....XXXXXXXXXXXX",
"....XXXXooooXXXX  $$$$$$$$  oo  @@@@@@  OOOOXXXX....XXXXXXXXXXXX",
"....XXXXooooXXXX  $$$$$$$$  oo  @@@@@@  OOOOXXXX....XXXXXXXXXXXX"
};
