/* XPM */
static char *jump_l_2[] = {
/* columns rows colors chars-per-pixel */
"64 64 10 1 ",
"  c #04193F",
". c #C6E763",
"X c #CEEF63",
"o c #D6EF63",
"O c #D6F763",
"+ c #E7F763",
"@ c #780BF7",
"# c #D840FB",
"$ c #F489F6",
"% c #FCFEFE",
/* pixels */
"ooooooooooooXXXXXXXXXXXXXXXXooooXXXXXXXXXXXXooooOOOOOOOO++++++++",
"ooooooooooooXXXXXXXXXXXXXXXXooooXXXXXXXXXXXXooooOOOOOOOO++++++++",
"ooooooooooooXXXXXXXXXXXXXXXXooooXXXXXXXXXXXXooooOOOOOOOO++++++++",
"ooooooooooooXXXXXXXXXXXXXXXXooooXXXXXXXXXXXXooooOOOOOOOO++++++++",
"++++++++oooo....XXXXXXXXXXXXXXXXooooooooOOOOOOOOooooooooOOOOOOOO",
"++++++++oooo....XXXXXXXXXXXXXXXXooooooooOOOOOOOOooooooooOOOOOOOO",
"++++++++oooo....XXXXXXXXXXXXXXXXooooooooOOOOOOOOooooooooOOOOOOOO",
"++++++++oooo....XXXXXXXXXXXXXXXXooooooooOOOOOOOOooooooooOOOOOOOO",
"oooo++++XXXXXXXXooooooooOOOOooooOOOO++++OOOOXXXXooooooooXXXX++++",
"oooo++++XXXXXXXXooooooooOOOOooooOOOO++++OOOOXXXXooooooooXXXX++++",
"oooo++++XXXXXXXXooooooooOOOOooooOOOO++++OOOOXXXXooooooooXXXX++++",
"oooo++++XXXXXXXXooooooooOOOOooooOOOO++++OOOOXXXXooooooooXXXX++++",
"OOOOooooooooooooXXXXoooo++      ooooOOOO      XXXXXXooooXXXXOOOO",
"OOOOooooooooooooXXXXoooo++      ooooOOOO      XXXXXXooooXXXXOOOO",
"OOOOooooooooooooXXXXoooo  @@@@@@  ooOO  $$$$$$  XXXXooooXXXXOOOO",
"OOOOooooooooooooXXXXoooo  @@@@@@  ooOO  $$$$$$  XXXXooooXXXXOOOO",
"ooooooooooooooooXXXXoooo  @@@@@@  XX  $$$$$$$$  XXXXOOOOoooooooo",
"ooooooooooooooooXXXXoooo  @@@@@@  XX  $$$$$$$$  XXXXOOOOoooooooo",
"ooooooooooooooooXXXXoo  @@@@@@      $$$$$$$$$$  XXXXOOOOoooooooo",
"ooooooooooooooooXXXXoo  @@@@@@      $$$$$$$$$$  XXXXOOOOoooooooo",
"ooooOOOOooooXXXXXXXXXX  @@@@@@########$$$$$$  XX....oooooooo++++",
"ooooOOOOooooXXXXXXXXXX  @@@@@@########$$$$$$  XX....oooooooo++++",
"ooooOOOOooooXXXXXXXX  @@@@######$$$$$$$$$$##  XX....oooooooo++++",
"ooooOOOOooooXXXXXXXX  @@@@######$$$$$$$$$$##  XX....oooooooo++++",
"XXXXooooXXXXXXXXXXXX  @@######$$$$$$$$$$$$$$##  ....XXXXoooooooo",
"XXXXooooXXXXXXXXXXXX  @@######$$$$$$$$$$$$$$##  ....XXXXoooooooo",
"XXXXooooXXXXXXXXXX  @@@@%%%%%%%%%%%%$$$$$$$$$$  ....XXXXoooooooo",
"XXXXooooXXXXXXXXXX  @@@@%%%%%%%%%%%%$$$$$$$$$$  ....XXXXoooooooo",
"XXXXXXXXXXXX......  @@%%%%%%%%%%%%%%%%$$$$$$$$##  XXXXXX........",
"XXXXXXXXXXXX......  @@%%%%%%%%%%%%%%%%$$$$$$$$##  XXXXXX........",
"XXXXXXXXXXXX....  @@    %%%%%%      %%%%$$$$$$$$  XXXXXX........",
"XXXXXXXXXXXX....  @@    %%%%%%      %%%%$$$$$$$$  XXXXXX........",
"XXXXXXXXXXXXXXXX    %%    %%  %%%%    %%$$$$$$$$  ..XXXX....XXXX",
"XXXXXXXXXXXXXXXX    %%    %%  %%%%    %%$$$$$$$$  ..XXXX....XXXX",
"XXXXXXXXXXXXXXXX          %%          %%$$$$$$$$  ..XXXX....XXXX",
"XXXXXXXXXXXXXXXX          %%          %%$$$$$$$$  ..XXXX....XXXX",
"XXXXXXXXooooOOOO          %%          %%$$$$$$$$  XXoooo++++oooo",
"XXXXXXXXooooOOOO          %%          %%$$$$$$$$  XXoooo++++oooo",
"XXXXXXXXooooOOOO  @@    %%%%%%      %%$$$$$$$$##  XXoooo++++oooo",
"XXXXXXXXooooOOOO  @@    %%%%%%      %%$$$$$$$$##  XXoooo++++oooo",
"XXXXoooooooo++++OO  %%%%%%%%%%%%%%%%%%$$$$$$$$  ooooOOOO++++oooo",
"XXXXoooooooo++++OO  %%%%%%%%%%%%%%%%%%$$$$$$$$  ooooOOOO++++oooo",
"XXXXoooooooo++++OO  @@%%%%%%%%%%%%##$$$$$$$$##  ooooOOOO++++oooo",
"XXXXoooooooo++++OO  @@%%%%%%%%%%%%##$$$$$$$$##  ooooOOOO++++oooo",
"ooooooooXXXXoo        @@@@@@######$$$$$$$$$$          ..XXXXoooo",
"ooooooooXXXXoo        @@@@@@######$$$$$$$$$$          ..XXXXoooo",
"ooooooooXXXX  @@@@@@@@@@%%%%%%%%%%$$$$$$$$$$$$$$$$$$$$  XXXXoooo",
"ooooooooXXXX  @@@@@@@@@@%%%%%%%%%%$$$$$$$$$$$$$$$$$$$$  XXXXoooo",
"XXXXXXXXXXXX  @@@@@@@@%%%%%%%%%%%%%%$$$$$$$$$$$$$$$$$$  oooooooo",
"XXXXXXXXXXXX  @@@@@@@@%%%%%%%%%%%%%%$$$$$$$$$$$$$$$$$$  oooooooo",
"XXXXXXXXXXXX  @@@@@@@@%%%%%%%%%%%%%%%%$$$$$$$$$$$$$$$$  oooooooo",
"XXXXXXXXXXXX  @@@@@@@@%%%%%%%%%%%%%%%%$$$$$$$$$$$$$$$$  oooooooo",
"XXXXXXXXXXXXoo        %%%%%%%%%%%%%%%%$$$$@@@@        OOoooooooo",
"XXXXXXXXXXXXoo        %%%%%%%%%%%%%%%%$$$$@@@@        OOoooooooo",
"XXXXXXXXXXXXooooOOOO++  %%%%%%%%%%%%%%$$$$##  XXXXXXOOOOoooooooo",
"XXXXXXXXXXXXooooOOOO++  %%%%%%%%%%%%%%$$$$##  XXXXXXOOOOoooooooo",
"XXXX....XXXXXXXXooooOO  %%%%%%%%%%%%$$$$$$$$  XXXXXXXXXXOOOOXXXX",
"XXXX....XXXXXXXXooooOO  %%%%%%%%%%%%$$$$$$$$  XXXXXXXXXXOOOOXXXX",
"XXXX....XXXXXXXXooooOO  @@@@######$$$$$$$$$$  XXXXXXXXXXOOOOXXXX",
"XXXX....XXXXXXXXooooOO  @@@@######$$$$$$$$$$  XXXXXXXXXXOOOOXXXX",
"....XXXXooooXXXX....XX  @@@@@@@@    $$$$$$$$$$  ....XXXXXXXXXXXX",
"....XXXXooooXXXX....XX  @@@@@@@@    $$$$$$$$$$  ....XXXXXXXXXXXX",
"....XXXXooooXXXX....XXXX  @@@@@@  oo  $$$$$$$$  ....XXXXXXXXXXXX",
"....XXXXooooXXXX....XXXX  @@@@@@  oo  $$$$$$$$  ....XXXXXXXXXXXX"
};
