/* XPM */
static char *jump_l_3[] = {
/* columns rows colors chars-per-pixel */
"64 64 10 1 ",
"  c #04193F",
". c #C6E763",
"X c #CEEF63",
"o c #D6EF63",
"O c #D6F763",
"+ c #E7F763",
"@ c #780BF7",
"# c #D840FB",
"$ c #F489F6",
"% c #FCFEFE",
/* pixels */
"ooooooooooooXXXXXXXXXXXXXXXXooooXXXXXXXXXXXXooooOOOOOOOO++++++++",
"ooooooooooooXXXXXXXXXXXXXXXXooooXXXXXXXXXXXXooooOOOOOOOO++++++++",
"ooooooooooooXXXXXXXXXXXXXXXXooooXXXXXXXXXXXXooooOOOOOOOO++++++++",
"ooooooooooooXXXXXXXXXXXXXXXXooooXXXXXXXXXXXXooooOOOOOOOO++++++++",
"++++++++oooo....XXXXXXXXXXXX      oooooo        ooooooooOOOOOOOO",
"++++++++oooo....XXXXXXXXXXXX      oooooo        ooooooooOOOOOOOO",
"++++++++oooo....XXXXXXXX    @@@@@@      $$$$$$$$  ooooooOOOOOOOO",
"++++++++oooo....XXXXXXXX    @@@@@@      $$$$$$$$  ooooooOOOOOOOO",
"oooo++++XXXXXXXXoooooo  @@@@@@########$$$$$$$$$$  ooooooXXXX++++",
"oooo++++XXXXXXXXoooooo  @@@@@@########$$$$$$$$$$  ooooooXXXX++++",
"oooo++++XXXXXXXXoooo  @@@@######$$$$$$$$$$$$$$$$  ooooooXXXX++++",
"oooo++++XXXXXXXXoooo  @@@@######$$$$$$$$$$$$$$$$  ooooooXXXX++++",
"OOOOooooooooooooXXXX  @@######$$$$$$$$$$$$####  XXXXooooXXXXOOOO",
"OOOOooooooooooooXXXX  @@######$$$$$$$$$$$$####  XXXXooooXXXXOOOO",
"OOOOooooooooooooXX  @@@@%%%%%%%%%%%%$$$$$$$$$$  XXXXooooXXXXOOOO",
"OOOOooooooooooooXX  @@@@%%%%%%%%%%%%$$$$$$$$$$  XXXXooooXXXXOOOO",
"ooooooooooooooooXX  @@%%%%%%%%%%%%%%%%$$$$$$$$##  XXOOOOoooooooo",
"ooooooooooooooooXX  @@%%%%%%%%%%%%%%%%$$$$$$$$##  XXOOOOoooooooo",
"oooooooooooooooo  @@    %%%%%%      %%%%$$$$$$$$  XXOOOOoooooooo",
"oooooooooooooooo  @@    %%%%%%      %%%%$$$$$$$$  XXOOOOoooooooo",
"ooooOOOOooooXXXX    %%    %%  %%%%    %%$$$$$$$$  ..oooooooo++++",
"ooooOOOOooooXXXX    %%    %%  %%%%    %%$$$$$$$$  ..oooooooo++++",
"ooooOOOOooooXXXX    %%    %%  %%%%    %%$$$$$$$$  ..oooooooo++++",
"ooooOOOOooooXXXX    %%    %%  %%%%    %%$$$$$$$$  ..oooooooo++++",
"XXXXooooXXXXXXXX    %%    %%  %%%%    %%$$$$$$$$  ..XXXXoooooooo",
"XXXXooooXXXXXXXX    %%    %%  %%%%    %%$$$$$$$$  ..XXXXoooooooo",
"XXXXooooXXXXXXXX  @@    %%%%%%      %%$$$$$$$$##  ..XXXXoooooooo",
"XXXXooooXXXXXXXX  @@    %%%%%%      %%$$$$$$$$##  ..XXXXoooooooo",
"XXXXXXXXXXXX......  %%%%%%%%%%%%%%%%%%$$$$$$$$  XXXXXXXX........",
"XXXXXXXXXXXX......  %%%%%%%%%%%%%%%%%%$$$$$$$$  XXXXXXXX........",
"XXXXXXXXXXXX......  @@%%%%%%%%%%%%##$$$$$$$$##  XXXXXXXX........",
"XXXXXXXXXXXX......  @@%%%%%%%%%%%%##$$$$$$$$##  XXXXXXXX........",
"XXXXXXXXXXXXXXXX....  @@@@@@######$$$$$$$$$$  XX....XXXX....XXXX",
"XXXXXXXXXXXXXXXX....  @@@@@@######$$$$$$$$$$  XX....XXXX....XXXX",
"XXXXXXXXXXXXXXXX......  @@%%%%%%$$$$$$$$$$$$  XX....XXXX....XXXX",
"XXXXXXXXXXXXXXXX......  @@%%%%%%$$$$$$$$$$$$  XX....XXXX....XXXX",
"XXXXXXXXooooOOOOooooXX  @@%%%%%%%%$$$$$$$$$$  XXXXXXoooo++++oooo",
"XXXXXXXXooooOOOOooooXX  @@%%%%%%%%$$$$$$$$$$  XXXXXXoooo++++oooo",
"XXXXXXXXooooOOOOoooo  @@%%%%%%%%%%$$@@$$$$$$$$  XXXXoooo++++oooo",
"XXXXXXXXooooOOOOoooo  @@%%%%%%%%%%$$@@$$$$$$$$  XXXXoooo++++oooo",
"XXXXoooooooo++++OOOO  @@%%%%%%%%%%%%@@$$$$$$$$  ooooOOOO++++oooo",
"XXXXoooooooo++++OOOO  @@%%%%%%%%%%%%@@$$$$$$$$  ooooOOOO++++oooo",
"XXXXoooooooo++++OO  @@@@%%%%%%%%%%%%##@@$$$$$$  ooooOOOO++++oooo",
"XXXXoooooooo++++OO  @@@@%%%%%%%%%%%%##@@$$$$$$  ooooOOOO++++oooo",
"ooooooooXXXXoooo++  @@@@%%%%%%%%%%%%##@@$$$$$$$$  XX....XXXXoooo",
"ooooooooXXXXoooo++  @@@@%%%%%%%%%%%%##@@$$$$$$$$  XX....XXXXoooo",
"ooooooooXXXXoooo++  @@@@%%%%%%%%%%%%$$##@@$$$$$$  XX....XXXXoooo",
"ooooooooXXXXoooo++  @@@@%%%%%%%%%%%%$$##@@$$$$$$  XX....XXXXoooo",
"XXXXXXXXXXXXoooo++  @@@@%%%%%%%%%%%%$$##@@$$$$$$  XXXXXXoooooooo",
"XXXXXXXXXXXXoooo++  @@@@%%%%%%%%%%%%$$##@@$$$$$$  XXXXXXoooooooo",
"XXXXXXXXXXXXoooo++++    @@%%%%%%%%$$$$$$##@@@@  XXXXXXXXoooooooo",
"XXXXXXXXXXXXoooo++++    @@%%%%%%%%$$$$$$##@@@@  XXXXXXXXoooooooo",
"XXXXXXXXXXXXooooOOOO++  @@@@######$$$$$$####  XXXXXXOOOOoooooooo",
"XXXXXXXXXXXXooooOOOO++  @@@@######$$$$$$####  XXXXXXOOOOoooooooo",
"XXXXXXXXXXXXooooOOOO++  @@@@@@@@    $$$$$$$$  XXXXXXOOOOoooooooo",
"XXXXXXXXXXXXooooOOOO++  @@@@@@@@    $$$$$$$$  XXXXXXOOOOoooooooo",
"XXXX....XXXXXXXXooooOO  @@@@@@@@    $$$$$$$$  XXXXXXXXXXOOOOXXXX",
"XXXX....XXXXXXXXooooOO  @@@@@@@@    $$$$$$$$  XXXXXXXXXXOOOOXXXX",
"XXXX....XXXXXXXXooooOOOO  @@@@@@  oo  $$$$$$  XXXXXXXXXXOOOOXXXX",
"XXXX....XXXXXXXXooooOOOO  @@@@@@  oo  $$$$$$  XXXXXXXXXXOOOOXXXX",
"....XXXXooooXXXX....XXXX  @@@@@@  oo  $$$$$$  XX....XXXXXXXXXXXX",
"....XXXXooooXXXX....XXXX  @@@@@@  oo  $$$$$$  XX....XXXXXXXXXXXX",
"....XXXXooooXXXX....XXXX        oooo        XXXX....XXXXXXXXXXXX",
"....XXXXooooXXXX....XXXX        oooo        XXXX....XXXXXXXXXXXX"
};
