/* XPM */
static char *jump_l_4[] = {
/* columns rows colors chars-per-pixel */
"64 64 10 1 ",
"  c #04193F",
". c #C6E763",
"X c #CEEF63",
"o c #D6EF63",
"O c #D6F763",
"+ c #E7F763",
"@ c #780BF7",
"# c #D840FB",
"$ c #F489F6",
"% c #FCFEFE",
/* pixels */
"ooooooooooooXXXXXXXXXXXXXXXXooooXXXXXXXXXXXX    OOOOOOOO++++++++",
"ooooooooooooXXXXXXXXXXXXXXXXooooXXXXXXXXXXXX    OOOOOOOO++++++++",
"ooooooooooooXXXXXXXXXXXXXXXX      XXXX      $$$$  OOOOOO++++++++",
"ooooooooooooXXXXXXXXXXXXXXXX      XXXX      $$$$  OOOOOO++++++++",
"++++++++oooo....XXXXXXXXXX  @@@@@@    $$$$$$$$$$  ooooooOOOOOOOO",
"++++++++oooo....XXXXXXXXXX  @@@@@@    $$$$$$$$$$  ooooooOOOOOOOO",
"++++++++oooo....XXXXXXXX  @@@@@@@@  $$$$$$$$$$$$  ooooooOOOOOOOO",
"++++++++oooo....XXXXXXXX  @@@@@@@@  $$$$$$$$$$$$  ooooooOOOOOOOO",
"oooo++++XXXXXXXXoooooo  @@@@@@########$$$$$$$$  ooooooooXXXX++++",
"oooo++++XXXXXXXXoooooo  @@@@@@########$$$$$$$$  ooooooooXXXX++++",
"oooo++++XXXXXXXXoooo  @@@@######$$$$$$$$$$##  XXooooooooXXXX++++",
"oooo++++XXXXXXXXoooo  @@@@######$$$$$$$$$$##  XXooooooooXXXX++++",
"OOOOooooooooooooXXXX  @@######$$$$$$$$$$$$$$##  XXXXooooXXXXOOOO",
"OOOOooooooooooooXXXX  @@######$$$$$$$$$$$$$$##  XXXXooooXXXXOOOO",
"OOOOooooooooooooXX  @@@@%%%%%%%%%%%%$$$$$$$$$$  XXXXooooXXXXOOOO",
"OOOOooooooooooooXX  @@@@%%%%%%%%%%%%$$$$$$$$$$  XXXXooooXXXXOOOO",
"ooooooooooooooooXX  @@%%%%%%%%%%%%%%%%$$$$$$$$##  XXOOOOoooooooo",
"ooooooooooooooooXX  @@%%%%%%%%%%%%%%%%$$$$$$$$##  XXOOOOoooooooo",
"oooooooooooooooo  @@    %%%%%%      %%%%$$$$$$$$  XXOOOOoooooooo",
"oooooooooooooooo  @@    %%%%%%      %%%%$$$$$$$$  XXOOOOoooooooo",
"ooooOOOOooooXXXX    %%    %%  %%%%    %%$$$$$$$$  ..oooooooo++++",
"ooooOOOOooooXXXX    %%    %%  %%%%    %%$$$$$$$$  ..oooooooo++++",
"ooooOOOOooooXXXX    %%    %%  %%%%    %%$$$$$$$$  ..oooooooo++++",
"ooooOOOOooooXXXX    %%    %%  %%%%    %%$$$$$$$$  ..oooooooo++++",
"XXXXooooXXXXXXXX          %%          %%$$$$$$$$  ..XXXXoooooooo",
"XXXXooooXXXXXXXX          %%          %%$$$$$$$$  ..XXXXoooooooo",
"XXXXooooXXXXXXXX  @@    %%%%%%      %%$$$$$$$$##  ..XXXXoooooooo",
"XXXXooooXXXXXXXX  @@    %%%%%%      %%$$$$$$$$##  ..XXXXoooooooo",
"XXXXXXXXXXXX......  %%%%%%%%%%%%%%%%%%$$$$$$$$  XXXXXXXX........",
"XXXXXXXXXXXX......  %%%%%%%%%%%%%%%%%%$$$$$$$$  XXXXXXXX........",
"XXXXXXXXXXXX......  @@%%%%%%%%%%%%##$$$$$$$$##  XXXXXXXX........",
"XXXXXXXXXXXX......  @@%%%%%%%%%%%%##$$$$$$$$##  XXXXXXXX........",
"XXXXXXXXXXXXXXXX....  @@@@@@######$$$$$$$$$$  XX....XXXX....XXXX",
"XXXXXXXXXXXXXXXX....  @@@@@@######$$$$$$$$$$  XX....XXXX....XXXX",
"XXXXXXXXXXXXXXXX......  @@%%%%%%$$$$$$$$$$$$  XX....XXXX....XXXX",
"XXXXXXXXXXXXXXXX......  @@%%%%%%$$$$$$$$$$$$  XX....XXXX....XXXX",
"XXXXXXXXooooOOOOooooXX  @@%%%%%%%%$$$$$$$$$$$$  XXXXoooo++++oooo",
"XXXXXXXXooooOOOOooooXX  @@%%%%%%%%$$$$$$$$$$$$  XXXXoooo++++oooo",
"XXXXXXXXooooOOOOoooo  @@%%%%%%%%%%$$@@$$$$$$$$$$  XXoooo++++oooo",
"XXXXXXXXooooOOOOoooo  @@%%%%%%%%%%$$@@$$$$$$$$$$  XXoooo++++oooo",
"XXXXoooooooo++++OO  @@@@%%%%%%%%%%%%##@@$$$$$$$$$$  OOOO++++oooo",
"XXXXoooooooo++++OO  @@@@%%%%%%%%%%%%##@@$$$$$$$$$$  OOOO++++oooo",
"XXXXoooooooo++++  @@@@@@%%%%%%%%%%%%$$##@@$$$$$$$$  OOOO++++oooo",
"XXXXoooooooo++++  @@@@@@%%%%%%%%%%%%$$##@@$$$$$$$$  OOOO++++oooo",
"ooooooooXXXXoooo  @@@@@@%%%%%%%%%%%%$$$$##@@$$$$$$  ....XXXXoooo",
"ooooooooXXXXoooo  @@@@@@%%%%%%%%%%%%$$$$##@@$$$$$$  ....XXXXoooo",
"ooooooooXXXXoooo++      @@%%%%%%%%$$$$$$####@@    XX....XXXXoooo",
"ooooooooXXXXoooo++      @@%%%%%%%%$$$$$$####@@    XX....XXXXoooo",
"XXXXXXXXXXXXoooo++++++  @@@@######$$$$$$$$$$  XXXXXXXXXXoooooooo",
"XXXXXXXXXXXXoooo++++++  @@@@######$$$$$$$$$$  XXXXXXXXXXoooooooo",
"XXXXXXXXXXXXoooo++++++  @@@@@@@@    $$$$$$$$  XXXXXXXXXXoooooooo",
"XXXXXXXXXXXXoooo++++++  @@@@@@@@    $$$$$$$$  XXXXXXXXXXoooooooo",
"XXXXXXXXXXXXooooOOOO++++  @@@@@@    $$$$$$$$  XXXXXXOOOOoooooooo",
"XXXXXXXXXXXXooooOOOO++++  @@@@@@    $$$$$$$$  XXXXXXOOOOoooooooo",
"XXXXXXXXXXXXooooOOOO++++  @@@@@@  XX  $$$$$$  XXXXXXOOOOoooooooo",
"XXXXXXXXXXXXooooOOOO++++  @@@@@@  XX  $$$$$$  XXXXXXOOOOoooooooo",
"XXXX....XXXXXXXXooooOOOO        oooo        XXXXXXXXXXXXOOOOXXXX",
"XXXX....XXXXXXXXooooOOOO        oooo        XXXXXXXXXXXXOOOOXXXX",
"XXXX....XXXXXXXXooooOOOOooooXXXXooooooooXXXXXXXXXXXXXXXXOOOOXXXX",
"XXXX....XXXXXXXXooooOOOOooooXXXXooooooooXXXXXXXXXXXXXXXXOOOOXXXX",
"....XXXXooooXXXX....XXXXooooooooooooOOOOOOOOXXXX....XXXXXXXXXXXX",
"....XXXXooooXXXX....XXXXooooooooooooOOOOOOOOXXXX....XXXXXXXXXXXX",
"....XXXXooooXXXX....XXXXooooooooooooOOOOOOOOXXXX....XXXXXXXXXXXX",
"....XXXXooooXXXX....XXXXooooooooooooOOOOOOOOXXXX....XXXXXXXXXXXX"
};
