/* XPM */
static char *jump_r_4[] = {
/* columns rows colors chars-per-pixel */
"64 64 10 1 ",
"  c #04193F",
". c #C6E763",
"X c #CEEF63",
"o c #D6EF63",
"O c #D6F763",
"+ c #E7F763",
"@ c #780BF7",
"# c #D840FB",
"$ c #F489F6",
"% c #FCFEFE",
/* pixels */
"ooooooooooooXXXX    XXXXXXXXooooXXXXXXXXXXXXooooOOOOOOOO++++++++",
"ooooooooooooXXXX    XXXXXXXXooooXXXXXXXXXXXXooooOOOOOOOO++++++++",
"ooooooooooooXX  $$$$      XXoo      XXXXXXXXooooOOOOOOOO++++++++",
"ooooooooooooXX  $$$$      XXoo      XXXXXXXXooooOOOOOOOO++++++++",
"++++++++oooo..  $$$$$$$$$$    @@@@@@  ooOOOOOOOOooooooooOOOOOOOO",
"++++++++oooo..  $$$$$$$$$$    @@@@@@  ooOOOOOOOOooooooooOOOOOOOO",
"++++++++oooo..  $$$$$$$$$$$$  @@@@@@@@  OOOOOOOOooooooooOOOOOOOO",
"++++++++oooo..  $$$$$$$$$$$$  @@@@@@@@  OOOOOOOOooooooooOOOOOOOO",
"oooo++++XXXXXXXX  $$$$$$$$########@@@@@@  OOXXXXooooooooXXXX++++",
"oooo++++XXXXXXXX  $$$$$$$$########@@@@@@  OOXXXXooooooooXXXX++++",
"oooo++++XXXXXXXXoo  ##$$$$$$$$$$######@@@@  XXXXooooooooXXXX++++",
"oooo++++XXXXXXXXoo  ##$$$$$$$$$$######@@@@  XXXXooooooooXXXX++++",
"OOOOoooooooooooo  ##$$$$$$$$$$$$$$######@@  XXXXXXXXooooXXXXOOOO",
"OOOOoooooooooooo  ##$$$$$$$$$$$$$$######@@  XXXXXXXXooooXXXXOOOO",
"OOOOoooooooooooo  $$$$$$$$$$%%%%%%%%%%%%@@@@  XXXXXXooooXXXXOOOO",
"OOOOoooooooooooo  $$$$$$$$$$%%%%%%%%%%%%@@@@  XXXXXXooooXXXXOOOO",
"oooooooooooooo  ##$$$$$$$$%%%%%%%%%%%%%%%%@@  ooXXXXOOOOoooooooo",
"oooooooooooooo  ##$$$$$$$$%%%%%%%%%%%%%%%%@@  ooXXXXOOOOoooooooo",
"oooooooooooooo  $$$$$$$$%%%%      %%%%%%    @@  XXXXOOOOoooooooo",
"oooooooooooooo  $$$$$$$$%%%%      %%%%%%    @@  XXXXOOOOoooooooo",
"ooooOOOOooooXX  $$$$$$$$%%    %%%%  %%    %%    ....oooooooo++++",
"ooooOOOOooooXX  $$$$$$$$%%    %%%%  %%    %%    ....oooooooo++++",
"ooooOOOOooooXX  $$$$$$$$%%    %%%%  %%    %%    ....oooooooo++++",
"ooooOOOOooooXX  $$$$$$$$%%    %%%%  %%    %%    ....oooooooo++++",
"XXXXooooXXXXXX  $$$$$$$$%%          %%          ....XXXXoooooooo",
"XXXXooooXXXXXX  $$$$$$$$%%          %%          ....XXXXoooooooo",
"XXXXooooXXXXXX  ##$$$$$$$$%%      %%%%%%    @@  ....XXXXoooooooo",
"XXXXooooXXXXXX  ##$$$$$$$$%%      %%%%%%    @@  ....XXXXoooooooo",
"XXXXXXXXXXXX....  $$$$$$$$%%%%%%%%%%%%%%%%%%  XXXXXXXXXX........",
"XXXXXXXXXXXX....  $$$$$$$$%%%%%%%%%%%%%%%%%%  XXXXXXXXXX........",
"XXXXXXXXXXXX....  ##$$$$$$$$##%%%%%%%%%%%%@@  XXXXXXXXXX........",
"XXXXXXXXXXXX....  ##$$$$$$$$##%%%%%%%%%%%%@@  XXXXXXXXXX........",
"XXXXXXXXXXXXXXXX..  $$$$$$$$$$######@@@@@@  XXXX....XXXX....XXXX",
"XXXXXXXXXXXXXXXX..  $$$$$$$$$$######@@@@@@  XXXX....XXXX....XXXX",
"XXXXXXXXXXXXXXXX..  $$$$$$$$$$$$%%%%%%@@  XXXXXX....XXXX....XXXX",
"XXXXXXXXXXXXXXXX..  $$$$$$$$$$$$%%%%%%@@  XXXXXX....XXXX....XXXX",
"XXXXXXXXooooOOOO  $$$$$$$$$$$$%%%%%%%%@@  XXXXXXXXXXoooo++++oooo",
"XXXXXXXXooooOOOO  $$$$$$$$$$$$%%%%%%%%@@  XXXXXXXXXXoooo++++oooo",
"XXXXXXXXooooOO  $$$$$$$$$$@@$$%%%%%%%%%%@@  XXXXXXXXoooo++++oooo",
"XXXXXXXXooooOO  $$$$$$$$$$@@$$%%%%%%%%%%@@  XXXXXXXXoooo++++oooo",
"XXXXoooooooo  $$$$$$$$$$@@##%%%%%%%%%%%%@@@@  OOooooOOOO++++oooo",
"XXXXoooooooo  $$$$$$$$$$@@##%%%%%%%%%%%%@@@@  OOooooOOOO++++oooo",
"XXXXoooooooo  $$$$$$$$@@##$$%%%%%%%%%%%%@@@@@@  ooooOOOO++++oooo",
"XXXXoooooooo  $$$$$$$$@@##$$%%%%%%%%%%%%@@@@@@  ooooOOOO++++oooo",
"ooooooooXXXX  $$$$$$@@##$$$$%%%%%%%%%%%%@@@@@@  XXXX....XXXXoooo",
"ooooooooXXXX  $$$$$$@@##$$$$%%%%%%%%%%%%@@@@@@  XXXX....XXXXoooo",
"ooooooooXXXXoo    @@####$$$$$$%%%%%%%%@@      ooXXXX....XXXXoooo",
"ooooooooXXXXoo    @@####$$$$$$%%%%%%%%@@      ooXXXX....XXXXoooo",
"XXXXXXXXXXXXoooo++  $$$$$$$$$$######@@@@  XXXXXXXXXXXXXXoooooooo",
"XXXXXXXXXXXXoooo++  $$$$$$$$$$######@@@@  XXXXXXXXXXXXXXoooooooo",
"XXXXXXXXXXXXoooo++  $$$$$$$$    @@@@@@@@  XXXXXXXXXXXXXXoooooooo",
"XXXXXXXXXXXXoooo++  $$$$$$$$    @@@@@@@@  XXXXXXXXXXXXXXoooooooo",
"XXXXXXXXXXXXooooOO  $$$$$$$$    @@@@@@  XXXXXXXXXXXXOOOOoooooooo",
"XXXXXXXXXXXXooooOO  $$$$$$$$    @@@@@@  XXXXXXXXXXXXOOOOoooooooo",
"XXXXXXXXXXXXooooOO  $$$$$$  XX  @@@@@@  XXXXXXXXXXXXOOOOoooooooo",
"XXXXXXXXXXXXooooOO  $$$$$$  XX  @@@@@@  XXXXXXXXXXXXOOOOoooooooo",
"XXXX....XXXXXXXXoooo        XXXX        XXXXXXXXXXXXXXXXOOOOXXXX",
"XXXX....XXXXXXXXoooo        XXXX        XXXXXXXXXXXXXXXXOOOOXXXX",
"XXXX....XXXXXXXXooooOOOOooooXXXXooooooooXXXXXXXXXXXXXXXXOOOOXXXX",
"XXXX....XXXXXXXXooooOOOOooooXXXXooooooooXXXXXXXXXXXXXXXXOOOOXXXX",
"....XXXXooooXXXX....XXXXooooooooooooOOOOOOOOXXXX....XXXXXXXXXXXX",
"....XXXXooooXXXX....XXXXooooooooooooOOOOOOOOXXXX....XXXXXXXXXXXX",
"....XXXXooooXXXX....XXXXooooooooooooOOOOOOOOXXXX....XXXXXXXXXXXX",
"....XXXXooooXXXX....XXXXooooooooooooOOOOOOOOXXXX....XXXXXXXXXXXX"
};
