/* XPM */
static char *walk_r_1[] = {
/* columns rows colors chars-per-pixel */
"64 64 6 1 ",
"  c None",
". c #04193F",
"X c #780BF7",
"o c #D840FB",
"O c #F489F6",
"+ c #FCFEFE",
/* pixels */
"                                                                ",
"                                                                ",
"                                                                ",
"                                                                ",
"                                                                ",
"                                                                ",
"                                                                ",
"                                                                ",
"                    ....          ....                          ",
"                    ....          ....                          ",
"                  ..OOOO..      ..XXXX..                        ",
"                  ..OOOO..      ..XXXX..                        ",
"                ..OOOOOOOO..  ..XXXXXX..                        ",
"                ..OOOOOOOO..  ..XXXXXX..                        ",
"                ..OOOOOOOOOO....XXXXXXXX..                      ",
"                ..OOOOOOOOOO....XXXXXXXX..                      ",
"                  ..OOOOOOooooooooXXXXXX..                      ",
"                  ..OOOOOOooooooooXXXXXX..                      ",
"                  ..ooOOOOOOOOOOooooooXXXX..                    ",
"                  ..ooOOOOOOOOOOooooooXXXX..                    ",
"                ..ooOOOOOOOOOOOOOOooooooXX..                    ",
"                ..ooOOOOOOOOOOOOOOooooooXX..                    ",
"                ..OOOOOOOOOO++++++++++++XXXX..                  ",
"                ..OOOOOOOOOO++++++++++++XXXX..                  ",
"              ..ooOOOOOOOO++++++++++++++++XX..                  ",
"              ..ooOOOOOOOO++++++++++++++++XX..                  ",
"              ..OOOOOOOO++++......++++++....XX..                ",
"              ..OOOOOOOO++++......++++++....XX..                ",
"              ..OOOOOOOO++....++++..++....++....                ",
"              ..OOOOOOOO++....++++..++....++....                ",
"              ..OOOOOOOO++....++++..++....++....                ",
"              ..OOOOOOOO++....++++..++....++....                ",
"              ..OOOOOOOO++..........++..........                ",
"              ..OOOOOOOO++..........++..........                ",
"              ..ooOOOOOOOO++......++++++....XX..                ",
"              ..ooOOOOOOOO++......++++++....XX..                ",
"                ..OOOOOOOO++++++++++++++++++..                  ",
"                ..OOOOOOOO++++++++++++++++++..                  ",
"                ..ooOOOOOOOOoo++++++++++++XX..                  ",
"                ..ooOOOOOOOOoo++++++++++++XX..                  ",
"                  ..OOOOOOOOOOooooooXXXXXX..                    ",
"                  ..OOOOOOOOOOooooooXXXXXX..                    ",
"                  ..OOOOOOOOOOOO++++++XX..                      ",
"                  ..OOOOOOOOOOOO++++++XX..                      ",
"                  ..OOOOOOXXOO++++++++XX..                      ",
"                  ..OOOOOOXXOO++++++++XX..                      ",
"                  ..OOOOOOXXOO++++++++++..                      ",
"                  ..OOOOOOXXOO++++++++++..                      ",
"                ..OOOOOOOOXXOO++++++++++XX..                    ",
"                ..OOOOOOOOXXOO++++++++++XX..                    ",
"                ..OOOOOOXXooOO++++++++++XX..                    ",
"                ..OOOOOOXXooOO++++++++++XX..                    ",
"                ..OOOOOOXXooOO++++++++++XX..                    ",
"                ..OOOOOOXXooOO++++++++++XX..                    ",
"                  ..XXXXooooOOXX++++++XX..                      ",
"                  ..XXXXooooOOXX++++++XX..                      ",
"                    ..ooooOOOOXXooooXXXX..                      ",
"                    ..ooooOOOOXXooooXXXX..                      ",
"                    ..OOOOOOOO..XXXXXXXX..                      ",
"                    ..OOOOOOOO..XXXXXXXX..                      ",
"                      ..........XXXXXXXX..                      ",
"                      ..........XXXXXXXX..                      ",
"                                ..XXXXXX..                      ",
"                                ..XXXXXX..                      "
};
