/* XPM */
static char *walk_l_3[] = {
/* columns rows colors chars-per-pixel */
"64 64 10 1 ",
"  c #04193F",
". c #C6E763",
"X c #CEEF63",
"o c #D6EF63",
"O c #D6F763",
"+ c #E7F763",
"@ c #780BF7",
"# c #D840FB",
"$ c #F489F6",
"% c #FCFEFE",
/* pixels */
"ooooooooooooXXXXXXXXXXXXXXXXooooXXXXXXXXXXXXooooOOOOOOOO++++++++",
"ooooooooooooXXXXXXXXXXXXXXXXooooXXXXXXXXXXXXooooOOOOOOOO++++++++",
"ooooooooooooXXXXXXXXXXXXXXXXooooXXXXXXXXXXXXooooOOOOOOOO++++++++",
"ooooooooooooXXXXXXXXXXXXXXXXooooXXXXXXXXXXXXooooOOOOOOOO++++++++",
"++++++++oooo....XXXXXXXXXXXXXXXXooooooooOOOOOOOOooooooooOOOOOOOO",
"++++++++oooo....XXXXXXXXXXXXXXXXooooooooOOOOOOOOooooooooOOOOOOOO",
"++++++++oooo....XXXXXXXXXXXXXXXXooooooooOOOOOOOOooooooooOOOOOOOO",
"++++++++oooo....XXXXXXXXXXXXXXXXooooooooOOOOOOOOooooooooOOOOOOOO",
"oooo++++XXXXXXXXooooooooOOOOooooOOOO++++      XXooooooooXXXX++++",
"oooo++++XXXXXXXXooooooooOOOOooooOOOO++++      XXooooooooXXXX++++",
"oooo++++XXXXXXXXooooooooOOOO      OO    $$$$$$  ooooooooXXXX++++",
"oooo++++XXXXXXXXooooooooOOOO      OO    $$$$$$  ooooooooXXXX++++",
"OOOOooooooooooooXXXXoooo    @@@@@@  $$$$$$$$$$  XXXXooooXXXXOOOO",
"OOOOooooooooooooXXXXoooo    @@@@@@  $$$$$$$$$$  XXXXooooXXXXOOOO",
"OOOOooooooooooooXXXXoo  @@@@@@########$$$$$$$$  XXXXooooXXXXOOOO",
"OOOOooooooooooooXXXXoo  @@@@@@########$$$$$$$$  XXXXooooXXXXOOOO",
"ooooooooooooooooXXXX  @@@@######$$$$$$$$####  ooXXXXOOOOoooooooo",
"ooooooooooooooooXXXX  @@@@######$$$$$$$$####  ooXXXXOOOOoooooooo",
"ooooooooooooooooXXXX  @@######$$$$$$$$$$$$$$##  XXXXOOOOoooooooo",
"ooooooooooooooooXXXX  @@######$$$$$$$$$$$$$$##  XXXXOOOOoooooooo",
"ooooOOOOooooXXXXXX  @@@@%%%%%%%%%%%%$$$$$$$$$$  ....oooooooo++++",
"ooooOOOOooooXXXXXX  @@@@%%%%%%%%%%%%$$$$$$$$$$  ....oooooooo++++",
"ooooOOOOooooXXXXXX  @@%%%%%%%%%%%%%%%%$$$$$$$$##  ..oooooooo++++",
"ooooOOOOooooXXXXXX  @@%%%%%%%%%%%%%%%%$$$$$$$$##  ..oooooooo++++",
"XXXXooooXXXXXXXX  @@    %%%%%%      %%%%$$$$$$$$  ..XXXXoooooooo",
"XXXXooooXXXXXXXX  @@    %%%%%%      %%%%$$$$$$$$  ..XXXXoooooooo",
"XXXXooooXXXXXXXX    %%    %%  %%%%    %%$$$$$$$$  ..XXXXoooooooo",
"XXXXooooXXXXXXXX    %%    %%  %%%%    %%$$$$$$$$  ..XXXXoooooooo",
"XXXXXXXXXXXX....    %%    %%  %%%%    %%$$$$$$$$  XXXXXX........",
"XXXXXXXXXXXX....    %%    %%  %%%%    %%$$$$$$$$  XXXXXX........",
"XXXXXXXXXXXX....    %%    %%  %%%%    %%$$$$$$$$  XXXXXX........",
"XXXXXXXXXXXX....    %%    %%  %%%%    %%$$$$$$$$  XXXXXX........",
"XXXXXXXXXXXXXXXX  @@    %%%%%%      %%$$$$$$$$##  ..XXXX....XXXX",
"XXXXXXXXXXXXXXXX  @@    %%%%%%      %%$$$$$$$$##  ..XXXX....XXXX",
"XXXXXXXXXXXXXXXX..  %%%%%%%%%%%%%%%%%%$$$$$$$$  ....XXXX....XXXX",
"XXXXXXXXXXXXXXXX..  %%%%%%%%%%%%%%%%%%$$$$$$$$  ....XXXX....XXXX",
"XXXXXXXXooooOOOOoo  @@%%%%%%%%%%%%##$$$$$$$$##  XXXXoooo++++oooo",
"XXXXXXXXooooOOOOoo  @@%%%%%%%%%%%%##$$$$$$$$##  XXXXoooo++++oooo",
"XXXXXXXXooooOOOOoooo  @@@@@@######$$$$$$$$$$  XXXXXXoooo++++oooo",
"XXXXXXXXooooOOOOoooo  @@@@@@######$$$$$$$$$$  XXXXXXoooo++++oooo",
"XXXXoooooooo++++OOOOXX  @@%%%%%%$$$$$$$$$$$$  OOooooOOOO++++oooo",
"XXXXoooooooo++++OOOOXX  @@%%%%%%$$$$$$$$$$$$  OOooooOOOO++++oooo",
"XXXXoooooooo++++OOOOXX  @@%%%%%%$$$$$$$$$$$$$$  ooooOOOO++++oooo",
"XXXXoooooooo++++OOOOXX  @@%%%%%%$$$$$$$$$$$$$$  ooooOOOO++++oooo",
"ooooooooXXXXoooo++++  @@%%%%%%%%%%$$$$@@$$$$$$  XXXX....XXXXoooo",
"ooooooooXXXXoooo++++  @@%%%%%%%%%%$$$$@@$$$$$$  XXXX....XXXXoooo",
"ooooooooXXXXoooo++++  @@%%%%%%%%%%$$$$@@$$$$$$$$  XX....XXXXoooo",
"ooooooooXXXXoooo++++  @@%%%%%%%%%%$$$$@@$$$$$$$$  XX....XXXXoooo",
"XXXXXXXXXXXXoooo++  @@@@%%%%%%%%%%$$$$##@@$$$$$$  XXXXXXoooooooo",
"XXXXXXXXXXXXoooo++  @@@@%%%%%%%%%%$$$$##@@$$$$$$  XXXXXXoooooooo",
"XXXXXXXXXXXXoooo++  @@@@%%%%%%%%%%$$$$##@@$$$$$$  XXXXXXoooooooo",
"XXXXXXXXXXXXoooo++  @@@@%%%%%%%%%%$$$$##@@$$$$$$  XXXXXXoooooooo",
"XXXXXXXXXXXXooooOO  @@@@@@%%%%%%@@$$$$####@@    XXXXOOOOoooooooo",
"XXXXXXXXXXXXooooOO  @@@@@@%%%%%%@@$$$$####@@    XXXXOOOOoooooooo",
"XXXXXXXXXXXXooooOOOO      @@####@@$$$$$$##  XXXXXXXXOOOOoooooooo",
"XXXXXXXXXXXXooooOOOO      @@####@@$$$$$$##  XXXXXXXXOOOOoooooooo",
"XXXX....XXXXXXXXooooOOOO  @@@@  $$$$$$$$$$  XXXXXXXXXXXXOOOOXXXX",
"XXXX....XXXXXXXXooooOOOO  @@@@  $$$$$$$$$$  XXXXXXXXXXXXOOOOXXXX",
"XXXX....XXXXXXXXooooOOOO  @@@@  $$$$$$$$  XXXXXXXXXXXXXXOOOOXXXX",
"XXXX....XXXXXXXXooooOOOO  @@@@  $$$$$$$$  XXXXXXXXXXXXXXOOOOXXXX",
"....XXXXooooXXXX....XXXXoo  @@  $$$$$$$$  OOXXXX....XXXXXXXXXXXX",
"....XXXXooooXXXX....XXXXoo  @@  $$$$$$$$  OOXXXX....XXXXXXXXXXXX",
"....XXXXooooXXXX....XXXXoo  @@@@        OOOOXXXX....XXXXXXXXXXXX",
"....XXXXooooXXXX....XXXXoo  @@@@        OOOOXXXX....XXXXXXXXXXXX"
};
