/* XPM */
static char *walk_r_0[] = {
/* columns rows colors chars-per-pixel */
"64 64 6 1 ",
"  c None",
". c #04193F",
"X c #780BF7",
"o c #D840FB",
"O c #F489F6",
"+ c #FCFEFE",
/* pixels */
"                                                                ",
"                                                                ",
"                                                                ",
"                                                                ",
"                                                                ",
"                                                                ",
"                                                                ",
"                                                                ",
"                                                                ",
"                                                                ",
"                    ......        ......                        ",
"                    ......        ......                        ",
"                  ..OOOOOO..    ..XXXXXX..                      ",
"                  ..OOOOOO..    ..XXXXXX..                      ",
"                  ..OOOOOO..    ..XXXXXX..                      ",
"                  ..OOOOOO..    ..XXXXXX..                      ",
"                  ..OOOOOOOO......XXXXXX..                      ",
"                  ..OOOOOOOO......XXXXXX..                      ",
"                  ..OOOOOOooooooooXXXXXXXX..                    ",
"                  ..OOOOOOooooooooXXXXXXXX..                    ",
"                ..ooOOOOOOOOOOOOooooooXXXX..                    ",
"                ..ooOOOOOOOOOOOOooooooXXXX..                    ",
"                ..ooOOOOOOOOOOOOOOooooooXX..                    ",
"                ..ooOOOOOOOOOOOOOOooooooXX..                    ",
"                ..OOOOOOOOOO++++++++++++XXXX..                  ",
"                ..OOOOOOOOOO++++++++++++XXXX..                  ",
"              ..ooOOOOOOOO++++++++++++++++XX..                  ",
"              ..ooOOOOOOOO++++++++++++++++XX..                  ",
"              ..OOOOOOOO++++......++++++....XX..                ",
"              ..OOOOOOOO++++......++++++....XX..                ",
"              ..OOOOOOOO++....++++..++....++....                ",
"              ..OOOOOOOO++....++++..++....++....                ",
"              ..OOOOOOOO++..........++..........                ",
"              ..OOOOOOOO++..........++..........                ",
"              ..OOOOOOOO++..........++..........                ",
"              ..OOOOOOOO++..........++..........                ",
"              ..ooOOOOOOOO++......++++++....XX..                ",
"              ..ooOOOOOOOO++......++++++....XX..                ",
"                ..OOOOOOOO++++++++++++++++++..                  ",
"                ..OOOOOOOO++++++++++++++++++..                  ",
"                ..ooOOOOOOOOoo++++++++++++XX..                  ",
"                ..ooOOOOOOOOoo++++++++++++XX..                  ",
"                  ..OOOOOOOOOOooooooXXXXXX..                    ",
"                  ..OOOOOOOOOOooooooXXXXXX..                    ",
"                  ..OOOOOOOOOOOO++++++XX..                      ",
"                  ..OOOOOOOOOOOO++++++XX..                      ",
"                  ..OOOOOOXXOO++++++++XX..                      ",
"                  ..OOOOOOXXOO++++++++XX..                      ",
"                  ..OOOOOOXXOO++++++++++..                      ",
"                  ..OOOOOOXXOO++++++++++..                      ",
"                  ..OOOOOOOOXX++++++++++..                      ",
"                  ..OOOOOOOOXX++++++++++..                      ",
"                  ..XXOOOOOOXX++++++++++..                      ",
"                  ..XXOOOOOOXX++++++++++..                      ",
"                  ..XXOOOOOOXX++++++++++..                      ",
"                  ..XXOOOOOOXX++++++++++..                      ",
"                  ..ooXXXXXXoo++++++++XX..                      ",
"                  ..ooXXXXXXoo++++++++XX..                      ",
"                  ..OOooooooooooooooXXXXXX..                    ",
"                  ..OOooooooooooooooXXXXXX..                    ",
"                ..OOOOOOOOOO......XXXXXXXXXX..                  ",
"                ..OOOOOOOOOO......XXXXXXXXXX..                  ",
"                ..OOOOOOOO..      ..XXXXXXXX..                  ",
"                ..OOOOOOOO..      ..XXXXXXXX..                  "
};
