/* XPM */
static char *walk_r_4[] = {
/* columns rows colors chars-per-pixel */
"64 64 10 1 ",
"  c #04193F",
". c #C6E763",
"X c #CEEF63",
"o c #D6EF63",
"O c #D6F763",
"+ c #E7F763",
"@ c #780BF7",
"# c #D840FB",
"$ c #F489F6",
"% c #FCFEFE",
/* pixels */
"ooooooooooooXXXXXXXXXXXXXXXXooooXXXXXXXXXXXXooooOOOOOOOO++++++++",
"ooooooooooooXXXXXXXXXXXXXXXXooooXXXXXXXXXXXXooooOOOOOOOO++++++++",
"ooooooooooooXXXXXXXXXXXXXXXXooooXXXXXXXXXXXXooooOOOOOOOO++++++++",
"ooooooooooooXXXXXXXXXXXXXXXXooooXXXXXXXXXXXXooooOOOOOOOO++++++++",
"++++++++oooo....XXXXXXXXXXXXXXXXooooooooOOOOOOOOooooooooOOOOOOOO",
"++++++++oooo....XXXXXXXXXXXXXXXXooooooooOOOOOOOOooooooooOOOOOOOO",
"++++++++oooo....XXXXXXXXXXXXXXXXooooooooOOOOOOOOooooooooOOOOOOOO",
"++++++++oooo....XXXXXXXXXXXXXXXXooooooooOOOOOOOOooooooooOOOOOOOO",
"oooo++++XXXXXXXXoooo    OOOOooooOO    ++OOOOXXXXooooooooXXXX++++",
"oooo++++XXXXXXXXoooo    OOOOooooOO    ++OOOOXXXXooooooooXXXX++++",
"oooo++++XXXXXXXXoo  $$$$  OOoooo  @@@@  OOOOXXXXooooooooXXXX++++",
"oooo++++XXXXXXXXoo  $$$$  OOoooo  @@@@  OOOOXXXXooooooooXXXX++++",
"OOOOoooooooooooo  $$$$$$$$  oo  @@@@@@  ooooXXXXXXXXooooXXXXOOOO",
"OOOOoooooooooooo  $$$$$$$$  oo  @@@@@@  ooooXXXXXXXXooooXXXXOOOO",
"OOOOoooooooooooo  $$$$$$$$$$    @@@@@@@@  ooXXXXXXXXooooXXXXOOOO",
"OOOOoooooooooooo  $$$$$$$$$$    @@@@@@@@  ooXXXXXXXXooooXXXXOOOO",
"ooooooooooooooooXX  $$$$$$########@@@@@@  ooooooXXXXOOOOoooooooo",
"ooooooooooooooooXX  $$$$$$########@@@@@@  ooooooXXXXOOOOoooooooo",
"ooooooooooooooooXX  ##$$$$$$$$$$######@@@@  ooooXXXXOOOOoooooooo",
"ooooooooooooooooXX  ##$$$$$$$$$$######@@@@  ooooXXXXOOOOoooooooo",
"ooooOOOOooooXXXX  ##$$$$$$$$$$$$$$######@@  XXXX....oooooooo++++",
"ooooOOOOooooXXXX  ##$$$$$$$$$$$$$$######@@  XXXX....oooooooo++++",
"ooooOOOOooooXXXX  $$$$$$$$$$%%%%%%%%%%%%@@@@  XX....oooooooo++++",
"ooooOOOOooooXXXX  $$$$$$$$$$%%%%%%%%%%%%@@@@  XX....oooooooo++++",
"XXXXooooXXXXXX  ##$$$$$$$$%%%%%%%%%%%%%%%%@@  XX....XXXXoooooooo",
"XXXXooooXXXXXX  ##$$$$$$$$%%%%%%%%%%%%%%%%@@  XX....XXXXoooooooo",
"XXXXooooXXXXXX  $$$$$$$$%%%%      %%%%%%    @@  ....XXXXoooooooo",
"XXXXooooXXXXXX  $$$$$$$$%%%%      %%%%%%    @@  ....XXXXoooooooo",
"XXXXXXXXXXXX..  $$$$$$$$%%    %%%%  %%    %%    XXXXXXXX........",
"XXXXXXXXXXXX..  $$$$$$$$%%    %%%%  %%    %%    XXXXXXXX........",
"XXXXXXXXXXXX..  $$$$$$$$%%    %%%%  %%    %%    XXXXXXXX........",
"XXXXXXXXXXXX..  $$$$$$$$%%    %%%%  %%    %%    XXXXXXXX........",
"XXXXXXXXXXXXXX  $$$$$$$$%%          %%          ....XXXX....XXXX",
"XXXXXXXXXXXXXX  $$$$$$$$%%          %%          ....XXXX....XXXX",
"XXXXXXXXXXXXXX  ##$$$$$$$$%%      %%%%%%    @@  ....XXXX....XXXX",
"XXXXXXXXXXXXXX  ##$$$$$$$$%%      %%%%%%    @@  ....XXXX....XXXX",
"XXXXXXXXooooOOOO  $$$$$$$$%%%%%%%%%%%%%%%%%%  XXXXXXoooo++++oooo",
"XXXXXXXXooooOOOO  $$$$$$$$%%%%%%%%%%%%%%%%%%  XXXXXXoooo++++oooo",
"XXXXXXXXooooOOOO  ##$$$$$$$$##%%%%%%%%%%%%@@  XXXXXXoooo++++oooo",
"XXXXXXXXooooOOOO  ##$$$$$$$$##%%%%%%%%%%%%@@  XXXXXXoooo++++oooo",
"XXXXoooooooo++++OO  $$$$$$$$$$######@@@@@@  OOOOooooOOOO++++oooo",
"XXXXoooooooo++++OO  $$$$$$$$$$######@@@@@@  OOOOooooOOOO++++oooo",
"XXXXoooooooo++++OO  $$$$$$$$$$$$%%%%@@@@  ooOOOOooooOOOO++++oooo",
"XXXXoooooooo++++OO  $$$$$$$$$$$$%%%%@@@@  ooOOOOooooOOOO++++oooo",
"ooooooooXXXXoooo  $$$$$$$$$$$$$$%%%%%%@@  XXooooXXXX....XXXXoooo",
"ooooooooXXXXoooo  $$$$$$$$$$$$$$%%%%%%@@  XXooooXXXX....XXXXoooo",
"ooooooooXXXXoooo  $$$$$$@@$$$$%%%%%%%%@@@@  ooooXXXX....XXXXoooo",
"ooooooooXXXXoooo  $$$$$$@@$$$$%%%%%%%%@@@@  ooooXXXX....XXXXoooo",
"XXXXXXXXXXXXoo  $$$$$$$$@@$$$$%%%%%%%%%%@@  XXXXXXXXXXXXoooooooo",
"XXXXXXXXXXXXoo  $$$$$$$$@@$$$$%%%%%%%%%%@@  XXXXXXXXXXXXoooooooo",
"XXXXXXXXXXXXoo  $$$$$$@@##$$$$%%%%%%%%%%@@@@  XXXXXXXXXXoooooooo",
"XXXXXXXXXXXXoo  $$$$$$@@##$$$$%%%%%%%%%%@@@@  XXXXXXXXXXoooooooo",
"XXXXXXXXXXXXoo  $$$$$$@@##$$$$%%%%%%%%%%@@@@  XXXXXXOOOOoooooooo",
"XXXXXXXXXXXXoo  $$$$$$@@##$$$$%%%%%%%%%%@@@@  XXXXXXOOOOoooooooo",
"XXXXXXXXXXXXoooo    @@####$$$$@@%%%%%%@@@@@@  XXXXXXOOOOoooooooo",
"XXXXXXXXXXXXoooo    @@####$$$$@@%%%%%%@@@@@@  XXXXXXOOOOoooooooo",
"XXXX....XXXXXXXXoooo  ##$$$$$$@@####@@@@    XXXXXXXXXXXXOOOOXXXX",
"XXXX....XXXXXXXXoooo  ##$$$$$$@@####@@@@    XXXXXXXXXXXXOOOOXXXX",
"XXXX....XXXXXXXXooooOO  $$$$$$$$  @@@@@@  XXXXXXXXXXXXXXOOOOXXXX",
"XXXX....XXXXXXXXooooOO  $$$$$$$$  @@@@@@  XXXXXXXXXXXXXXOOOOXXXX",
"....XXXXooooXXXX....XX  $$$$$$$$        OOOOXXXX....XXXXXXXXXXXX",
"....XXXXooooXXXX....XX  $$$$$$$$        OOOOXXXX....XXXXXXXXXXXX",
"....XXXXooooXXXX....XX  $$$$$$$$  ooOOOOOOOOXXXX....XXXXXXXXXXXX",
"....XXXXooooXXXX....XX  $$$$$$$$  ooOOOOOOOOXXXX....XXXXXXXXXXXX"
};
