/* XPM */
static char *walk_r_5[] = {
/* columns rows colors chars-per-pixel */
"64 64 6 1 ",
"  c None",
". c #04193F",
"X c #780BF7",
"o c #D840FB",
"O c #F489F6",
"+ c #FCFEFE",
/* pixels */
"                                                                ",
"                                                                ",
"                                                                ",
"                                                                ",
"                                                                ",
"                                                                ",
"                                                                ",
"                                                                ",
"                  ......                                        ",
"                  ......                                        ",
"                ..OOOOOO....  ......                            ",
"                ..OOOOOO....  ......                            ",
"                ..OOOOOOOOOO..XXXXXX....                        ",
"                ..OOOOOOOOOO..XXXXXX....                        ",
"                ..OOOOOOOOooooooooXXXXXX..                      ",
"                ..OOOOOOOOooooooooXXXXXX..                      ",
"                  ..ooooOOOOOOOOooooooXXXX..                    ",
"                  ..ooooOOOOOOOOooooooXXXX..                    ",
"                ..ooOOOOOOOOOOOOOOooooooXX..                    ",
"                ..ooOOOOOOOOOOOOOOooooooXX..                    ",
"                ..OOOOOOOOOO++++++++++++XXXX..                  ",
"                ..OOOOOOOOOO++++++++++++XXXX..                  ",
"              ..ooOOOOOOOO++++++++++++++++XX..                  ",
"              ..ooOOOOOOOO++++++++++++++++XX..                  ",
"              ..OOOOOOOO++++......++++++....XX..                ",
"              ..OOOOOOOO++++......++++++....XX..                ",
"              ..OOOOOOOO++....++++..++....++....                ",
"              ..OOOOOOOO++....++++..++....++....                ",
"              ..OOOOOOOO++....++++..++....++....                ",
"              ..OOOOOOOO++....++++..++....++....                ",
"              ..OOOOOOOO++....++++..++....++....                ",
"              ..OOOOOOOO++....++++..++....++....                ",
"              ..ooOOOOOOOO++......++++++....XX..                ",
"              ..ooOOOOOOOO++......++++++....XX..                ",
"                ..OOOOOOOO++++++++++++++++++..                  ",
"                ..OOOOOOOO++++++++++++++++++..                  ",
"                ..ooOOOOOOOOoo++++++++++++XX..                  ",
"                ..ooOOOOOOOOoo++++++++++++XX..                  ",
"                  ..OOOOOOOOOOooooooXXXXXX..                    ",
"                  ..OOOOOOOOOOooooooXXXXXX..                    ",
"                  ..OOOOOOOOOOOO++++XXXX..                      ",
"                  ..OOOOOOOOOOOO++++XXXX..                      ",
"                  ..OOOOOOXXOO++++++++XX..                      ",
"                  ..OOOOOOXXOO++++++++XX..                      ",
"                  ..OOOOOOXXOO++++++++++..                      ",
"                  ..OOOOOOXXOO++++++++++..                      ",
"                ..OOOOOOOOXX++++++++++++XX..                    ",
"                ..OOOOOOOOXX++++++++++++XX..                    ",
"                ..OOOOOOXXoo++++++++++++XX..                    ",
"                ..OOOOOOXXoo++++++++++++XX..                    ",
"                ..OOOOOOXXoo++++++++++++XX..                    ",
"                ..OOOOOOXXoo++++++++++++XX..                    ",
"                ..OOOOOOXXooOO++++++++XX..                      ",
"                ..OOOOOOXXooOO++++++++XX..                      ",
"                  ..XXXXooooOOOOooooXXXX..                      ",
"                  ..XXXXooooOOOOooooXXXX..                      ",
"                  ..ooooooOOOO....XXXXXXXX..                    ",
"                  ..ooooooOOOO....XXXXXXXX..                    ",
"                  ..OOOOOOOOOO....XXXXXXXX..                    ",
"                  ..OOOOOOOOOO....XXXXXXXX..                    ",
"                  ..OOOOOOOO..  ..XXXXXXXX..                    ",
"                  ..OOOOOOOO..  ..XXXXXXXX..                    ",
"                  ..OOOOOOOO..    ........                      ",
"                  ..OOOOOOOO..    ........                      "
};
