/* XPM */
static char *walk_l_2[] = {
/* columns rows colors chars-per-pixel */
"64 64 6 1 ",
"  c None",
". c #04193F",
"X c #780BF7",
"o c #D840FB",
"O c #F489F6",
"+ c #FCFEFE",
/* pixels */
"                                                                ",
"                                                                ",
"                                                                ",
"                                                                ",
"                                                                ",
"                                                                ",
"                                                                ",
"                                                                ",
"                                                                ",
"                                                                ",
"                        ......        ......                    ",
"                        ......        ......                    ",
"                      ..XXXXXX..    ..OOOOOO..                  ",
"                      ..XXXXXX..    ..OOOOOO..                  ",
"                      ..XXXXXX..    ..OOOOOO..                  ",
"                      ..XXXXXX..    ..OOOOOO..                  ",
"                      ..XXXXXX......OOOOOOOO..                  ",
"                      ..XXXXXX......OOOOOOOO..                  ",
"                    ..XXXXXXXXooooooooOOOOOO..                  ",
"                    ..XXXXXXXXooooooooOOOOOO..                  ",
"                    ..XXXXooooooOOOOOOOOOOOOoo..                ",
"                    ..XXXXooooooOOOOOOOOOOOOoo..                ",
"                    ..XXooooooOOOOOOOOOOOOOOOO..                ",
"                    ..XXooooooOOOOOOOOOOOOOOOO..                ",
"                  ..XXXX++++++++++++OOOOOOOOOO..                ",
"                  ..XXXX++++++++++++OOOOOOOOOO..                ",
"                  ..XX++++++++++++++++OOOOOOOOoo..              ",
"                  ..XX++++++++++++++++OOOOOOOOoo..              ",
"                ..XX....++++++......++++OOOOOOOO..              ",
"                ..XX....++++++......++++OOOOOOOO..              ",
"                ....++....++..++++....++OOOOOOOO..              ",
"                ....++....++..++++....++OOOOOOOO..              ",
"                ..........++..........++OOOOOOOO..              ",
"                ..........++..........++OOOOOOOO..              ",
"                ..........++..........++OOOOOOOO..              ",
"                ..........++..........++OOOOOOOO..              ",
"                ..XX....++++++......++OOOOOOOOoo..              ",
"                ..XX....++++++......++OOOOOOOOoo..              ",
"                  ..++++++++++++++++++OOOOOOOO..                ",
"                  ..++++++++++++++++++OOOOOOOO..                ",
"                  ..XX++++++++++++ooOOOOOOOOoo..                ",
"                  ..XX++++++++++++ooOOOOOOOOoo..                ",
"                    ..XXXXXXooooooOOOOOOOOOO..                  ",
"                    ..XXXXXXooooooOOOOOOOOOO..                  ",
"                      ..XX++++++OOOOOOOOOOOO..                  ",
"                      ..XX++++++OOOOOOOOOOOO..                  ",
"                    ..XX++++++++OOOOOOOOOOOOOO..                ",
"                    ..XX++++++++OOOOOOOOOOOOOO..                ",
"                  ..XXXX++++++++++OOOOOOOOOOOOOO..              ",
"                  ..XXXX++++++++++OOOOOOOOOOOOOO..              ",
"                ..XXXXXX++++++++++OOOOXXOOOOOOOOOO..            ",
"                ..XXXXXX++++++++++OOOOXXOOOOOOOOOO..            ",
"                ..XXXXXX++++++++++OOOOooXXOOOOOOOO..            ",
"                ..XXXXXX++++++++++OOOOooXXOOOOOOOO..            ",
"                ..XXXXXX++++++++OOOOOOoooo..OOOOOO..            ",
"                ..XXXXXX++++++++OOOOOOoooo..OOOOOO..            ",
"                  ......XX++++XXOOOOOOOO..  ......              ",
"                  ......XX++++XXOOOOOOOO..  ......              ",
"                        ..ooooXXOOOOOOOO..                      ",
"                        ..ooooXXOOOOOOOO..                      ",
"                          ....OOOOOOOO..                        ",
"                          ....OOOOOOOO..                        ",
"                            ..OOOOOOOO..                        ",
"                            ..OOOOOOOO..                        "
};
