/* XPM */
static char *walk_l_3[] = {
/* columns rows colors chars-per-pixel */
"64 64 6 1 ",
"  c None",
". c #04193F",
"X c #780BF7",
"o c #D840FB",
"O c #F489F6",
"+ c #FCFEFE",
/* pixels */
"                                                                ",
"                                                                ",
"                                                                ",
"                                                                ",
"                                                                ",
"                                                                ",
"                                                                ",
"                                                                ",
"                                        ......                  ",
"                                        ......                  ",
"                            ......  ....OOOOOO..                ",
"                            ......  ....OOOOOO..                ",
"                        ....XXXXXX..OOOOOOOOOO..                ",
"                        ....XXXXXX..OOOOOOOOOO..                ",
"                      ..XXXXXXooooooooOOOOOOOO..                ",
"                      ..XXXXXXooooooooOOOOOOOO..                ",
"                    ..XXXXooooooOOOOOOOOoooo..                  ",
"                    ..XXXXooooooOOOOOOOOoooo..                  ",
"                    ..XXooooooOOOOOOOOOOOOOOoo..                ",
"                    ..XXooooooOOOOOOOOOOOOOOoo..                ",
"                  ..XXXX++++++++++++OOOOOOOOOO..                ",
"                  ..XXXX++++++++++++OOOOOOOOOO..                ",
"                  ..XX++++++++++++++++OOOOOOOOoo..              ",
"                  ..XX++++++++++++++++OOOOOOOOoo..              ",
"                ..XX....++++++......++++OOOOOOOO..              ",
"                ..XX....++++++......++++OOOOOOOO..              ",
"                ....++....++..++++....++OOOOOOOO..              ",
"                ....++....++..++++....++OOOOOOOO..              ",
"                ....++....++..++++....++OOOOOOOO..              ",
"                ....++....++..++++....++OOOOOOOO..              ",
"                ....++....++..++++....++OOOOOOOO..              ",
"                ....++....++..++++....++OOOOOOOO..              ",
"                ..XX....++++++......++OOOOOOOOoo..              ",
"                ..XX....++++++......++OOOOOOOOoo..              ",
"                  ..++++++++++++++++++OOOOOOOO..                ",
"                  ..++++++++++++++++++OOOOOOOO..                ",
"                  ..XX++++++++++++ooOOOOOOOOoo..                ",
"                  ..XX++++++++++++ooOOOOOOOOoo..                ",
"                    ..XXXXXXooooooOOOOOOOOOO..                  ",
"                    ..XXXXXXooooooOOOOOOOOOO..                  ",
"                      ..XX++++++OOOOOOOOOOOO..                  ",
"                      ..XX++++++OOOOOOOOOOOO..                  ",
"                      ..XX++++++OOOOOOOOOOOOOO..                ",
"                      ..XX++++++OOOOOOOOOOOOOO..                ",
"                    ..XX++++++++++OOOOXXOOOOOO..                ",
"                    ..XX++++++++++OOOOXXOOOOOO..                ",
"                    ..XX++++++++++OOOOXXOOOOOOOO..              ",
"                    ..XX++++++++++OOOOXXOOOOOOOO..              ",
"                  ..XXXX++++++++++OOOOooXXOOOOOO..              ",
"                  ..XXXX++++++++++OOOOooXXOOOOOO..              ",
"                  ..XXXX++++++++++OOOOooXXOOOOOO..              ",
"                  ..XXXX++++++++++OOOOooXXOOOOOO..              ",
"                  ..XXXXXX++++++XXOOOOooooXX....                ",
"                  ..XXXXXX++++++XXOOOOooooXX....                ",
"                    ......XXooooXXOOOOOOoo..                    ",
"                    ......XXooooXXOOOOOOoo..                    ",
"                        ..XXXX..OOOOOOOOOO..                    ",
"                        ..XXXX..OOOOOOOOOO..                    ",
"                        ..XXXX..OOOOOOOO..                      ",
"                        ..XXXX..OOOOOOOO..                      ",
"                          ..XX..OOOOOOOO..                      ",
"                          ..XX..OOOOOOOO..                      ",
"                          ..XXXX........                        ",
"                          ..XXXX........                        "
};
