/* XPM */
static char *walk_r_0[] = {
/* columns rows colors chars-per-pixel */
"64 64 10 1 ",
"  c #04193F",
". c #C6E763",
"X c #CEEF63",
"o c #D6EF63",
"O c #D6F763",
"+ c #E7F763",
"@ c #780BF7",
"# c #D840FB",
"$ c #F489F6",
"% c #FCFEFE",
/* pixels */
"ooooooooooooXXXXXXXXXXXXXXXXooooXXXXXXXXXXXXooooOOOOOOOO++++++++",
"ooooooooooooXXXXXXXXXXXXXXXXooooXXXXXXXXXXXXooooOOOOOOOO++++++++",
"ooooooooooooXXXXXXXXXXXXXXXXooooXXXXXXXXXXXXooooOOOOOOOO++++++++",
"ooooooooooooXXXXXXXXXXXXXXXXooooXXXXXXXXXXXXooooOOOOOOOO++++++++",
"++++++++oooo....XXXXXXXXXXXXXXXXooooooooOOOOOOOOooooooooOOOOOOOO",
"++++++++oooo....XXXXXXXXXXXXXXXXooooooooOOOOOOOOooooooooOOOOOOOO",
"++++++++oooo....XXXXXXXXXXXXXXXXooooooooOOOOOOOOooooooooOOOOOOOO",
"++++++++oooo....XXXXXXXXXXXXXXXXooooooooOOOOOOOOooooooooOOOOOOOO",
"oooo++++XXXXXXXXooooooooOOOOooooOOOO++++OOOOXXXXooooooooXXXX++++",
"oooo++++XXXXXXXXooooooooOOOOooooOOOO++++OOOOXXXXooooooooXXXX++++",
"oooo++++XXXXXXXXoooo      OOooooOO      OOOOXXXXooooooooXXXX++++",
"oooo++++XXXXXXXXoooo      OOooooOO      OOOOXXXXooooooooXXXX++++",
"OOOOooooooooooooXX  $$$$$$  oooo  @@@@@@  ooXXXXXXXXooooXXXXOOOO",
"OOOOooooooooooooXX  $$$$$$  oooo  @@@@@@  ooXXXXXXXXooooXXXXOOOO",
"OOOOooooooooooooXX  $$$$$$  oooo  @@@@@@  ooXXXXXXXXooooXXXXOOOO",
"OOOOooooooooooooXX  $$$$$$  oooo  @@@@@@  ooXXXXXXXXooooXXXXOOOO",
"ooooooooooooooooXX  $$$$$$$$      @@@@@@  ooooooXXXXOOOOoooooooo",
"ooooooooooooooooXX  $$$$$$$$      @@@@@@  ooooooXXXXOOOOoooooooo",
"ooooooooooooooooXX  $$$$$$########@@@@@@@@  ooooXXXXOOOOoooooooo",
"ooooooooooooooooXX  $$$$$$########@@@@@@@@  ooooXXXXOOOOoooooooo",
"ooooOOOOooooXXXX  ##$$$$$$$$$$$$######@@@@  XXXX....oooooooo++++",
"ooooOOOOooooXXXX  ##$$$$$$$$$$$$######@@@@  XXXX....oooooooo++++",
"ooooOOOOooooXXXX  ##$$$$$$$$$$$$$$######@@  XXXX....oooooooo++++",
"ooooOOOOooooXXXX  ##$$$$$$$$$$$$$$######@@  XXXX....oooooooo++++",
"XXXXooooXXXXXXXX  $$$$$$$$$$%%%%%%%%%%%%@@@@  XX....XXXXoooooooo",
"XXXXooooXXXXXXXX  $$$$$$$$$$%%%%%%%%%%%%@@@@  XX....XXXXoooooooo",
"XXXXooooXXXXXX  ##$$$$$$$$%%%%%%%%%%%%%%%%@@  XX....XXXXoooooooo",
"XXXXooooXXXXXX  ##$$$$$$$$%%%%%%%%%%%%%%%%@@  XX....XXXXoooooooo",
"XXXXXXXXXXXX..  $$$$$$$$%%%%      %%%%%%    @@  XXXXXXXX........",
"XXXXXXXXXXXX..  $$$$$$$$%%%%      %%%%%%    @@  XXXXXXXX........",
"XXXXXXXXXXXX..  $$$$$$$$%%    %%%%  %%    %%    XXXXXXXX........",
"XXXXXXXXXXXX..  $$$$$$$$%%    %%%%  %%    %%    XXXXXXXX........",
"XXXXXXXXXXXXXX  $$$$$$$$%%          %%          ....XXXX....XXXX",
"XXXXXXXXXXXXXX  $$$$$$$$%%          %%          ....XXXX....XXXX",
"XXXXXXXXXXXXXX  $$$$$$$$%%          %%          ....XXXX....XXXX",
"XXXXXXXXXXXXXX  $$$$$$$$%%          %%          ....XXXX....XXXX",
"XXXXXXXXooooOO  ##$$$$$$$$%%      %%%%%%    @@  XXXXoooo++++oooo",
"XXXXXXXXooooOO  ##$$$$$$$$%%      %%%%%%    @@  XXXXoooo++++oooo",
"XXXXXXXXooooOOOO  $$$$$$$$%%%%%%%%%%%%%%%%%%  XXXXXXoooo++++oooo",
"XXXXXXXXooooOOOO  $$$$$$$$%%%%%%%%%%%%%%%%%%  XXXXXXoooo++++oooo",
"XXXXoooooooo++++  ##$$$$$$$$##%%%%%%%%%%%%@@  OOooooOOOO++++oooo",
"XXXXoooooooo++++  ##$$$$$$$$##%%%%%%%%%%%%@@  OOooooOOOO++++oooo",
"XXXXoooooooo++++OO  $$$$$$$$$$######@@@@@@  OOOOooooOOOO++++oooo",
"XXXXoooooooo++++OO  $$$$$$$$$$######@@@@@@  OOOOooooOOOO++++oooo",
"ooooooooXXXXoooo++  $$$$$$$$$$$$%%%%%%@@  XXooooXXXX....XXXXoooo",
"ooooooooXXXXoooo++  $$$$$$$$$$$$%%%%%%@@  XXooooXXXX....XXXXoooo",
"ooooooooXXXXoooo++  $$$$$$@@$$%%%%%%%%@@  XXooooXXXX....XXXXoooo",
"ooooooooXXXXoooo++  $$$$$$@@$$%%%%%%%%@@  XXooooXXXX....XXXXoooo",
"XXXXXXXXXXXXoooo++  $$$$$$@@$$%%%%%%%%%%  XXXXXXXXXXXXXXoooooooo",
"XXXXXXXXXXXXoooo++  $$$$$$@@$$%%%%%%%%%%  XXXXXXXXXXXXXXoooooooo",
"XXXXXXXXXXXXoooo++  $$$$$$$$@@%%%%%%%%%%  XXXXXXXXXXXXXXoooooooo",
"XXXXXXXXXXXXoooo++  $$$$$$$$@@%%%%%%%%%%  XXXXXXXXXXXXXXoooooooo",
"XXXXXXXXXXXXooooOO  @@$$$$$$@@%%%%%%%%%%  XXXXXXXXXXOOOOoooooooo",
"XXXXXXXXXXXXooooOO  @@$$$$$$@@%%%%%%%%%%  XXXXXXXXXXOOOOoooooooo",
"XXXXXXXXXXXXooooOO  @@$$$$$$@@%%%%%%%%%%  XXXXXXXXXXOOOOoooooooo",
"XXXXXXXXXXXXooooOO  @@$$$$$$@@%%%%%%%%%%  XXXXXXXXXXOOOOoooooooo",
"XXXX....XXXXXXXXoo  ##@@@@@@##%%%%%%%%@@  XXXXXXXXXXXXXXOOOOXXXX",
"XXXX....XXXXXXXXoo  ##@@@@@@##%%%%%%%%@@  XXXXXXXXXXXXXXOOOOXXXX",
"XXXX....XXXXXXXXoo  $$##############@@@@@@  XXXXXXXXXXXXOOOOXXXX",
"XXXX....XXXXXXXXoo  $$##############@@@@@@  XXXXXXXXXXXXOOOOXXXX",
"....XXXXooooXXXX  $$$$$$$$$$      @@@@@@@@@@  XX....XXXXXXXXXXXX",
"....XXXXooooXXXX  $$$$$$$$$$      @@@@@@@@@@  XX....XXXXXXXXXXXX",
"....XXXXooooXXXX  $$$$$$$$  oooooo  @@@@@@@@  XX....XXXXXXXXXXXX",
"....XXXXooooXXXX  $$$$$$$$  oooooo  @@@@@@@@  XX....XXXXXXXXXXXX"
};
