/* XPM */
static char *walk_l_4[] = {
/* columns rows colors chars-per-pixel */
"64 64 6 1 ",
"  c None",
". c #04193F",
"X c #780BF7",
"o c #D840FB",
"O c #F489F6",
"+ c #FCFEFE",
/* pixels */
"                                                                ",
"                                                                ",
"                                                                ",
"                                                                ",
"                                                                ",
"                                                                ",
"                                                                ",
"                                                                ",
"                          ....          ....                    ",
"                          ....          ....                    ",
"                        ..XXXX..      ..OOOO..                  ",
"                        ..XXXX..      ..OOOO..                  ",
"                        ..XXXXXX..  ..OOOOOOOO..                ",
"                        ..XXXXXX..  ..OOOOOOOO..                ",
"                      ..XXXXXXXX....OOOOOOOOOO..                ",
"                      ..XXXXXXXX....OOOOOOOOOO..                ",
"                      ..XXXXXXooooooooOOOOOO..                  ",
"                      ..XXXXXXooooooooOOOOOO..                  ",
"                    ..XXXXooooooOOOOOOOOOOoo..                  ",
"                    ..XXXXooooooOOOOOOOOOOoo..                  ",
"                    ..XXooooooOOOOOOOOOOOOOOoo..                ",
"                    ..XXooooooOOOOOOOOOOOOOOoo..                ",
"                  ..XXXX++++++++++++OOOOOOOOOO..                ",
"                  ..XXXX++++++++++++OOOOOOOOOO..                ",
"                  ..XX++++++++++++++++OOOOOOOOoo..              ",
"                  ..XX++++++++++++++++OOOOOOOOoo..              ",
"                ..XX....++++++......++++OOOOOOOO..              ",
"                ..XX....++++++......++++OOOOOOOO..              ",
"                ....++....++..++++....++OOOOOOOO..              ",
"                ....++....++..++++....++OOOOOOOO..              ",
"                ....++....++..++++....++OOOOOOOO..              ",
"                ....++....++..++++....++OOOOOOOO..              ",
"                ..........++..........++OOOOOOOO..              ",
"                ..........++..........++OOOOOOOO..              ",
"                ..XX....++++++......++OOOOOOOOoo..              ",
"                ..XX....++++++......++OOOOOOOOoo..              ",
"                  ..++++++++++++++++++OOOOOOOO..                ",
"                  ..++++++++++++++++++OOOOOOOO..                ",
"                  ..XX++++++++++++ooOOOOOOOOoo..                ",
"                  ..XX++++++++++++ooOOOOOOOOoo..                ",
"                    ..XXXXXXooooooOOOOOOOOOO..                  ",
"                    ..XXXXXXooooooOOOOOOOOOO..                  ",
"                      ..XX++++++OOOOOOOOOOOO..                  ",
"                      ..XX++++++OOOOOOOOOOOO..                  ",
"                      ..XX++++++++OOXXOOOOOO..                  ",
"                      ..XX++++++++OOXXOOOOOO..                  ",
"                      ..++++++++++OOXXOOOOOO..                  ",
"                      ..++++++++++OOXXOOOOOO..                  ",
"                    ..XX++++++++++OOXXOOOOOOOO..                ",
"                    ..XX++++++++++OOXXOOOOOOOO..                ",
"                    ..XX++++++++++OOooXXOOOOOO..                ",
"                    ..XX++++++++++OOooXXOOOOOO..                ",
"                    ..XX++++++++++OOooXXOOOOOO..                ",
"                    ..XX++++++++++OOooXXOOOOOO..                ",
"                      ..XX++++++XXOOooooXXXX..                  ",
"                      ..XX++++++XXOOooooXXXX..                  ",
"                      ..XXXXooooXXOOOOoooo..                    ",
"                      ..XXXXooooXXOOOOoooo..                    ",
"                      ..XXXXXXXX..OOOOOOOO..                    ",
"                      ..XXXXXXXX..OOOOOOOO..                    ",
"                      ..XXXXXXXX..........                      ",
"                      ..XXXXXXXX..........                      ",
"                      ..XXXXXX..                                ",
"                      ..XXXXXX..                                "
};
