/* XPM */
static char *walk_r_2[] = {
/* columns rows colors chars-per-pixel */
"64 64 6 1 ",
"  c None",
". c #04193F",
"X c #780BF7",
"o c #D840FB",
"O c #F489F6",
"+ c #FCFEFE",
/* pixels */
"                                                                ",
"                                                                ",
"                                                                ",
"                                                                ",
"                                                                ",
"                                                                ",
"                                                                ",
"                                                                ",
"                  ......                                        ",
"                  ......                                        ",
"                ..OOOOOO....  ......                            ",
"                ..OOOOOO....  ......                            ",
"                ..OOOOOOOOOO..XXXXXX....                        ",
"                ..OOOOOOOOOO..XXXXXX....                        ",
"                ..OOOOOOOOooooooooXXXXXX..                      ",
"                ..OOOOOOOOooooooooXXXXXX..                      ",
"                  ..ooooOOOOOOOOooooooXXXX..                    ",
"                  ..ooooOOOOOOOOooooooXXXX..                    ",
"                ..ooOOOOOOOOOOOOOOooooooXX..                    ",
"                ..ooOOOOOOOOOOOOOOooooooXX..                    ",
"                ..OOOOOOOOOO++++++++++++XXXX..                  ",
"                ..OOOOOOOOOO++++++++++++XXXX..                  ",
"              ..ooOOOOOOOO++++++++++++++++XX..                  ",
"              ..ooOOOOOOOO++++++++++++++++XX..                  ",
"              ..OOOOOOOO++++......++++++....XX..                ",
"              ..OOOOOOOO++++......++++++....XX..                ",
"              ..OOOOOOOO++....++++..++....++....                ",
"              ..OOOOOOOO++....++++..++....++....                ",
"              ..OOOOOOOO++....++++..++....++....                ",
"              ..OOOOOOOO++....++++..++....++....                ",
"              ..OOOOOOOO++....++++..++....++....                ",
"              ..OOOOOOOO++....++++..++....++....                ",
"              ..ooOOOOOOOO++......++++++....XX..                ",
"              ..ooOOOOOOOO++......++++++....XX..                ",
"                ..OOOOOOOO++++++++++++++++++..                  ",
"                ..OOOOOOOO++++++++++++++++++..                  ",
"                ..ooOOOOOOOOoo++++++++++++XX..                  ",
"                ..ooOOOOOOOOoo++++++++++++XX..                  ",
"                  ..OOOOOOOOOOooooooXXXXXX..                    ",
"                  ..OOOOOOOOOOooooooXXXXXX..                    ",
"                  ..OOOOOOOOOOOO++++++XX..                      ",
"                  ..OOOOOOOOOOOO++++++XX..                      ",
"                ..OOOOOOOOOOOOOO++++++XX..                      ",
"                ..OOOOOOOOOOOOOO++++++XX..                      ",
"                ..OOOOOOXXOOOO++++++++++XX..                    ",
"                ..OOOOOOXXOOOO++++++++++XX..                    ",
"              ..OOOOOOOOXXOOOO++++++++++XX..                    ",
"              ..OOOOOOOOXXOOOO++++++++++XX..                    ",
"              ..OOOOOOXXooOOOO++++++++++XXXX..                  ",
"              ..OOOOOOXXooOOOO++++++++++XXXX..                  ",
"              ..OOOOOOXXooOOOO++++++++++XXXX..                  ",
"              ..OOOOOOXXooOOOO++++++++++XXXX..                  ",
"                ....XXooooOOOOXX++++++XXXXXX..                  ",
"                ....XXooooOOOOXX++++++XXXXXX..                  ",
"                    ..ooOOOOOOXXooooXX......                    ",
"                    ..ooOOOOOOXXooooXX......                    ",
"                    ..OOOOOOOOOO..XXXX..                        ",
"                    ..OOOOOOOOOO..XXXX..                        ",
"                      ..OOOOOOOO..XXXX..                        ",
"                      ..OOOOOOOO..XXXX..                        ",
"                      ..OOOOOOOO..XX..                          ",
"                      ..OOOOOOOO..XX..                          ",
"                        ........XXXX..                          ",
"                        ........XXXX..                          "
};
