/* XPM */
static char *walk_r_5[] = {
/* columns rows colors chars-per-pixel */
"64 64 10 1 ",
"  c #04193F",
". c #C6E763",
"X c #CEEF63",
"o c #D6EF63",
"O c #D6F763",
"+ c #E7F763",
"@ c #780BF7",
"# c #D840FB",
"$ c #F489F6",
"% c #FCFEFE",
/* pixels */
"ooooooooooooXXXXXXXXXXXXXXXXooooXXXXXXXXXXXXooooOOOOOOOO++++++++",
"ooooooooooooXXXXXXXXXXXXXXXXooooXXXXXXXXXXXXooooOOOOOOOO++++++++",
"ooooooooooooXXXXXXXXXXXXXXXXooooXXXXXXXXXXXXooooOOOOOOOO++++++++",
"ooooooooooooXXXXXXXXXXXXXXXXooooXXXXXXXXXXXXooooOOOOOOOO++++++++",
"++++++++oooo....XXXXXXXXXXXXXXXXooooooooOOOOOOOOooooooooOOOOOOOO",
"++++++++oooo....XXXXXXXXXXXXXXXXooooooooOOOOOOOOooooooooOOOOOOOO",
"++++++++oooo....XXXXXXXXXXXXXXXXooooooooOOOOOOOOooooooooOOOOOOOO",
"++++++++oooo....XXXXXXXXXXXXXXXXooooooooOOOOOOOOooooooooOOOOOOOO",
"oooo++++XXXXXXXXoo      OOOOooooOOOO++++OOOOXXXXooooooooXXXX++++",
"oooo++++XXXXXXXXoo      OOOOooooOOOO++++OOOOXXXXooooooooXXXX++++",
"oooo++++XXXXXXXX  $$$$$$    oo      ++++OOOOXXXXooooooooXXXX++++",
"oooo++++XXXXXXXX  $$$$$$    oo      ++++OOOOXXXXooooooooXXXX++++",
"OOOOoooooooooooo  $$$$$$$$$$  @@@@@@    ooooXXXXXXXXooooXXXXOOOO",
"OOOOoooooooooooo  $$$$$$$$$$  @@@@@@    ooooXXXXXXXXooooXXXXOOOO",
"OOOOoooooooooooo  $$$$$$$$########@@@@@@  ooXXXXXXXXooooXXXXOOOO",
"OOOOoooooooooooo  $$$$$$$$########@@@@@@  ooXXXXXXXXooooXXXXOOOO",
"ooooooooooooooooXX  ####$$$$$$$$######@@@@  ooooXXXXOOOOoooooooo",
"ooooooooooooooooXX  ####$$$$$$$$######@@@@  ooooXXXXOOOOoooooooo",
"oooooooooooooooo  ##$$$$$$$$$$$$$$######@@  ooooXXXXOOOOoooooooo",
"oooooooooooooooo  ##$$$$$$$$$$$$$$######@@  ooooXXXXOOOOoooooooo",
"ooooOOOOooooXXXX  $$$$$$$$$$%%%%%%%%%%%%@@@@  XX....oooooooo++++",
"ooooOOOOooooXXXX  $$$$$$$$$$%%%%%%%%%%%%@@@@  XX....oooooooo++++",
"ooooOOOOooooXX  ##$$$$$$$$%%%%%%%%%%%%%%%%@@  XX....oooooooo++++",
"ooooOOOOooooXX  ##$$$$$$$$%%%%%%%%%%%%%%%%@@  XX....oooooooo++++",
"XXXXooooXXXXXX  $$$$$$$$%%%%      %%%%%%    @@  ....XXXXoooooooo",
"XXXXooooXXXXXX  $$$$$$$$%%%%      %%%%%%    @@  ....XXXXoooooooo",
"XXXXooooXXXXXX  $$$$$$$$%%    %%%%  %%    %%    ....XXXXoooooooo",
"XXXXooooXXXXXX  $$$$$$$$%%    %%%%  %%    %%    ....XXXXoooooooo",
"XXXXXXXXXXXX..  $$$$$$$$%%    %%%%  %%    %%    XXXXXXXX........",
"XXXXXXXXXXXX..  $$$$$$$$%%    %%%%  %%    %%    XXXXXXXX........",
"XXXXXXXXXXXX..  $$$$$$$$%%    %%%%  %%    %%    XXXXXXXX........",
"XXXXXXXXXXXX..  $$$$$$$$%%    %%%%  %%    %%    XXXXXXXX........",
"XXXXXXXXXXXXXX  ##$$$$$$$$%%      %%%%%%    @@  ....XXXX....XXXX",
"XXXXXXXXXXXXXX  ##$$$$$$$$%%      %%%%%%    @@  ....XXXX....XXXX",
"XXXXXXXXXXXXXXXX  $$$$$$$$%%%%%%%%%%%%%%%%%%  XX....XXXX....XXXX",
"XXXXXXXXXXXXXXXX  $$$$$$$$%%%%%%%%%%%%%%%%%%  XX....XXXX....XXXX",
"XXXXXXXXooooOOOO  ##$$$$$$$$##%%%%%%%%%%%%@@  XXXXXXoooo++++oooo",
"XXXXXXXXooooOOOO  ##$$$$$$$$##%%%%%%%%%%%%@@  XXXXXXoooo++++oooo",
"XXXXXXXXooooOOOOoo  $$$$$$$$$$######@@@@@@  XXXXXXXXoooo++++oooo",
"XXXXXXXXooooOOOOoo  $$$$$$$$$$######@@@@@@  XXXXXXXXoooo++++oooo",
"XXXXoooooooo++++OO  $$$$$$$$$$$$%%%%@@@@  ooOOOOooooOOOO++++oooo",
"XXXXoooooooo++++OO  $$$$$$$$$$$$%%%%@@@@  ooOOOOooooOOOO++++oooo",
"XXXXoooooooo++++OO  $$$$$$@@$$%%%%%%%%@@  ooOOOOooooOOOO++++oooo",
"XXXXoooooooo++++OO  $$$$$$@@$$%%%%%%%%@@  ooOOOOooooOOOO++++oooo",
"ooooooooXXXXoooo++  $$$$$$@@$$%%%%%%%%%%  XXooooXXXX....XXXXoooo",
"ooooooooXXXXoooo++  $$$$$$@@$$%%%%%%%%%%  XXooooXXXX....XXXXoooo",
"ooooooooXXXXoooo  $$$$$$$$@@%%%%%%%%%%%%@@  ooooXXXX....XXXXoooo",
"ooooooooXXXXoooo  $$$$$$$$@@%%%%%%%%%%%%@@  ooooXXXX....XXXXoooo",
"XXXXXXXXXXXXoooo  $$$$$$@@##%%%%%%%%%%%%@@  XXXXXXXXXXXXoooooooo",
"XXXXXXXXXXXXoooo  $$$$$$@@##%%%%%%%%%%%%@@  XXXXXXXXXXXXoooooooo",
"XXXXXXXXXXXXoooo  $$$$$$@@##%%%%%%%%%%%%@@  XXXXXXXXXXXXoooooooo",
"XXXXXXXXXXXXoooo  $$$$$$@@##%%%%%%%%%%%%@@  XXXXXXXXXXXXoooooooo",
"XXXXXXXXXXXXoooo  $$$$$$@@##$$%%%%%%%%@@  XXXXXXXXXXOOOOoooooooo",
"XXXXXXXXXXXXoooo  $$$$$$@@##$$%%%%%%%%@@  XXXXXXXXXXOOOOoooooooo",
"XXXXXXXXXXXXooooOO  @@@@####$$$$####@@@@  XXXXXXXXXXOOOOoooooooo",
"XXXXXXXXXXXXooooOO  @@@@####$$$$####@@@@  XXXXXXXXXXOOOOoooooooo",
"XXXX....XXXXXXXXoo  ######$$$$    @@@@@@@@  XXXXXXXXXXXXOOOOXXXX",
"XXXX....XXXXXXXXoo  ######$$$$    @@@@@@@@  XXXXXXXXXXXXOOOOXXXX",
"XXXX....XXXXXXXXoo  $$$$$$$$$$    @@@@@@@@  XXXXXXXXXXXXOOOOXXXX",
"XXXX....XXXXXXXXoo  $$$$$$$$$$    @@@@@@@@  XXXXXXXXXXXXOOOOXXXX",
"....XXXXooooXXXX..  $$$$$$$$  oo  @@@@@@@@  XXXX....XXXXXXXXXXXX",
"....XXXXooooXXXX..  $$$$$$$$  oo  @@@@@@@@  XXXX....XXXXXXXXXXXX",
"....XXXXooooXXXX..  $$$$$$$$  oooo        OOXXXX....XXXXXXXXXXXX",
"....XXXXooooXXXX..  $$$$$$$$  oooo        OOXXXX....XXXXXXXXXXXX"
};
