/* XPM */
static char *walk_l_2[] = {
/* columns rows colors chars-per-pixel */
"64 64 10 1 ",
"  c #04193F",
". c #C6E763",
"X c #CEEF63",
"o c #D6EF63",
"O c #D6F763",
"+ c #E7F763",
"@ c #780BF7",
"# c #D840FB",
"$ c #F489F6",
"% c #FCFEFE",
/* pixels */
"ooooooooooooXXXXXXXXXXXXXXXXooooXXXXXXXXXXXXooooOOOOOOOO++++++++",
"ooooooooooooXXXXXXXXXXXXXXXXooooXXXXXXXXXXXXooooOOOOOOOO++++++++",
"ooooooooooooXXXXXXXXXXXXXXXXooooXXXXXXXXXXXXooooOOOOOOOO++++++++",
"ooooooooooooXXXXXXXXXXXXXXXXooooXXXXXXXXXXXXooooOOOOOOOO++++++++",
"++++++++oooo....XXXXXXXXXXXXXXXXooooooooOOOOOOOOooooooooOOOOOOOO",
"++++++++oooo....XXXXXXXXXXXXXXXXooooooooOOOOOOOOooooooooOOOOOOOO",
"++++++++oooo....XXXXXXXXXXXXXXXXooooooooOOOOOOOOooooooooOOOOOOOO",
"++++++++oooo....XXXXXXXXXXXXXXXXooooooooOOOOOOOOooooooooOOOOOOOO",
"oooo++++XXXXXXXXooooooooOOOOooooOOOO++++OOOOXXXXooooooooXXXX++++",
"oooo++++XXXXXXXXooooooooOOOOooooOOOO++++OOOOXXXXooooooooXXXX++++",
"oooo++++XXXXXXXXoooooooo      ooOOOO++      XXXXooooooooXXXX++++",
"oooo++++XXXXXXXXoooooooo      ooOOOO++      XXXXooooooooXXXX++++",
"OOOOooooooooooooXXXXoo  @@@@@@  oooo  $$$$$$  XXXXXXooooXXXXOOOO",
"OOOOooooooooooooXXXXoo  @@@@@@  oooo  $$$$$$  XXXXXXooooXXXXOOOO",
"OOOOooooooooooooXXXXoo  @@@@@@  oooo  $$$$$$  XXXXXXooooXXXXOOOO",
"OOOOooooooooooooXXXXoo  @@@@@@  oooo  $$$$$$  XXXXXXooooXXXXOOOO",
"ooooooooooooooooXXXXoo  @@@@@@      $$$$$$$$  ooXXXXOOOOoooooooo",
"ooooooooooooooooXXXXoo  @@@@@@      $$$$$$$$  ooXXXXOOOOoooooooo",
"ooooooooooooooooXXXX  @@@@@@@@########$$$$$$  ooXXXXOOOOoooooooo",
"ooooooooooooooooXXXX  @@@@@@@@########$$$$$$  ooXXXXOOOOoooooooo",
"ooooOOOOooooXXXXXXXX  @@@@######$$$$$$$$$$$$##  ....oooooooo++++",
"ooooOOOOooooXXXXXXXX  @@@@######$$$$$$$$$$$$##  ....oooooooo++++",
"ooooOOOOooooXXXXXXXX  @@######$$$$$$$$$$$$$$$$  ....oooooooo++++",
"ooooOOOOooooXXXXXXXX  @@######$$$$$$$$$$$$$$$$  ....oooooooo++++",
"XXXXooooXXXXXXXXXX  @@@@%%%%%%%%%%%%$$$$$$$$$$  ....XXXXoooooooo",
"XXXXooooXXXXXXXXXX  @@@@%%%%%%%%%%%%$$$$$$$$$$  ....XXXXoooooooo",
"XXXXooooXXXXXXXXXX  @@%%%%%%%%%%%%%%%%$$$$$$$$##  ..XXXXoooooooo",
"XXXXooooXXXXXXXXXX  @@%%%%%%%%%%%%%%%%$$$$$$$$##  ..XXXXoooooooo",
"XXXXXXXXXXXX....  @@    %%%%%%      %%%%$$$$$$$$  XXXXXX........",
"XXXXXXXXXXXX....  @@    %%%%%%      %%%%$$$$$$$$  XXXXXX........",
"XXXXXXXXXXXX....    %%    %%  %%%%    %%$$$$$$$$  XXXXXX........",
"XXXXXXXXXXXX....    %%    %%  %%%%    %%$$$$$$$$  XXXXXX........",
"XXXXXXXXXXXXXXXX          %%          %%$$$$$$$$  ..XXXX....XXXX",
"XXXXXXXXXXXXXXXX          %%          %%$$$$$$$$  ..XXXX....XXXX",
"XXXXXXXXXXXXXXXX          %%          %%$$$$$$$$  ..XXXX....XXXX",
"XXXXXXXXXXXXXXXX          %%          %%$$$$$$$$  ..XXXX....XXXX",
"XXXXXXXXooooOOOO  @@    %%%%%%      %%$$$$$$$$##  XXoooo++++oooo",
"XXXXXXXXooooOOOO  @@    %%%%%%      %%$$$$$$$$##  XXoooo++++oooo",
"XXXXXXXXooooOOOOoo  %%%%%%%%%%%%%%%%%%$$$$$$$$  XXXXoooo++++oooo",
"XXXXXXXXooooOOOOoo  %%%%%%%%%%%%%%%%%%$$$$$$$$  XXXXoooo++++oooo",
"XXXXoooooooo++++OO  @@%%%%%%%%%%%%##$$$$$$$$##  ooooOOOO++++oooo",
"XXXXoooooooo++++OO  @@%%%%%%%%%%%%##$$$$$$$$##  ooooOOOO++++oooo",
"XXXXoooooooo++++OOOO  @@@@@@######$$$$$$$$$$  OOooooOOOO++++oooo",
"XXXXoooooooo++++OOOO  @@@@@@######$$$$$$$$$$  OOooooOOOO++++oooo",
"ooooooooXXXXoooo++++++  @@%%%%%%$$$$$$$$$$$$  ooXXXX....XXXXoooo",
"ooooooooXXXXoooo++++++  @@%%%%%%$$$$$$$$$$$$  ooXXXX....XXXXoooo",
"ooooooooXXXXoooo++++  @@%%%%%%%%$$$$$$$$$$$$$$  XXXX....XXXXoooo",
"ooooooooXXXXoooo++++  @@%%%%%%%%$$$$$$$$$$$$$$  XXXX....XXXXoooo",
"XXXXXXXXXXXXoooo++  @@@@%%%%%%%%%%$$$$$$$$$$$$$$  XXXXXXoooooooo",
"XXXXXXXXXXXXoooo++  @@@@%%%%%%%%%%$$$$$$$$$$$$$$  XXXXXXoooooooo",
"XXXXXXXXXXXXoooo  @@@@@@%%%%%%%%%%$$$$@@$$$$$$$$$$  XXXXoooooooo",
"XXXXXXXXXXXXoooo  @@@@@@%%%%%%%%%%$$$$@@$$$$$$$$$$  XXXXoooooooo",
"XXXXXXXXXXXXoooo  @@@@@@%%%%%%%%%%$$$$##@@$$$$$$$$  OOOOoooooooo",
"XXXXXXXXXXXXoooo  @@@@@@%%%%%%%%%%$$$$##@@$$$$$$$$  OOOOoooooooo",
"XXXXXXXXXXXXoooo  @@@@@@%%%%%%%%$$$$$$####  $$$$$$  OOOOoooooooo",
"XXXXXXXXXXXXoooo  @@@@@@%%%%%%%%$$$$$$####  $$$$$$  OOOOoooooooo",
"XXXX....XXXXXXXXoo      @@%%%%@@$$$$$$$$  XX      XXXXXXOOOOXXXX",
"XXXX....XXXXXXXXoo      @@%%%%@@$$$$$$$$  XX      XXXXXXOOOOXXXX",
"XXXX....XXXXXXXXooooOOOO  ####@@$$$$$$$$  XXXXXXXXXXXXXXOOOOXXXX",
"XXXX....XXXXXXXXooooOOOO  ####@@$$$$$$$$  XXXXXXXXXXXXXXOOOOXXXX",
"....XXXXooooXXXX....XXXXoo    $$$$$$$$  OOOOXXXX....XXXXXXXXXXXX",
"....XXXXooooXXXX....XXXXoo    $$$$$$$$  OOOOXXXX....XXXXXXXXXXXX",
"....XXXXooooXXXX....XXXXoooo  $$$$$$$$  OOOOXXXX....XXXXXXXXXXXX",
"....XXXXooooXXXX....XXXXoooo  $$$$$$$$  OOOOXXXX....XXXXXXXXXXXX"
};
