/* XPM */
static char *walk_r_4[] = {
/* columns rows colors chars-per-pixel */
"64 64 6 1 ",
"  c None",
". c #04193F",
"X c #780BF7",
"o c #D840FB",
"O c #F489F6",
"+ c #FCFEFE",
/* pixels */
"                                                                ",
"                                                                ",
"                                                                ",
"                                                                ",
"                                                                ",
"                                                                ",
"                                                                ",
"                                                                ",
"                    ....          ....                          ",
"                    ....          ....                          ",
"                  ..OOOO..      ..XXXX..                        ",
"                  ..OOOO..      ..XXXX..                        ",
"                ..OOOOOOOO..  ..XXXXXX..                        ",
"                ..OOOOOOOO..  ..XXXXXX..                        ",
"                ..OOOOOOOOOO....XXXXXXXX..                      ",
"                ..OOOOOOOOOO....XXXXXXXX..                      ",
"                  ..OOOOOOooooooooXXXXXX..                      ",
"                  ..OOOOOOooooooooXXXXXX..                      ",
"                  ..ooOOOOOOOOOOooooooXXXX..                    ",
"                  ..ooOOOOOOOOOOooooooXXXX..                    ",
"                ..ooOOOOOOOOOOOOOOooooooXX..                    ",
"                ..ooOOOOOOOOOOOOOOooooooXX..                    ",
"                ..OOOOOOOOOO++++++++++++XXXX..                  ",
"                ..OOOOOOOOOO++++++++++++XXXX..                  ",
"              ..ooOOOOOOOO++++++++++++++++XX..                  ",
"              ..ooOOOOOOOO++++++++++++++++XX..                  ",
"              ..OOOOOOOO++++......++++++....XX..                ",
"              ..OOOOOOOO++++......++++++....XX..                ",
"              ..OOOOOOOO++....++++..++....++....                ",
"              ..OOOOOOOO++....++++..++....++....                ",
"              ..OOOOOOOO++....++++..++....++....                ",
"              ..OOOOOOOO++....++++..++....++....                ",
"              ..OOOOOOOO++..........++..........                ",
"              ..OOOOOOOO++..........++..........                ",
"              ..ooOOOOOOOO++......++++++....XX..                ",
"              ..ooOOOOOOOO++......++++++....XX..                ",
"                ..OOOOOOOO++++++++++++++++++..                  ",
"                ..OOOOOOOO++++++++++++++++++..                  ",
"                ..ooOOOOOOOOoo++++++++++++XX..                  ",
"                ..ooOOOOOOOOoo++++++++++++XX..                  ",
"                  ..OOOOOOOOOOooooooXXXXXX..                    ",
"                  ..OOOOOOOOOOooooooXXXXXX..                    ",
"                  ..OOOOOOOOOOOO++++XXXX..                      ",
"                  ..OOOOOOOOOOOO++++XXXX..                      ",
"                ..OOOOOOOOOOOOOO++++++XX..                      ",
"                ..OOOOOOOOOOOOOO++++++XX..                      ",
"                ..OOOOOOXXOOOO++++++++XXXX..                    ",
"                ..OOOOOOXXOOOO++++++++XXXX..                    ",
"              ..OOOOOOOOXXOOOO++++++++++XX..                    ",
"              ..OOOOOOOOXXOOOO++++++++++XX..                    ",
"              ..OOOOOOXXooOOOO++++++++++XXXX..                  ",
"              ..OOOOOOXXooOOOO++++++++++XXXX..                  ",
"              ..OOOOOOXXooOOOO++++++++++XXXX..                  ",
"              ..OOOOOOXXooOOOO++++++++++XXXX..                  ",
"                ....XXooooOOOOXX++++++XXXXXX..                  ",
"                ....XXooooOOOOXX++++++XXXXXX..                  ",
"                    ..ooOOOOOOXXooooXXXX....                    ",
"                    ..ooOOOOOOXXooooXXXX....                    ",
"                      ..OOOOOOOO..XXXXXX..                      ",
"                      ..OOOOOOOO..XXXXXX..                      ",
"                      ..OOOOOOOO........                        ",
"                      ..OOOOOOOO........                        ",
"                      ..OOOOOOOO..                              ",
"                      ..OOOOOOOO..                              "
};
