/* XPM */
static char *walk_l_1[] = {
/* columns rows colors chars-per-pixel */
"64 64 6 1 ",
"  c None",
". c #04193F",
"X c #780BF7",
"o c #D840FB",
"O c #F489F6",
"+ c #FCFEFE",
/* pixels */
"                                                                ",
"                                                                ",
"                                                                ",
"                                                                ",
"                                                                ",
"                                                                ",
"                                                                ",
"                                                                ",
"                          ....          ....                    ",
"                          ....          ....                    ",
"                        ..XXXX..      ..OOOO..                  ",
"                        ..XXXX..      ..OOOO..                  ",
"                        ..XXXXXX..  ..OOOOOOOO..                ",
"                        ..XXXXXX..  ..OOOOOOOO..                ",
"                      ..XXXXXXXX....OOOOOOOOOO..                ",
"                      ..XXXXXXXX....OOOOOOOOOO..                ",
"                      ..XXXXXXooooooooOOOOOO..                  ",
"                      ..XXXXXXooooooooOOOOOO..                  ",
"                    ..XXXXooooooOOOOOOOOOOoo..                  ",
"                    ..XXXXooooooOOOOOOOOOOoo..                  ",
"                    ..XXooooooOOOOOOOOOOOOOOoo..                ",
"                    ..XXooooooOOOOOOOOOOOOOOoo..                ",
"                  ..XXXX++++++++++++OOOOOOOOOO..                ",
"                  ..XXXX++++++++++++OOOOOOOOOO..                ",
"                  ..XX++++++++++++++++OOOOOOOOoo..              ",
"                  ..XX++++++++++++++++OOOOOOOOoo..              ",
"                ..XX....++++++......++++OOOOOOOO..              ",
"                ..XX....++++++......++++OOOOOOOO..              ",
"                ....++....++..++++....++OOOOOOOO..              ",
"                ....++....++..++++....++OOOOOOOO..              ",
"                ....++....++..++++....++OOOOOOOO..              ",
"                ....++....++..++++....++OOOOOOOO..              ",
"                ..........++..........++OOOOOOOO..              ",
"                ..........++..........++OOOOOOOO..              ",
"                ..XX....++++++......++OOOOOOOOoo..              ",
"                ..XX....++++++......++OOOOOOOOoo..              ",
"                  ..++++++++++++++++++OOOOOOOO..                ",
"                  ..++++++++++++++++++OOOOOOOO..                ",
"                  ..XX++++++++++++ooOOOOOOOOoo..                ",
"                  ..XX++++++++++++ooOOOOOOOOoo..                ",
"                    ..XXXXXXooooooOOOOOOOOOO..                  ",
"                    ..XXXXXXooooooOOOOOOOOOO..                  ",
"                      ..XXXX++++OOOOOOOOOOOO..                  ",
"                      ..XXXX++++OOOOOOOOOOOO..                  ",
"                      ..XX++++++OOOOOOOOOOOOOO..                ",
"                      ..XX++++++OOOOOOOOOOOOOO..                ",
"                    ..XXXX++++++++OOOOXXOOOOOO..                ",
"                    ..XXXX++++++++OOOOXXOOOOOO..                ",
"                    ..XX++++++++++OOOOXXOOOOOOOO..              ",
"                    ..XX++++++++++OOOOXXOOOOOOOO..              ",
"                  ..XXXX++++++++++OOOOooXXOOOOOO..              ",
"                  ..XXXX++++++++++OOOOooXXOOOOOO..              ",
"                  ..XXXX++++++++++OOOOooXXOOOOOO..              ",
"                  ..XXXX++++++++++OOOOooXXOOOOOO..              ",
"                  ..XXXXXX++++++XXOOOOooooXX....                ",
"                  ..XXXXXX++++++XXOOOOooooXX....                ",
"                    ....XXXXooooXXOOOOOOoo..                    ",
"                    ....XXXXooooXXOOOOOOoo..                    ",
"                      ..XXXXXX..OOOOOOOO..                      ",
"                      ..XXXXXX..OOOOOOOO..                      ",
"                        ........OOOOOOOO..                      ",
"                        ........OOOOOOOO..                      ",
"                              ..OOOOOOOO..                      ",
"                              ..OOOOOOOO..                      "
};
