/* XPM */
static char *walk_l_0[] = {
/* columns rows colors chars-per-pixel */
"64 64 6 1 ",
"  c None",
". c #04193F",
"X c #780BF7",
"o c #D840FB",
"O c #F489F6",
"+ c #FCFEFE",
/* pixels */
"                                                                ",
"                                                                ",
"                                                                ",
"                                                                ",
"                                                                ",
"                                                                ",
"                                                                ",
"                                                                ",
"                                        ......                  ",
"                                        ......                  ",
"                            ......  ....OOOOOO..                ",
"                            ......  ....OOOOOO..                ",
"                        ....XXXXXX..OOOOOOOOOO..                ",
"                        ....XXXXXX..OOOOOOOOOO..                ",
"                      ..XXXXXXooooooooOOOOOOOO..                ",
"                      ..XXXXXXooooooooOOOOOOOO..                ",
"                    ..XXXXooooooOOOOOOOOoooo..                  ",
"                    ..XXXXooooooOOOOOOOOoooo..                  ",
"                    ..XXooooooOOOOOOOOOOOOOOoo..                ",
"                    ..XXooooooOOOOOOOOOOOOOOoo..                ",
"                  ..XXXX++++++++++++OOOOOOOOOO..                ",
"                  ..XXXX++++++++++++OOOOOOOOOO..                ",
"                  ..XX++++++++++++++++OOOOOOOOoo..              ",
"                  ..XX++++++++++++++++OOOOOOOOoo..              ",
"                ..XX....++++++......++++OOOOOOOO..              ",
"                ..XX....++++++......++++OOOOOOOO..              ",
"                ....++....++..++++....++OOOOOOOO..              ",
"                ....++....++..++++....++OOOOOOOO..              ",
"                ....++....++..++++....++OOOOOOOO..              ",
"                ....++....++..++++....++OOOOOOOO..              ",
"                ....++....++..++++....++OOOOOOOO..              ",
"                ....++....++..++++....++OOOOOOOO..              ",
"                ..XX....++++++......++OOOOOOOOoo..              ",
"                ..XX....++++++......++OOOOOOOOoo..              ",
"                  ..++++++++++++++++++OOOOOOOO..                ",
"                  ..++++++++++++++++++OOOOOOOO..                ",
"                  ..XX++++++++++++ooOOOOOOOOoo..                ",
"                  ..XX++++++++++++ooOOOOOOOOoo..                ",
"                    ..XXXXXXooooooOOOOOOOOOO..                  ",
"                    ..XXXXXXooooooOOOOOOOOOO..                  ",
"                      ..XXXX++++OOOOOOOOOOOO..                  ",
"                      ..XXXX++++OOOOOOOOOOOO..                  ",
"                      ..XX++++++++OOXXOOOOOO..                  ",
"                      ..XX++++++++OOXXOOOOOO..                  ",
"                      ..++++++++++OOXXOOOOOO..                  ",
"                      ..++++++++++OOXXOOOOOO..                  ",
"                    ..XX++++++++++++XXOOOOOOOO..                ",
"                    ..XX++++++++++++XXOOOOOOOO..                ",
"                    ..XX++++++++++++ooXXOOOOOO..                ",
"                    ..XX++++++++++++ooXXOOOOOO..                ",
"                    ..XX++++++++++++ooXXOOOOOO..                ",
"                    ..XX++++++++++++ooXXOOOOOO..                ",
"                      ..XX++++++++OOooXXOOOOOO..                ",
"                      ..XX++++++++OOooXXOOOOOO..                ",
"                      ..XXXXooooOOOOooooXXXX..                  ",
"                      ..XXXXooooOOOOooooXXXX..                  ",
"                    ..XXXXXXXX....OOOOoooooo..                  ",
"                    ..XXXXXXXX....OOOOoooooo..                  ",
"                    ..XXXXXXXX....OOOOOOOOOO..                  ",
"                    ..XXXXXXXX....OOOOOOOOOO..                  ",
"                    ..XXXXXXXX..  ..OOOOOOOO..                  ",
"                    ..XXXXXXXX..  ..OOOOOOOO..                  ",
"                      ........    ..OOOOOOOO..                  ",
"                      ........    ..OOOOOOOO..                  "
};
