/* XPM */
static char *walk_l_5[] = {
/* columns rows colors chars-per-pixel */
"64 64 6 1 ",
"  c None",
". c #04193F",
"X c #780BF7",
"o c #D840FB",
"O c #F489F6",
"+ c #FCFEFE",
/* pixels */
"                                                                ",
"                                                                ",
"                                                                ",
"                                                                ",
"                                                                ",
"                                                                ",
"                                                                ",
"                                                                ",
"                                                                ",
"                                                                ",
"                        ......        ......                    ",
"                        ......        ......                    ",
"                      ..XXXXXX..    ..OOOOOO..                  ",
"                      ..XXXXXX..    ..OOOOOO..                  ",
"                      ..XXXXXX..    ..OOOOOO..                  ",
"                      ..XXXXXX..    ..OOOOOO..                  ",
"                      ..XXXXXX......OOOOOOOO..                  ",
"                      ..XXXXXX......OOOOOOOO..                  ",
"                    ..XXXXXXXXooooooooOOOOOO..                  ",
"                    ..XXXXXXXXooooooooOOOOOO..                  ",
"                    ..XXXXooooooOOOOOOOOOOOOoo..                ",
"                    ..XXXXooooooOOOOOOOOOOOOoo..                ",
"                    ..XXooooooOOOOOOOOOOOOOOoo..                ",
"                    ..XXooooooOOOOOOOOOOOOOOoo..                ",
"                  ..XXXX++++++++++++OOOOOOOOOO..                ",
"                  ..XXXX++++++++++++OOOOOOOOOO..                ",
"                  ..XX++++++++++++++++OOOOOOOOoo..              ",
"                  ..XX++++++++++++++++OOOOOOOOoo..              ",
"                ..XX....++++++......++++OOOOOOOO..              ",
"                ..XX....++++++......++++OOOOOOOO..              ",
"                ....++....++..++++....++OOOOOOOO..              ",
"                ....++....++..++++....++OOOOOOOO..              ",
"                ..........++..........++OOOOOOOO..              ",
"                ..........++..........++OOOOOOOO..              ",
"                ..........++..........++OOOOOOOO..              ",
"                ..........++..........++OOOOOOOO..              ",
"                ..XX....++++++......++OOOOOOOOoo..              ",
"                ..XX....++++++......++OOOOOOOOoo..              ",
"                  ..++++++++++++++++++OOOOOOOO..                ",
"                  ..++++++++++++++++++OOOOOOOO..                ",
"                  ..XX++++++++++++ooOOOOOOOOoo..                ",
"                  ..XX++++++++++++ooOOOOOOOOoo..                ",
"                    ..XXXXXXooooooOOOOOOOOOO..                  ",
"                    ..XXXXXXooooooOOOOOOOOOO..                  ",
"                      ..XX++++++OOOOOOOOOOOO..                  ",
"                      ..XX++++++OOOOOOOOOOOO..                  ",
"                      ..XX++++++++OOXXOOOOOO..                  ",
"                      ..XX++++++++OOXXOOOOOO..                  ",
"                      ..++++++++++OOXXOOOOOO..                  ",
"                      ..++++++++++OOXXOOOOOO..                  ",
"                      ..++++++++++XXOOOOOOOO..                  ",
"                      ..++++++++++XXOOOOOOOO..                  ",
"                      ..++++++++++XXOOOOOOXX..                  ",
"                      ..++++++++++XXOOOOOOXX..                  ",
"                      ..++++++++++XXOOOOOOXX..                  ",
"                      ..++++++++++XXOOOOOOXX..                  ",
"                      ..XX++++++++ooXXXXXXoo..                  ",
"                      ..XX++++++++ooXXXXXXoo..                  ",
"                    ..XXXXXXooooooooooooooOO..                  ",
"                    ..XXXXXXooooooooooooooOO..                  ",
"                  ..XXXXXXXXXX......OOOOOOOOOO..                ",
"                  ..XXXXXXXXXX......OOOOOOOOOO..                ",
"                  ..XXXXXXXX..      ..OOOOOOOO..                ",
"                  ..XXXXXXXX..      ..OOOOOOOO..                "
};
