/* XPM */
static char * wall_xxoo_0_xpm[] = {
"64 64 8 1",
" 	c #D6EF63",
".	c #D6846B",
"+	c #B5639C",
"@	c #E7F763",
"#	c #D6F7FF",
"$	c #42C6FF",
"%	c #42B5F7",
"&	c #4A73F7",
"            ....................................................",
"            ....................................................",
"            ....................................................",
"            ....................................................",
"        ....++++++++++++++++++++++++++++++++++++++++++++++++++++",
"        ....++++++++++++++++++++++++++++++++++++++++++++++++++++",
"        ....++++++++++++++++++++++++++++++++++++++++++++++++++++",
"        ....++++++++++++++++++++++++++++++++++++++++++++++++++++",
"@@@@....++++++++++++++++++++++++++++++++++++++++++++++++++++++++",
"@@@@....++++++++++++++++++++++++++++++++++++++++++++++++++++++++",
"@@@@....++++++++++++++++++++++++++++++++++++++++++++++++++++++++",
"@@@@....++++++++++++++++++++++++++++++++++++++++++++++++++++++++",
"....++++++++++++++++++++++++++++++++++++++++++++++++++++++++++++",
"....++++++++++++++++++++++++++++++++++++++++++++++++++++++++++++",
"....++++++++++++++++++++++++++++++++++++++++++++++++++++++++++++",
"....++++++++++++++++++++++++++++++++++++++++++++++++++++++++++++",
"....++++++++++++++++++++++++++++++++++++++++++++++++++++++++++++",
"....++++++++++++++++++++++++++++++++++++++++++++++++++++++++++++",
"....++++++++++++++++++++++++++++++++++++++++++++++++++++++++++++",
"....++++++++++++++++++++++++++++++++++++++++++++++++++++++++++++",
"....++++++++++++++++++++++++++++++++++++++++++++++++++++++++++++",
"....++++++++++++++++++++++++++++++++++++++++++++++++++++++++++++",
"....++++++++++++++++++++++++++++++++++++++++++++++++++++++++++++",
"....++++++++++++++++++++++++++++++++++++++++++++++++++++++++++++",
"....++++++++++++++++++++++++++++++++############++++++++++++####",
"....++++++++++++++++++++++++++++++++############++++++++++++####",
"....++++++++++++++++++++++++++++++++############++++++++++++####",
"....++++++++++++++++++++++++++++++++############++++++++++++####",
"....++++++++++++++++++++$$$$############$$$$################$$$$",
"....++++++++++++++++++++$$$$############$$$$################$$$$",
"....++++++++++++++++++++$$$$############$$$$################$$$$",
"....++++++++++++++++++++$$$$############$$$$################$$$$",
"....++++++++++++++++$$$$%%%%%%%%&&&&&&&&&&&&&&&&%%%%%%%%&&&&&&&&",
"....++++++++++++++++$$$$%%%%%%%%&&&&&&&&&&&&&&&&%%%%%%%%&&&&&&&&",
"....++++++++++++++++$$$$%%%%%%%%&&&&&&&&&&&&&&&&%%%%%%%%&&&&&&&&",
"....++++++++++++++++$$$$%%%%%%%%&&&&&&&&&&&&&&&&%%%%%%%%&&&&&&&&",
"....++++++++++++$$$$%%%%&&&&&&&&&&&&&&&&&&&&&&&&&&&&&&&&&&&&&&&&",
"....++++++++++++$$$$%%%%&&&&&&&&&&&&&&&&&&&&&&&&&&&&&&&&&&&&&&&&",
"....++++++++++++$$$$%%%%&&&&&&&&&&&&&&&&&&&&&&&&&&&&&&&&&&&&&&&&",
"....++++++++++++$$$$%%%%&&&&&&&&&&&&&&&&&&&&&&&&&&&&&&&&&&&&&&&&",
"....++++++++++++%%%%&&&&&&&&&&&&&&&&&&&&&&&&&&&&&&&&&&&&&&&&&&&&",
"....++++++++++++%%%%&&&&&&&&&&&&&&&&&&&&&&&&&&&&&&&&&&&&&&&&&&&&",
"....++++++++++++%%%%&&&&&&&&&&&&&&&&&&&&&&&&&&&&&&&&&&&&&&&&&&&&",
"....++++++++++++%%%%&&&&&&&&&&&&&&&&&&&&&&&&&&&&&&&&&&&&&&&&&&&&",
"....++++++++$$$$%%%%&&&&&&&&&&&&&&&&%%%%%%%%%%%%&&&&&&&&%%%%%%%%",
"....++++++++$$$$%%%%&&&&&&&&&&&&&&&&%%%%%%%%%%%%&&&&&&&&%%%%%%%%",
"....++++++++$$$$%%%%&&&&&&&&&&&&&&&&%%%%%%%%%%%%&&&&&&&&%%%%%%%%",
"....++++++++$$$$%%%%&&&&&&&&&&&&&&&&%%%%%%%%%%%%&&&&&&&&%%%%%%%%",
"....++++++++$$$$%%%%&&&&&&&&&&&&%%%%%%%%%%%%%%%%%%%%%%%%%%%%%%%%",
"....++++++++$$$$%%%%&&&&&&&&&&&&%%%%%%%%%%%%%%%%%%%%%%%%%%%%%%%%",
"....++++++++$$$$%%%%&&&&&&&&&&&&%%%%%%%%%%%%%%%%%%%%%%%%%%%%%%%%",
"....++++++++$$$$%%%%&&&&&&&&&&&&%%%%%%%%%%%%%%%%%%%%%%%%%%%%%%%%",
"....++++++++++++$$$$&&&&&&&&&&&&%%%%%%%%%%%%%%%%%%%%%%%%%%%%%%%%",
"....++++++++++++$$$$&&&&&&&&&&&&%%%%%%%%%%%%%%%%%%%%%%%%%%%%%%%%",
"....++++++++++++$$$$&&&&&&&&&&&&%%%%%%%%%%%%%%%%%%%%%%%%%%%%%%%%",
"....++++++++++++$$$$&&&&&&&&&&&&%%%%%%%%%%%%%%%%%%%%%%%%%%%%%%%%",
"....++++++++++++$$$$&&&&&&&&&&&&%%%%%%%%%%%%%%%%%%%%%%%%%%%%%%%%",
"....++++++++++++$$$$&&&&&&&&&&&&%%%%%%%%%%%%%%%%%%%%%%%%%%%%%%%%",
"....++++++++++++$$$$&&&&&&&&&&&&%%%%%%%%%%%%%%%%%%%%%%%%%%%%%%%%",
"....++++++++++++$$$$&&&&&&&&&&&&%%%%%%%%%%%%%%%%%%%%%%%%%%%%%%%%",
"....++++++++$$$$%%%%&&&&&&&&&&&&%%%%%%%%%%%%%%%%%%%%$$$$%%%%%%%%",
"....++++++++$$$$%%%%&&&&&&&&&&&&%%%%%%%%%%%%%%%%%%%%$$$$%%%%%%%%",
"....++++++++$$$$%%%%&&&&&&&&&&&&%%%%%%%%%%%%%%%%%%%%$$$$%%%%%%%%",
"....++++++++$$$$%%%%&&&&&&&&&&&&%%%%%%%%%%%%%%%%%%%%$$$$%%%%%%%%"};
