/* XPM */
static char *attack1_r_2[] = {
/* columns rows colors chars-per-pixel */
"64 64 14 1 ",
"  c #1C121B",
". c #1C1A30",
"X c #5E2C29",
"o c #2A304E",
"O c #FC5003",
"+ c #FDA216",
"@ c #C6E763",
"# c #CEEF63",
"$ c #D6EF63",
"% c #D6F763",
"& c #E7F763",
"* c #667291",
"= c #94A0BA",
"- c #FCFEFE",
/* pixels */
"$$$$$$$$$$$$################$$$$############$$$$%%%%%%%%&&&&&&&&",
"$$$$$$$$$$$$################$$$$############$$$$%%%%%%%%&&&&&&&&",
"$$$$$$$$$$$$################$$$$############$$$$%%%%%%%%&&&&&&&&",
"$$$$$$$$$$$$################$$$$############$$$$%%%%%%%%&&&&&&&&",
"&&&&&&&&$$$$@@@@################$$$$$$$$%%%%%%%%$$$$$$$$%%%%%%%%",
"&&&&&&&&$$$$@@@@################$$$$$$$$%%%%%%%%$$$$$$$$%%%%%%%%",
"&&&&&&&&$$$$@@@@################$$$$$$$$%%%%%%%%$$$$$$$$%%%%%%%%",
"&&&&&&&&$$$$@@@@################$$$$$$$$%%%%%%%%$$$$$$$$%%%%%%%%",
"$$$$&&&&########$$$$$$$$%%%%$$$$%%%%&&&&%%%%####$$$$$$$$####&&&&",
"$$$$&&&&########$$$$$$$$%%%%$$$$%%%%&&&&%%%%####$$$$$$$$####&&&&",
"$$$$&&&&########$$$$$$$$%%oooooooooooo&&%%%%####$$$$$$$$####&&&&",
"$$$$&&&&########$$$$$$$$%%oooooooooooo&&%%%%####$$$$$$$$####&&&&",
"%%%%$$$$$$$$$$$$####$$oooo----------==oooo$$########$$$$####%%%%",
"%%%%$$$$$$$$$$$$####$$oooo----------==oooo$$########$$$$####%%%%",
"%%%%$$$$$$$$$$$$##oooo----------------====oo########$$$$####%%%%",
"%%%%$$$$$$$$$$$$##oooo----------------====oo########$$$$####%%%%",
"$$$$$$$$$$$$$$$$oo----------**************==oo$$####%%%%$$$$$$$$",
"$$$$$$$$$$$$$$$$oo----------**************==oo$$####%%%%$$$$$$$$",
"$$$$$$$$$$$$$$oo----------******************oo$$####%%%%$$$$$$$$",
"$$$$$$$$$$$$$$oo----------******************oo$$####%%%%$$$$$$$$",
"$$$$%%%%$$$$oo------------******oooo********oooo@@@@$$$$$$$$&&&&",
"$$$$%%%%$$$$oo------------******oooo********oooo@@@@$$$$$$$$&&&&",
"$$$$%%%%$$$$oo----------******oo----********--oo@@@@$$$$$$$$&&&&",
"$$$$%%%%$$$$oo----------******oo----********--oo@@@@$$$$$$$$&&&&",
"####$$$$##oo------------******..----********--oo@@@@####$$$$$$$$",
"####$$$$##oo------------******..----********--oo@@@@####$$$$$$$$",
"####$$$$##oo------------******......**    **..**oo@@####$$$$$$$$",
"####$$$$##oo------------******......**    **..**oo@@####$$$$$$$$",
"##########oo----**------**************      ****oo######@@@@@@@@",
"##########oo----**------**************      ****oo######@@@@@@@@",
"############oooo**------**************      ****oo######@@@@@@@@",
"############oooo**------**************      ****oo######@@@@@@@@",
"##############oo==--------************oooo  ****oo@@####@@@@####",
"##############oo==--------************oooo  ****oo@@####@@@@####",
"################oo--------********************oo@@@@####@@@@####",
"################oo--------********************oo@@@@####@@@@####",
"########$$$$%%%%oo----------********--====****oo##oooooooooooo$$",
"########$$$$%%%%oo----------********--====****oo##oooooooooooo$$",
"########$$$$%%%%$$oo------------------======oooooo************oo",
"########$$$$%%%%$$oo------------------======oooooo************oo",
"####$$$$$$$$&&&&oo==XXXX------------====**oo******************oo",
"####$$$$$$$$&&&&oo==XXXX------------====**oo******************oo",
"####$$$$$$$$&&oo------==XXXX----========XX********************oo",
"####$$$$$$$$&&oo------==XXXX----========XX********************oo",
"$$$$$$$$####$$oo--------**==XXXX======XX==******************oo$$",
"$$$$$$$$####$$oo--------**==XXXX======XX==******************oo$$",
"$$$$$$$$####oo--------**------==XXXXXX====******************oo$$",
"$$$$$$$$####oo--------**------==XXXXXX====******************oo$$",
"############oo--------**------OO++++++====**oooooooo******oo$$$$",
"############oo--------**------OO++++++====**oooooooo******oo$$$$",
"############oo------**------OO++++++======oo########oooooo$$$$$$",
"############oo------**------OO++++++======oo########oooooo$$$$$$",
"############$$oooooo**----OO++++++========oo########%%%%$$$$$$$$",
"############$$oooooo**----OO++++++========oo########%%%%$$$$$$$$",
"############$$$$%%%%oo----------========**oo########%%%%$$$$$$$$",
"############$$$$%%%%oo----------========**oo########%%%%$$$$$$$$",
"####@@@@########$$oo----------========****oo############%%%%####",
"####@@@@########$$oo----------========****oo############%%%%####",
"####@@@@########$$oo--------oooooo******oo##############%%%%####",
"####@@@@########$$oo--------oooooo******oo##############%%%%####",
"@@@@####$$$$####oo--------oo$$oo********oo%%####@@@@############",
"@@@@####$$$$####oo--------oo$$oo********oo%%####@@@@############",
"@@@@####$$$$####oo------oo$$$$oo******oo%%%%####@@@@############",
"@@@@####$$$$####oo------oo$$$$oo******oo%%%%####@@@@############"
};
