/* XPM */
static char *jump_r_5[] = {
/* columns rows colors chars-per-pixel */
"64 64 14 1 ",
"  c #1C121B",
". c #1C1A30",
"X c #5E2C29",
"o c #2A304E",
"O c #FC5003",
"+ c #FDA216",
"@ c #C6E763",
"# c #CEEF63",
"$ c #D6EF63",
"% c #D6F763",
"& c #E7F763",
"* c #667291",
"= c #94A0BA",
"- c #FCFEFE",
/* pixels */
"$$$$$$$$$$$$################$$$$############$$$$%%%%%%%%&&&&&&&&",
"$$$$$$$$$$$$################$$$$############$$$$%%%%%%%%&&&&&&&&",
"$$$$$$$$$$$$################$$$$############$$$$%%%%%%%%&&&&&&&&",
"$$$$$$$$$$$$################$$$$############$$$$%%%%%%%%&&&&&&&&",
"&&&&&&&&$$$$@@@@################$$$$$$$$%%%%%%%%$$$$$$$$%%%%%%%%",
"&&&&&&&&$$$$@@@@################$$$$$$$$%%%%%%%%$$$$$$$$%%%%%%%%",
"&&&&&&&&$$$$@@@@################$$$$$$$$%%%%%%%%$$$$$$$$%%%%%%%%",
"&&&&&&&&$$$$@@@@################$$$$$$$$%%%%%%%%$$$$$$$$%%%%%%%%",
"$$$$&&&&########$$$$$$$$oooooooooooo&&&&%%%%####$$$$$$$$####&&&&",
"$$$$&&&&########$$$$$$$$oooooooooooo&&&&%%%%####$$$$$$$$####&&&&",
"$$$$&&&&########$$$$oooo----------==oooo%%%%####$$$$$$$$####&&&&",
"$$$$&&&&########$$$$oooo----------==oooo%%%%####$$$$$$$$####&&&&",
"%%%%$$$$$$$$$$$$oooo----------------====oo$$########$$$$####%%%%",
"%%%%$$$$$$$$$$$$oooo----------------====oo$$########$$$$####%%%%",
"%%%%$$$$$$$$$$oo----------**************==oo########$$$$####%%%%",
"%%%%$$$$$$$$$$oo----------**************==oo########$$$$####%%%%",
"$$$$$$$$$$$$oo----------******************oo$$$$####%%%%$$$$$$$$",
"$$$$$$$$$$$$oo----------******************oo$$$$####%%%%$$$$$$$$",
"$$$$$$$$$$oo------------******oooo********oooo$$####%%%%$$$$$$$$",
"$$$$$$$$$$oo------------******oooo********oooo$$####%%%%$$$$$$$$",
"$$$$%%%%oo------------******oo----********--oo##@@@@$$$$$$$$&&&&",
"$$$$%%%%oo------------******oo----********--oo##@@@@$$$$$$$$&&&&",
"$$$$%%oo--------------******..----********--oo##@@@@$$$$$$$$&&&&",
"$$$$%%oo--------------******..----********--oo##@@@@$$$$$$$$&&&&",
"####$$oo------**------******......**    **..**oo@@@@####$$$$$$$$",
"####$$oo------**------******......**    **..**oo@@@@####$$$$$$$$",
"####$$oooooooo**------**************      ****oo@@@@####$$$$$$$$",
"####$$oooooooo**------**************      ****oo@@@@####$$$$$$$$",
"############oo==------**************      ****oo########@@@@@@@@",
"############oo==------**************      ****oo########@@@@@@@@",
"############oo----------************oooo  ****oo########@@@@@@@@",
"############oo----------************oooo  ****oo########@@@@@@@@",
"##############oo--------********************oo##@@@@####@@@@####",
"##############oo--------********************oo##@@@@####@@@@####",
"##############oo----------********--====****oo##@@@@####@@@@####",
"##############oo----------********--====****oo##@@@@####@@@@####",
"########$$$$%%%%oo------------------======oo########$$$$&&&&$$$$",
"########$$$$%%%%oo------------------======oo########$$$$&&&&$$$$",
"########$$$$%%%%ooXXXXXXXX--------====XXoo##########$$$$&&&&$$$$",
"########$$$$%%%%ooXXXXXXXX--------====XXoo##########$$$$&&&&$$$$",
"####$$$$$$$$oooooo------==XXXXXXXXXXXX****oooooo$$$$%%%%&&&&$$$$",
"####$$$$$$$$oooooo------==XXXXXXXXXXXX****oooooo$$$$%%%%&&&&$$$$",
"####$$$$$$oo--------------**----OO++++==********oo$$%%%%&&&&$$$$",
"####$$$$$$oo--------------**----OO++++==********oo$$%%%%&&&&$$$$",
"$$$$$$$$##oo------------**------OO++++==********oo##@@@@####$$$$",
"$$$$$$$$##oo------------**------OO++++==********oo##@@@@####$$$$",
"$$$$$$$$##oo----------**--------OO++++==********oo##@@@@####$$$$",
"$$$$$$$$##oo----------**--------OO++++==********oo##@@@@####$$$$",
"############oooooo****----------========oooooooo########$$$$$$$$",
"############oooooo****----------========oooooooo########$$$$$$$$",
"############$$$$&&oo------------======**oo##############$$$$$$$$",
"############$$$$&&oo------------======**oo##############$$$$$$$$",
"############$$$$%%oo----------======****oo##########%%%%$$$$$$$$",
"############$$$$%%oo----------======****oo##########%%%%$$$$$$$$",
"############$$$$%%oo--------oooo********oo##########%%%%$$$$$$$$",
"############$$$$%%oo--------oooo********oo##########%%%%$$$$$$$$",
"####@@@@########$$oo--------oooo******oo################%%%%####",
"####@@@@########$$oo--------oooo******oo################%%%%####",
"####@@@@########$$oo------oo##oo******oo################%%%%####",
"####@@@@########$$oo------oo##oo******oo################%%%%####",
"@@@@####$$$$####@@@@oooooooo$$$$oooooooo%%%%####@@@@############",
"@@@@####$$$$####@@@@oooooooo$$$$oooooooo%%%%####@@@@############",
"@@@@####$$$$####@@@@####$$$$$$$$$$$$%%%%%%%%####@@@@############",
"@@@@####$$$$####@@@@####$$$$$$$$$$$$%%%%%%%%####@@@@############"
};
