/* XPM */
static char * collectible_3_xpm[] = {
"64 64 16 1",
" 	c #D6EF63",
".	c #CEEF63",
"+	c #D6F763",
"@	c #E7F763",
"#	c #C6E763",
"$	c #4E4E4E",
"%	c #9597A1",
"&	c #73747B",
"*	c #7E7E7E",
"=	c #6D6F7D",
"-	c #C9C9C9",
";	c #97989C",
">	c #D0D0D0",
",	c #AEAFB6",
"'	c #DEDEDE",
")	c #93949E",
"            ................    ............    ++++++++@@@@@@@@",
"            ................    ............    ++++++++@@@@@@@@",
"            ................    ............    ++++++++@@@@@@@@",
"            ................    ............    ++++++++@@@@@@@@",
"@@@@@@@@    ####................        ++++++++        ++++++++",
"@@@@@@@@    ####................        ++++++++        ++++++++",
"@@@@@@@@    ####................        ++++++++        ++++++++",
"@@@@@@@@    ####................        ++++++++        ++++++++",
"    @@@@........        ++++    ++++@@@@++++....        ....@@@@",
"    @@@@........        ++++    ++++@@@@++++....        ....@@@@",
"    @@@@........        ++++    ++++@@@@++++....        ....@@@@",
"    @@@@........        ++++    ++++@@@@++++....        ....@@@@",
"++++            ....    @@@@        ++++    ........    ....++++",
"++++            ....    @@@@        ++++    ........    ....++++",
"++++            ....    @@@@        ++++    ........    ....++++",
"++++            ....    @@@@        ++++    ........    ....++++",
"                ....        ........            ....++++        ",
"                ....      $$$$$$$$$$$           ....++++        ",
"                ....     $$%%%$$$&&&$$*         ....++++        ",
"                ....    $$===$$&&---&;**        ....++++        ",
"    ++++    ............$%%%$$&----->>;**   ....####        @@@@",
"    ++++    ...........$$===$&---&&;>>>;$   ....####        @@@@",
"    ++++    ...........$%%%$$---&,,,;>>-$$  ....####        @@@@",
"    ++++    ..........$$===$&-&&,,,,,;&-&$  ....####        @@@@",
"....    ............  $%%%$$&-%,,,,,,%%-&$$.....####....        ",
"....    ............  $===$&-&,,,,,,%%%&-&$.....####....        ",
"....    ............  $%%%$--;,,'>%-%%%&--$.....####....        ",
"....    ............ $$===$->,,,'%'''%%%--*.....####....        ",
"............#########$%%%$*>>,,>-%--'%%%>>**............########",
"............#########$===*;>;,,'-%%%--%,;>;$............########",
"............#########$%%,*;>;,%-'%'%-%>,;>&$............########",
"............#########$=))*;>;%''%'%-%,>,&-&$............########",
"................#####$,,,*;-&%-''%%>;>'%&-&$....####....####....",
"................#####$)))*&-&%&&'&>;'''%&-;*....####....####....",
"................#####$,,,$&-&%&'';;;''&%&>;*....####....####....",
"................#####$))=$$--%&&>''&-&&%>>**....####....####....",
"........    ++++    .$*%%%$--%,;>>-&-&;,>>*.........    @@@@    ",
"........    ++++    ..$===$--;,,;--&-;,;>>*.........    @@@@    ",
"........    ++++    ..$%%%$&>;,,&&&&;,,;>;*.........    @@@@    ",
"........    ++++    ..$===$*;>%%%&;;,,,>;**.........    @@@@    ",
"....        @@@@++++..$$%,,*;-&&%,,,,;;>;*  ++++    ++++@@@@    ",
"....        @@@@++++...$)))*$---;,,,;>>>**  ++++    ++++@@@@    ",
"....        @@@@++++...**,,%$&>>>;;;>>>;*   ++++    ++++@@@@    ",
"....        @@@@++++....*===$*;>>>>>>>;**   ++++    ++++@@@@    ",
"        ....    @@@@@@@@$$%%,**;;>>>;;**....    ....####....    ",
"        ....    @@@@@@@@@$*)))***;;;***.....    ....####....    ",
"        ....    @@@@@@@@@@***********.......    ....####....    ",
"        ....    @@@@@@@@@@@@++++++++........    ....####....    ",
"............    @@@@@@@@++++++++++++....................        ",
"............    @@@@@@@@++++++++++++....................        ",
"............    @@@@@@@@++++++++++++....................        ",
"............    @@@@@@@@++++++++++++....................        ",
"............    ++++@@@@    ........    ............++++        ",
"............    ++++@@@@    ........    ............++++        ",
"............    ++++@@@@    ........    ............++++        ",
"............    ++++@@@@    ........    ............++++        ",
"....####........    ++++    ....        ................++++....",
"....####........    ++++    ....        ................++++....",
"....####........    ++++    ....        ................++++....",
"....####........    ++++    ....        ................++++....",
"####....    ....####....            ++++++++....####............",
"####....    ....####....            ++++++++....####............",
"####....    ....####....            ++++++++....####............",
"####....    ....####....            ++++++++....####............"};
