/* XPM */
static char * collectible_0_xpm[] = {
"64 64 21 1",
" 	c #D6EF63",
".	c #CEEF63",
"+	c #D6F763",
"@	c #E7F763",
"#	c #C6E763",
"$	c #4E4E4E",
"%	c #7E7E7E",
"&	c #73747B",
"*	c #97989C",
"=	c #B8B9BB",
"-	c #C9C9C9",
";	c #D0D0D0",
">	c #D6D6D6",
",	c #A4A4A8",
"'	c #D2D1D1",
")	c #AEAFB6",
"!	c #9597A1",
"~	c #DEDEDE",
"{	c #9B9B9B",
"]	c #ABACAF",
"^	c #D1D1D1",
"            ................    ............    ++++++++@@@@@@@@",
"            ................    ............    ++++++++@@@@@@@@",
"            ................    ............    ++++++++@@@@@@@@",
"            ................    ............    ++++++++@@@@@@@@",
"@@@@@@@@    ####................        ++++++++        ++++++++",
"@@@@@@@@    ####................        ++++++++        ++++++++",
"@@@@@@@@    ####................        ++++++++        ++++++++",
"@@@@@@@@    ####................        ++++++++        ++++++++",
"    @@@@........        ++++    ++++@@@@++++....        ....@@@@",
"    @@@@........        ++++    ++++@@@@++++....        ....@@@@",
"    @@@@........        ++++    ++++@@@@++++....        ....@@@@",
"    @@@@........        ++++    ++++@@@@++++....        ....@@@@",
"++++            ....    @@@@        ++++    ........    ....++++",
"++++            ....    @@@@        ++++    ........    ....++++",
"++++            ....    @@@@        ++++    ........    ....++++",
"++++            ....    @@@@        ++++    ........    ....++++",
"                ....        ........            ....++++        ",
"                ....      $$$$$$$%%%$$          ....++++        ",
"                ....     $$$$&&&*==%%%$         ....++++        ",
"                ....   $$$&&&--;;;>==,$$        ....++++        ",
"    ++++    ..........$$$&----;;;;;>'-&$$$  ....####        @@@@",
"    ++++    .........$$&&----*****&----&&$$ ....####        @@@@",
"    ++++    ........$$&----**))))!!&&----&%%....####        @@@@",
"    ++++    ........$&---&*)))))!!!!!&&-;;*%....####        @@@@",
"....    ...........$$&--&))))))!-~!!!!!*;;*$$...####....        ",
"....    ..........$$&--&))))))&&-~&!!!))*;-&$$..####....        ",
"....    ..........$&---*))))&~&~-~~&~)))&---&$..####....        ",
"....    ..........$&--*))))&~!~-!!-~)~)!!&--*{..####....        ",
"............#####$$&;;*)))&&------;;;~&!!&-;]{{.........########",
"............#####$&;;*)))!&&&&&&&****&&&!!*;^]{.........########",
"............#####$*;;*))!!&&&&&~;;;;&&&&))*;^]{.........########",
"............#####%*;;*)!!&&&&&~~;;---&&*))*;;]{.........########",
"................#%*;;&!!!&&&&~~))--!!&*)))*;;*{.####....####....",
"................#%*;-&!!&&&-*~)*&--&**))))*;;*%.####....####....",
"................#%*--&!!&&&;*~*~&--*;*))))*;;*%.####....####....",
"................#%$&--&!&&*~*~~~!-;);**))*;;*%%.####....####....",
"........    ++++  $&--&!****&~~~~;;;;**))*;;*%......    @@@@    ",
"........    ++++  $&---*)**&&~~~~~;;;**)*;;;*$......    @@@@    ",
"........    ++++  $$&-;*)*&&&&~~~**;***)*;;*$$......    @@@@    ",
"........    ++++   $$*;;&!!&***~~~~~*))*;;&$$.......    @@@@    ",
"....        @@@@++++%*;--&&))**))))))**;;-&$++++    ++++@@@@    ",
"....        @@@@++++%%&---;**))))))**;;;-&$$++++    ++++@@@@    ",
"....        @@@@++++.$$&*;;;;******;;;-&&$$ ++++    ++++@@@@    ",
"....        @@@@++++..$%%*;;;;;;;;;;;-&$$$  ++++    ++++@@@@    ",
"        ....    @@@@@@@%%%***;;;;;;*&&$$....    ....####....    ",
"        ....    @@@@@@@@@%%%%*****&$$$$.....    ....####....    ",
"        ....    @@@@@@@@@@%%%%%%%$$$$$......    ....####....    ",
"        ....    @@@@@@@@@@@@++++++++........    ....####....    ",
"............    @@@@@@@@++++++++++++....................        ",
"............    @@@@@@@@++++++++++++....................        ",
"............    @@@@@@@@++++++++++++....................        ",
"............    @@@@@@@@++++++++++++....................        ",
"............    ++++@@@@    ........    ............++++        ",
"............    ++++@@@@    ........    ............++++        ",
"............    ++++@@@@    ........    ............++++        ",
"............    ++++@@@@    ........    ............++++        ",
"....####........    ++++    ....        ................++++....",
"....####........    ++++    ....        ................++++....",
"....####........    ++++    ....        ................++++....",
"....####........    ++++    ....        ................++++....",
"####....    ....####....            ++++++++....####............",
"####....    ....####....            ++++++++....####............",
"####....    ....####....            ++++++++....####............",
"####....    ....####....            ++++++++....####............"};
