/* XPM */
static char * collectible_1_xpm[] = {
"64 64 23 1",
" 	c #D6EF63",
".	c #CEEF63",
"+	c #D6F763",
"@	c #E7F763",
"#	c #C6E763",
"$	c #4E4E4E",
"%	c #7E7E7E",
"&	c #9B9B9B",
"*	c #97989C",
"=	c #B8B9BB",
"-	c #9597A1",
";	c #73747B",
">	c #D0D0D0",
",	c #D6D6D6",
"'	c #919090",
")	c #6D6F7D",
"!	c #D2D1D1",
"~	c #C9C9C9",
"{	c #AEAFB6",
"]	c #93949E",
"^	c #DEDEDE",
"/	c #BABBC0",
"(	c #A9AAB0",
"            ................    ............    ++++++++@@@@@@@@",
"            ................    ............    ++++++++@@@@@@@@",
"            ................    ............    ++++++++@@@@@@@@",
"            ................    ............    ++++++++@@@@@@@@",
"@@@@@@@@    ####................        ++++++++        ++++++++",
"@@@@@@@@    ####................        ++++++++        ++++++++",
"@@@@@@@@    ####................        ++++++++        ++++++++",
"@@@@@@@@    ####................        ++++++++        ++++++++",
"    @@@@........        ++++    ++++@@@@++++....        ....@@@@",
"    @@@@........        ++++    ++++@@@@++++....        ....@@@@",
"    @@@@........        ++++    ++++@@@@++++....        ....@@@@",
"    @@@@........        ++++    ++++@@@@++++....        ....@@@@",
"++++            ....    @@@@        ++++    ........    ....++++",
"++++            ....    @@@@        ++++    ........    ....++++",
"++++            ....    @@@@        ++++    ........    ....++++",
"++++            ....    @@@@        ++++    ........    ....++++",
"                ....        ........            ....++++        ",
"                ....      $$$%%%%&&$$$          ....++++        ",
"                ....     $$$*==%%%---$$         ....++++        ",
"                ....    $$;*>>,=='$)))$$        ....++++        ",
"    ++++    ...........$$;>>>>>,!;$$---$%   ....####        @@@@",
"    ++++    ...........$;>>>**;~~~;$)))%%   ....####        @@@@",
"    ++++    ..........$%>>>*{--;~~~$$-{{%$  ....####        @@@@",
"    ++++    ..........%*>**{----;;~;%]]]$$  ....####        @@@@",
"....    ............ %%*>{{---^---~*%%{--$$.....####....        ",
"....    ............ %*>*{--;;^---*>*%)))$$.....####....        ",
"....    ............ %>>;--;;^^;-{*>~$---$$.....####....        ",
"....    ............ %>~---^^~-^^{{~~$))]&&.....####....        ",
"............########%%~~--;~~~>>^*-~~$${//&%............########",
"............########%;~;--;;;****;-;~;%]((&$............########",
"............########$;~;--;;*^>>;;-;>*%{//&$............########",
"............########$;~;-;;*^^~~;;-*>*%]](&$............########",
"................####$;~;-***^-~-;;{*>*%{{{&$....####....####....",
"................####$;~;{***-;~;*{{*>*%]]]%%....####....####....",
"................####$;~*{**;;^~**{{*>*%{{{%%....####....####....",
"................####$$>>{;;;^^>{**{>>%%]]]%%....####....####....",
"........    ++++    .%>>-;;;^^>>**{>>%{{{%$.........    @@@@    ",
"........    ++++    .%>~;;;*^^^>***>>%]]]$%.........    @@@@    ",
"........    ++++    .%;~;;**^^*>***>*%{{-$%.........    @@@@    ",
"........    ++++    .$$;>{{**^^^{{>*%%)))$%.........    @@@@    ",
"....        @@@@++++..$*>**{*{{{**>*%---$$  ++++    ++++@@@@    ",
"....        @@@@++++..%%>>>*{{{*>>>%$)))$%  ++++    ++++@@@@    ",
"....        @@@@++++...%*>>>***>>>;$---$$   ++++    ++++@@@@    ",
"....        @@@@++++...%%*>>>>>>>;$$)))$%   ++++    ++++@@@@    ",
"        ....    @@@@@@@@%%**>>>*;$$---$$....    ....####....    ",
"        ....    @@@@@@@@@%%%**;$$$)))$$.....    ....####....    ",
"        ....    @@@@@@@@@@%%%$$$$$$$$$......    ....####....    ",
"        ....    @@@@@@@@@@@@++++++++........    ....####....    ",
"............    @@@@@@@@++++++++++++....................        ",
"............    @@@@@@@@++++++++++++....................        ",
"............    @@@@@@@@++++++++++++....................        ",
"............    @@@@@@@@++++++++++++....................        ",
"............    ++++@@@@    ........    ............++++        ",
"............    ++++@@@@    ........    ............++++        ",
"............    ++++@@@@    ........    ............++++        ",
"............    ++++@@@@    ........    ............++++        ",
"....####........    ++++    ....        ................++++....",
"....####........    ++++    ....        ................++++....",
"....####........    ++++    ....        ................++++....",
"....####........    ++++    ....        ................++++....",
"####....    ....####....            ++++++++....####............",
"####....    ....####....            ++++++++....####............",
"####....    ....####....            ++++++++....####............",
"####....    ....####....            ++++++++....####............"};
