/* XPM */
static char * collectible_1_xpm[] = {
"64 64 22 1",
" 	c #D6EF63",
".	c #CEEF63",
"+	c #D6F763",
"@	c #E7F763",
"#	c #C6E763",
"$	c #170625",
"%	c #D08B0F",
"&	c #A26B0E",
"*	c #9E3C0E",
"=	c #C1A714",
"-	c #DCBB14",
";	c #B6D259",
">	c #EAFC1B",
",	c #FE493B",
"'	c #BC0613",
")	c #99080E",
"!	c #DF1526",
"~	c #FF7F83",
"{	c #FF5863",
"]	c #AECB59",
"^	c #BDDA59",
"/	c #BDD259",
"            ................    ............    ++++++++@@@@@@@@",
"            ................    ............    ++++++++@@@@@@@@",
"            ................    ............    ++++++++@@@@@@@@",
"            ................    ............    ++++++++@@@@@@@@",
"@@@@@@@@    ####................        ++++++++        ++++++++",
"@@@@@@@@    ####................        ++++++++        ++++++++",
"@@@@@@@@    ####................        ++++++++        ++++++++",
"@@@@@@@@    ####................        ++++++++        ++++++++",
"    @@@@........        ++++    ++++@@@@++++....        ....@@@@",
"    @@@@........        ++++    ++++@@@@++++....        ....@@@@",
"    @@@@........        ++++    ++++@@@@++++....        ....@@@@",
"    @@@@........        ++++    ++++@@@@++++....        ....@@@@",
"++++            ....    @@@@        ++++    ........    ....++++",
"++++            ....    @@@@        ++++    ........    ....++++",
"++++            ....    @@@@        ++++    ........    ....++++",
"++++            ....    $$@@  $$    ++++    ........    ....++++",
"                ....    $$  ..$$....            ....++++        ",
"                ....  $$%%$$$$&&$$..            ....++++        ",
"                ....  $$%%$$$$&&$$..            ....++++        ",
"                ....$$&&$$  $$%%$$..    $$      ....++++        ",
"    ++++    ........$$&&$$..$$%%$$......$$  ....####        @@@@",
"    ++++    ........$$**==$$$$--&&$$;;$$==$$....####        @@@@",
"    ++++    ........$$**==$$$$--&&$$;;$$==$$....####        @@@@",
"    ++++    ........$$****--$$>>&&**$$--**$$....####        @@@@",
"....    ............$$****--$$>>&&**$$--**$$....####....        ",
"....    ..........$$  $$**>>**,,%%&&''%%$$;;....####....        ",
"....    ..........$$  $$**>>**,,%%&&''%%$$;;....####....        ",
"....    ........$$%%$$$$))&&--))!!,,!!&&))$$....####....        ",
"............####$$%%$$$$))&&--))!!,,!!&&))$$............########",
"............######$$&&**))**&&~~,,!!--))''))$$..........########",
"............######$$&&**))**&&~~,,!!--))''))$$..........########",
"............########$$**$$))!!,,{{,,>>%%**''))$$........########",
"................####$$**$$))!!,,{{,,>>%%**''))$$####....####....",
"................####]]$$))&&--&&,,!!%%&&{{!!''$$####....####....",
"................####]]$$))&&--&&,,!!%%&&{{!!''$$####....####....",
"................##$$$$****!!))>>&&!!&&~~,,!!''$$####....####....",
"........    ++++  $$$$****!!))>>&&!!&&~~,,!!''$$....    @@@@    ",
"........    ++++$$&&>>--&&**!!&&**))''''!!,,''$$....    @@@@    ",
"........    ++++$$&&>>--&&**!!&&**))''''!!,,''$$....    @@@@    ",
"........    ++++$$--$$$$$$$$))**''~~{{,,''!!))$$....    @@@@    ",
"....        @@@@$$--$$$$$$$$))**''~~{{,,''!!))$$    ++++@@@@    ",
"....        @@@@++$$..;;$$%%&&)){{**))!!!!''$$++    ++++@@@@    ",
"....        @@@@++$$..;;$$%%&&)){{**))!!!!''$$++    ++++@@@@    ",
"....        @@@@++++..$$--$$$$==&&))''''))$$^^++    ++++@@@@    ",
"        ....    @@@@@@$$--$$$$==&&))''''))$$//  ....####....    ",
"        ....    @@@@@@@@$$@@^^$$$$$$$$$$$$;;    ....####....    ",
"        ....    @@@@@@@@$$@@^^$$$$$$$$$$$$;;    ....####....    ",
"        ....    @@@@@@@@@@@@++++++++........    ....####....    ",
"............    @@@@@@@@++++++++++++....................        ",
"............    @@@@@@@@++++++++++++....................        ",
"............    @@@@@@@@++++++++++++....................        ",
"............    @@@@@@@@++++++++++++....................        ",
"............    ++++@@@@    ........    ............++++        ",
"............    ++++@@@@    ........    ............++++        ",
"............    ++++@@@@    ........    ............++++        ",
"............    ++++@@@@    ........    ............++++        ",
"....####........    ++++    ....        ................++++....",
"....####........    ++++    ....        ................++++....",
"....####........    ++++    ....        ................++++....",
"....####........    ++++    ....        ................++++....",
"####....    ....####....            ++++++++....####............",
"####....    ....####....            ++++++++....####............",
"####....    ....####....            ++++++++....####............",
"####....    ....####....            ++++++++....####............"};
