/* XPM */
static char *portalRings2_1[] = {
/* columns rows colors chars-per-pixel */
"64 64 13 1 ",
"  c #584B44",
". c #6D6666",
"X c #1B945F",
"o c #35A948",
"O c #0C896D",
"+ c #C6E763",
"@ c #CEEF63",
"# c #D6EF63",
"$ c #D6F763",
"% c #E7F763",
"& c #8B8484",
"* c #BAB0B0",
"= c #9EDF8A",
/* pixels */
"############@@@@@@@@@@@@@@@@##******@@@@@@@@####$$$$$$$$%%%%%%%%",
"############@@@@@@@@@@@@@@@@##******@@@@@@@@####$$$$$$$$%%%%%%%%",
"############@@@@@@@@&&&&**    &&&&&&**    @@####$$$$$$$$%%%%%%%%",
"############@@@@@@@@&&&&**    &&&&&&**    @@####$$$$$$$$%%%%%%%%",
"%%%%%%%%####++**  &&&&&&**    &&&&&&**  &&&&**  ########$$$$$$$$",
"%%%%%%%%####++**  &&&&&&**    &&&&&&**  &&&&**  ########$$$$$$$$",
"%%%%%%%%##  &&&&**  ..&&&&**  &&&&&&    &&&&**    &&####$$$$$$$$",
"%%%%%%%%##  &&&&**  ..&&&&**  &&&&&&    &&&&**    &&####$$$$$$$$",
"####%%%%    ..&&&&    ..&&**  ......  &&&&**    &&&&**##@@@@%%%%",
"####%%%%    ..&&&&    ..&&**  ......  &&&&**    &&&&**##@@@@%%%%",
"####%%&&**    ..&&**    ..==========..&&**  &&&&&&&&**  @@@@%%%%",
"####%%&&**    ..&&**    ..==========..&&**  &&&&&&&&**  @@@@%%%%",
"$$$$  &&&&&&**  &&&&====oooooooooooooo====  ..&&****  &&**@@$$$$",
"$$$$  &&&&&&**  &&&&====oooooooooooooo====  ..&&****  &&**@@$$$$",
"$$$$  ....&&**====ooooooXXXXXXXXXXXXXXoooooo==**    &&&&&&**$$$$",
"$$$$  ....&&**====ooooooXXXXXXXXXXXXXXoooooo==**    &&&&&&**$$$$",
"##        ..  ooooXXXXXXooooooooooooooXXXXXXoooo==..&&&&&&  ####",
"##        ..  ooooXXXXXXooooooooooooooXXXXXXoooo==..&&&&&&  ####",
"##    &&**  ooooXXXXoooo==============ooooXXXXoooo..&&&&    ####",
"##    &&**  ooooXXXXoooo==============ooooXXXXoooo..&&&&    ####",
"##  ..&&&&**XXXXoooo====oooooooooooooo====ooooXXXXoo..    &&**%%",
"##  ..&&&&**XXXXoooo====oooooooooooooo====ooooXXXXoo..    &&**%%",
"##  ....&&&&XXoooo==ooooXXXXXXXXXXXXXXoooo==ooooXXXX  &&&&&&**%%",
"##  ....&&&&XXoooo==ooooXXXXXXXXXXXXXXoooo==ooooXXXX  &&&&&&**%%",
"&&&&        oo====ooXXXXXXXXXXXXXXXXXXXXXXoo====ooXX..&&&&&&  ##",
"&&&&        oo====ooXXXXXXXXXXXXXXXXXXXXXXoo====ooXX..&&&&&&  ##",
"..&&&&    oooo==ooXXXXXXXXooooooooooXXXXXXXXoo==ooooXX..    ****",
"..&&&&    oooo==ooXXXXXXXXooooooooooXXXXXXXXoo==ooooXX..    ****",
"  ..&&****oo==ooXXOOXXoooo==========ooooXXOOXXoo==ooXX  &&&&&&**",
"  ..&&****oo==ooXXOOXXoooo==========ooooXXOOXXoo==ooXX  &&&&&&**",
"    ..&&**==ooXXXXXXoooo==oooooooooo==ooooXXXXXXoo==oo..&&&&&&  ",
"    ..&&**==ooXXXXXXoooo==oooooooooo==ooooXXXXXXoo==oo..&&&&&&  ",
"          ==ooXXXXoooo==ooXXXXXXXXXXoo==ooooXXXXoo==oo..&&&&    ",
"          ==ooXXXXoooo==ooXXXXXXXXXXoo==ooooXXXXoo==oo..&&&&    ",
"..&&&&**  ooXXXXXXoo==ooXXXXXXXXXXXXXXoo==ooXXXXXXoo==      ****",
"..&&&&**  ooXXXXXXoo==ooXXXXXXXXXXXXXXoo==ooXXXXXXoo==      ****",
"  &&&&&&**ooXXXXoo==ooXXXXXXooooooXXXXXXoo==ooXXXXoo==..&&&&&&**",
"  &&&&&&**ooXXXXoo==ooXXXXXXooooooXXXXXXoo==ooXXXXoo==..&&&&&&**",
"  ..&&&&**ooXXXXoo==ooXXXXoooo==ooooXXXXoo==ooXXXXoo==..&&&&&&**",
"  ..&&&&**ooXXXXoo==ooXXXXoooo==ooooXXXXoo==ooXXXXoo==..&&&&&&**",
"  ..  ..  ooXXXXoo==ooXXXXoo==oo==ooXXXXoo==ooXXXXoo==  ....    ",
"  ..  ..  ooXXXXoo==ooXXXXoo==oo==ooXXXXoo==ooXXXXoo==  ....    ",
"          ooXXXXoo==ooXXXXoooo==ooooXXXXoo==ooXXXXoo==&&    ****",
"          ooXXXXoo==ooXXXXoooo==ooooXXXXoo==ooXXXXoo==&&    ****",
"&&&&****  ooXXXXoo==ooXXXXXXooooooXXXXXXoo==ooXXXXoo==&&&&&&&&**",
"&&&&****  ooXXXXoo==ooXXXXXXooooooXXXXXXoo==ooXXXXoo==&&&&&&&&**",
"..&&&&&&**ooXXXXXXoo==ooXXXXXXXXXXXXXXoo==ooXXXXXXoo==....&&    ",
"..&&&&&&**ooXXXXXXoo==ooXXXXXXXXXXXXXXoo==ooXXXXXXoo==....&&    ",
"....&&    ==ooXXXXoooo==ooXXXXXXXXXXoo==ooooXXXXoo==oo        **",
"....&&    ==ooXXXXoooo==ooXXXXXXXXXXoo==ooooXXXXoo==oo        **",
"  ..      ==ooXXXXXXoooo==oooooooooo==ooooXXXXXXoo==oo&&&&**    ",
"  ..      ==ooXXXXXXoooo==oooooooooo==ooooXXXXXXoo==oo&&&&**    ",
"      ****oo==ooXXOOXXoooo==========ooooXXOOXXoo==ooXX&&&&&&**  ",
"      ****oo==ooXXOOXXoooo==========ooooXXOOXXoo==ooXX&&&&&&**  ",
"  &&&&&&**oooo==ooXXXXXXXXooooooooooXXXXXXXXoo==ooooXX..&&&&&&**",
"  &&&&&&**oooo==ooXXXXXXXXooooooooooXXXXXXXXoo==ooooXX..&&&&&&**",
"  &&&&&&&&XXoo====ooXXXXXXXXXXXXXXXXXXXXXXoo====ooXXXX  ..&&    ",
"  &&&&&&&&XXoo====ooXXXXXXXXXXXXXXXXXXXXXXoo====ooXXXX  ..&&    ",
"          XXXXoooo==ooooXXXXXXXXXXXXXXoooo==ooooXXXXoo      ****",
"          XXXXoooo==ooooXXXXXXXXXXXXXXoooo==ooooXXXXoo      ****",
"&&&&&&**  XXXXXXoooo====oooooooooooooo====ooooXXXXXXoo..&&&&&&**",
"&&&&&&**  XXXXXXoooo====oooooooooooooo====ooooXXXXXXoo..&&&&&&**",
"....&&&&  ooXXXXXXXXoooo==============ooooXXXXXXXXoo==  ..&&&&  ",
"....&&&&  ooXXXXXXXXoooo==============ooooXXXXXXXXoo==  ..&&&&  "
};
