/* XPM */
static char *portalRings2_2[] = {
/* columns rows colors chars-per-pixel */
"64 64 13 1 ",
"  c #584B44",
". c #6D6666",
"X c #1B945F",
"o c #35A948",
"O c #0C896D",
"+ c #C6E763",
"@ c #CEEF63",
"# c #D6EF63",
"$ c #D6F763",
"% c #E7F763",
"& c #8B8484",
"* c #BAB0B0",
"= c #9EDF8A",
/* pixels */
"############@@@@@@@@@@@@@@@@##******@@@@@@@@####$$$$$$$$%%%%%%%%",
"############@@@@@@@@@@@@@@@@##******@@@@@@@@####$$$$$$$$%%%%%%%%",
"############@@@@@@@@&&&&**    &&&&&&**    @@####$$$$$$$$%%%%%%%%",
"############@@@@@@@@&&&&**    &&&&&&**    @@####$$$$$$$$%%%%%%%%",
"%%%%%%%%####++**  &&&&&&**    &&&&&&**  &&&&**  ########$$$$$$$$",
"%%%%%%%%####++**  &&&&&&**    &&&&&&**  &&&&**  ########$$$$$$$$",
"%%%%%%%%##  &&&&**  ..&&&&**  &&&&&&    &&&&**    &&####$$$$$$$$",
"%%%%%%%%##  &&&&**  ..&&&&**  &&&&&&    &&&&**    &&####$$$$$$$$",
"####%%%%    ..&&&&    ..&&**  ......  &&&&**    &&&&**##@@@@%%%%",
"####%%%%    ..&&&&    ..&&**  ......  &&&&**    &&&&**##@@@@%%%%",
"####%%&&**    ..&&**    ..oooooooooo..&&**  &&&&&&&&**  @@@@%%%%",
"####%%&&**    ..&&**    ..oooooooooo..&&**  &&&&&&&&**  @@@@%%%%",
"$$$$  &&&&&&**  &&&&ooooXXXXXXXXXXXXXXoooo  ..&&****  &&**@@$$$$",
"$$$$  &&&&&&**  &&&&ooooXXXXXXXXXXXXXXoooo  ..&&****  &&**@@$$$$",
"$$$$  ....&&**ooooXXXXXXooooooooooooooXXXXXXoo**    &&&&&&**$$$$",
"$$$$  ....&&**ooooXXXXXXooooooooooooooXXXXXXoo**    &&&&&&**$$$$",
"##        ..  XXXXoooooo==============ooooooXXXXoo..&&&&&&  ####",
"##        ..  XXXXoooooo==============ooooooXXXXoo..&&&&&&  ####",
"##    &&**  XXXXoooo====oooooooooooooo====ooooXXXX..&&&&    ####",
"##    &&**  XXXXoooo====oooooooooooooo====ooooXXXX..&&&&    ####",
"##  ..&&&&**XXoo====ooooXXXXXXXXXXXXXXoooo====ooXXXX..    &&**%%",
"##  ..&&&&**XXoo====ooooXXXXXXXXXXXXXXoooo====ooXXXX..    &&**%%",
"##  ....&&&&oo==ooooXXXXOOXXXXXXXXXXOOXXXXoooo==ooXX  &&&&&&**%%",
"##  ....&&&&oo==ooooXXXXOOXXXXXXXXXXOOXXXXoooo==ooXX  &&&&&&**%%",
"&&&&        ==ooooXXOOXXXXooooooooooXXXXOOXXoooo==oo..&&&&&&  ##",
"&&&&        ==ooooXXOOXXXXooooooooooXXXXOOXXoooo==oo..&&&&&&  ##",
"..&&&&    ==ooooXXXXXXoooo==========ooooXXXXXXoooo==oo..    ****",
"..&&&&    ==ooooXXXXXXoooo==========ooooXXXXXXoooo==oo..    ****",
"  ..&&****==ooXXXXoooo====oooooooooo====ooooXXXXoo==oo  &&&&&&**",
"  ..&&****==ooXXXXoooo====oooooooooo====ooooXXXXoo==oo  &&&&&&**",
"    ..&&**ooXXOOXXoo==ooooXXXXXXXXXXoooo==ooXXOOXXoo==..&&&&&&  ",
"    ..&&**ooXXOOXXoo==ooooXXXXXXXXXXoooo==ooXXOOXXoo==..&&&&&&  ",
"          ooXXXXoo==ooooXXOOXXXXXXOOXXoooo==ooXXXXoo==..&&&&    ",
"          ooXXXXoo==ooooXXOOXXXXXXOOXXoooo==ooXXXXoo==..&&&&    ",
"..&&&&**  XXOOXXoo==ooXXXXXXooooooXXXXXXoo==ooXXOOXXoo      ****",
"..&&&&**  XXOOXXoo==ooXXXXXXooooooXXXXXXoo==ooXXOOXXoo      ****",
"  &&&&&&**XXXXoo==ooXXOOXXoo======ooXXOOXXoo==ooXXXXoo..&&&&&&**",
"  &&&&&&**XXXXoo==ooXXOOXXoo======ooXXOOXXoo==ooXXXXoo..&&&&&&**",
"  ..&&&&**XXXXoo==ooXXXXoo==oooooo==ooXXXXoo==ooXXXXoo..&&&&&&**",
"  ..&&&&**XXXXoo==ooXXXXoo==oooooo==ooXXXXoo==ooXXXXoo..&&&&&&**",
"  ..  ..  XXXXoo==ooXXXXoo==oooooo==ooXXXXoo==ooXXXXoo  ....    ",
"  ..  ..  XXXXoo==ooXXXXoo==oooooo==ooXXXXoo==ooXXXXoo  ....    ",
"          XXXXoo==ooXXXXoo==oooooo==ooXXXXoo==ooXXXXoo&&    ****",
"          XXXXoo==ooXXXXoo==oooooo==ooXXXXoo==ooXXXXoo&&    ****",
"&&&&****  XXXXoo==ooXXOOXXoo======ooXXOOXXoo==ooXXXXoo&&&&&&&&**",
"&&&&****  XXXXoo==ooXXOOXXoo======ooXXOOXXoo==ooXXXXoo&&&&&&&&**",
"..&&&&&&**XXOOXXoo==ooXXXXXXooooooXXXXXXoo==ooXXOOXXoo....&&    ",
"..&&&&&&**XXOOXXoo==ooXXXXXXooooooXXXXXXoo==ooXXOOXXoo....&&    ",
"....&&    ooXXXXoo==ooooXXOOXXXXXXOOXXoooo==ooXXXXoo==        **",
"....&&    ooXXXXoo==ooooXXOOXXXXXXOOXXoooo==ooXXXXoo==        **",
"  ..      ooXXOOXXoo==ooooXXXXXXXXXXoooo==ooXXOOXXoo==&&&&**    ",
"  ..      ooXXOOXXoo==ooooXXXXXXXXXXoooo==ooXXOOXXoo==&&&&**    ",
"      ****==ooXXXXoooo====oooooooooo====ooooXXXXoo==oo&&&&&&**  ",
"      ****==ooXXXXoooo====oooooooooo====ooooXXXXoo==oo&&&&&&**  ",
"  &&&&&&**==ooooXXXXXXoooo==========ooooXXXXXXoooo==oo..&&&&&&**",
"  &&&&&&**==ooooXXXXXXoooo==========ooooXXXXXXoooo==oo..&&&&&&**",
"  &&&&&&&&oo==ooooXXOOXXXXooooooooooXXXXOOXXoooo==ooXX  ..&&    ",
"  &&&&&&&&oo==ooooXXOOXXXXooooooooooXXXXOOXXoooo==ooXX  ..&&    ",
"          XXoo==ooooXXXXOOXXXXXXXXXXOOXXXXoooo==ooXXXX      ****",
"          XXoo==ooooXXXXOOXXXXXXXXXXOOXXXXoooo==ooXXXX      ****",
"&&&&&&**  XXXXoo====ooooXXXXXXXXXXXXXXoooo====ooXXXXoo..&&&&&&**",
"&&&&&&**  XXXXoo====ooooXXXXXXXXXXXXXXoooo====ooXXXXoo..&&&&&&**",
"....&&&&  ooXXXXoooo====oooooooooooooo====ooooXXXXoooo  ..&&&&  ",
"....&&&&  ooXXXXoooo====oooooooooooooo====ooooXXXXoooo  ..&&&&  "
};
