/* XPM */
static char *portalRings2_0[] = {
/* columns rows colors chars-per-pixel */
"64 64 13 1 ",
"  c #584B44",
". c #6D6666",
"X c #1B945F",
"o c #35A948",
"O c #0C896D",
"+ c #C6E763",
"@ c #CEEF63",
"# c #D6EF63",
"$ c #D6F763",
"% c #E7F763",
"& c #8B8484",
"* c #BAB0B0",
"= c #9EDF8A",
/* pixels */
"############@@@@@@@@@@@@@@@@##******@@@@@@@@####$$$$$$$$%%%%%%%%",
"############@@@@@@@@@@@@@@@@##******@@@@@@@@####$$$$$$$$%%%%%%%%",
"############@@@@@@@@&&&&**    &&&&&&**    @@####$$$$$$$$%%%%%%%%",
"############@@@@@@@@&&&&**    &&&&&&**    @@####$$$$$$$$%%%%%%%%",
"%%%%%%%%####++**  &&&&&&**    &&&&&&**  &&&&**  ########$$$$$$$$",
"%%%%%%%%####++**  &&&&&&**    &&&&&&**  &&&&**  ########$$$$$$$$",
"%%%%%%%%##  &&&&**  ..&&&&**  &&&&&&    &&&&**    &&####$$$$$$$$",
"%%%%%%%%##  &&&&**  ..&&&&**  &&&&&&    &&&&**    &&####$$$$$$$$",
"####%%%%    ..&&&&    ..&&**  ......  &&&&**    &&&&**##@@@@%%%%",
"####%%%%    ..&&&&    ..&&**  ......  &&&&**    &&&&**##@@@@%%%%",
"####%%&&**    ..&&**    ..oooooooooo..&&**  &&&&&&&&**  @@@@%%%%",
"####%%&&**    ..&&**    ..oooooooooo..&&**  &&&&&&&&**  @@@@%%%%",
"$$$$  &&&&&&**  &&&&oooo==============oooo  ..&&****  &&**@@$$$$",
"$$$$  &&&&&&**  &&&&oooo==============oooo  ..&&****  &&**@@$$$$",
"$$$$  ....&&**oooo======oooooooooooooo======oo**    &&&&&&**$$$$",
"$$$$  ....&&**oooo======oooooooooooooo======oo**    &&&&&&**$$$$",
"##        ..  oo==ooooooXXXXXXXXXXXXXXoooooo==oooo..&&&&&&  ####",
"##        ..  oo==ooooooXXXXXXXXXXXXXXoooooo==oooo..&&&&&&  ####",
"##    &&**  ====ooXXXXXXooooooooooooooXXXXXXoo====..&&&&    ####",
"##    &&**  ====ooXXXXXXooooooooooooooXXXXXXoo====..&&&&    ####",
"##  ..&&&&**ooooXXXXoooo==============ooooXXXXoooo==..    &&**%%",
"##  ..&&&&**ooooXXXXoooo==============ooooXXXXoooo==..    &&**%%",
"##  ....&&&&ooXXXXoo====oooooooooooooo====ooXXXXoooo  &&&&&&**%%",
"##  ....&&&&ooXXXXoo====oooooooooooooo====ooXXXXoooo  &&&&&&**%%",
"&&&&        XXoooo==ooooooXXXXXXXXXXoooooo==ooooXXoo..&&&&&&  ##",
"&&&&        XXoooo==ooooooXXXXXXXXXXoooooo==ooooXXoo..&&&&&&  ##",
"..&&&&    XXXXoo==ooooXXXXXXXXXXXXXXXXXXoooo==ooXXXXoo..    ****",
"..&&&&    XXXXoo==ooooXXXXXXXXXXXXXXXXXXoooo==ooXXXXoo..    ****",
"  ..&&****XXoo==ooXXXXXXXXooooooooooXXXXXXXXoo==ooXXXX  &&&&&&**",
"  ..&&****XXoo==ooXXXXXXXXooooooooooXXXXXXXXoo==ooXXXX  &&&&&&**",
"    ..&&**oo==ooooXXXXXXoo==========ooXXXXXXoooo==ooXX..&&&&&&  ",
"    ..&&**oo==ooooXXXXXXoo==========ooXXXXXXoooo==ooXX..&&&&&&  ",
"          oo==ooXXXXXXoo==oooooooooo==ooXXXXXXoo==ooXX..&&&&    ",
"          oo==ooXXXXXXoo==oooooooooo==ooXXXXXXoo==ooXX..&&&&    ",
"..&&&&**  ==ooooXXXXoo==ooooXXXXXXoooo==ooXXXXoooo==oo      ****",
"..&&&&**  ==ooooXXXXoo==ooooXXXXXXoooo==ooXXXXoooo==oo      ****",
"  &&&&&&**==ooXXXXoo==ooooXXOOXXOOXXoooo==ooXXXXoo==oo..&&&&&&**",
"  &&&&&&**==ooXXXXoo==ooooXXOOXXOOXXoooo==ooXXXXoo==oo..&&&&&&**",
"  ..&&&&**==ooXXXXoo==ooXXOOXXooXXOOXXoo==ooXXXXoo==oo..&&&&&&**",
"  ..&&&&**==ooXXXXoo==ooXXOOXXooXXOOXXoo==ooXXXXoo==oo..&&&&&&**",
"  ..  ..  ==ooXXXXoo==ooXXXXoo==ooXXXXoo==ooXXXXoo==oo  ....    ",
"  ..  ..  ==ooXXXXoo==ooXXXXoo==ooXXXXoo==ooXXXXoo==oo  ....    ",
"          ==ooXXXXoo==ooXXOOXXooXXOOXXoo==ooXXXXoo==oo&&    ****",
"          ==ooXXXXoo==ooXXOOXXooXXOOXXoo==ooXXXXoo==oo&&    ****",
"&&&&****  ==ooXXXXoo==ooooXXOOXXOOXXoooo==ooXXXXoo==oo&&&&&&&&**",
"&&&&****  ==ooXXXXoo==ooooXXOOXXOOXXoooo==ooXXXXoo==oo&&&&&&&&**",
"..&&&&&&**==ooooXXXXoo==ooooXXXXXXoooo==ooXXXXoooo==oo....&&    ",
"..&&&&&&**==ooooXXXXoo==ooooXXXXXXoooo==ooXXXXoooo==oo....&&    ",
"....&&    oo==ooXXXXXXoo==oooooooooo==ooXXXXXXoo==ooXX        **",
"....&&    oo==ooXXXXXXoo==oooooooooo==ooXXXXXXoo==ooXX        **",
"  ..      oo==ooooXXXXXXoo==========ooXXXXXXoooo==ooXX&&&&**    ",
"  ..      oo==ooooXXXXXXoo==========ooXXXXXXoooo==ooXX&&&&**    ",
"      ****XXoo==ooXXXXXXXXooooooooooXXXXXXXXoo==ooXXXX&&&&&&**  ",
"      ****XXoo==ooXXXXXXXXooooooooooXXXXXXXXoo==ooXXXX&&&&&&**  ",
"  &&&&&&**XXXXoo==ooooXXXXXXXXXXXXXXXXXXoooo==ooXXXXoo..&&&&&&**",
"  &&&&&&**XXXXoo==ooooXXXXXXXXXXXXXXXXXXoooo==ooXXXXoo..&&&&&&**",
"  &&&&&&&&ooXXoooo==ooooooXXXXXXXXXXoooooo==ooooXXoo==  ..&&    ",
"  &&&&&&&&ooXXoooo==ooooooXXXXXXXXXXoooooo==ooooXXoo==  ..&&    ",
"          ooooXXXXoo====oooooooooooooo====ooXXXXoooo==      ****",
"          ooooXXXXoo====oooooooooooooo====ooXXXXoooo==      ****",
"&&&&&&**  ==ooooXXXXoooo==============ooooXXXXoooo==oo..&&&&&&**",
"&&&&&&**  ==ooooXXXXoooo==============ooooXXXXoooo==oo..&&&&&&**",
"....&&&&  oo====ooXXXXXXooooooooooooooXXXXXXoo====ooXX  ..&&&&  ",
"....&&&&  oo====ooXXXXXXooooooooooooooXXXXXXoo====ooXX  ..&&&&  "
};
