/* XPM */
static char * wasteland_terrain_01_xpm[] = {
"32 32 379 2",
"  	c #605945",
". 	c #6D644C",
"+ 	c #716851",
"@ 	c #6F6650",
"# 	c #8B8166",
"$ 	c #8D8368",
"% 	c #80775E",
"& 	c #696149",
"* 	c #5A5340",
"= 	c #675E4A",
"- 	c #67624B",
"; 	c #69644F",
"> 	c #645E4A",
", 	c #666049",
"' 	c #6C6650",
") 	c #646148",
"! 	c #58533E",
"~ 	c #5B533D",
"{ 	c #504734",
"] 	c #514834",
"^ 	c #5E5944",
"/ 	c #575039",
"( 	c #635C44",
"_ 	c #625840",
": 	c #5C543C",
"< 	c #675E46",
"[ 	c #6F654F",
"} 	c #6A614B",
"| 	c #625943",
"1 	c #574F39",
"2 	c #57523B",
"3 	c #5A533E",
"4 	c #66604B",
"5 	c #635B45",
"6 	c #6C644D",
"7 	c #7D755B",
"8 	c #82785F",
"9 	c #7E755B",
"0 	c #6B624C",
"a 	c #605943",
"b 	c #666047",
"c 	c #6C6551",
"d 	c #6D6450",
"e 	c #67604B",
"f 	c #6C6553",
"g 	c #5E5743",
"h 	c #625D47",
"i 	c #656449",
"j 	c #514A34",
"k 	c #5E5740",
"l 	c #534B35",
"m 	c #635B42",
"n 	c #69604A",
"o 	c #665D47",
"p 	c #5E553F",
"q 	c #504732",
"r 	c #5A543D",
"s 	c #605842",
"t 	c #524A36",
"u 	c #5A523D",
"v 	c #534C38",
"w 	c #5B5441",
"x 	c #736A54",
"y 	c #625941",
"z 	c #504631",
"A 	c #4A432D",
"B 	c #676249",
"C 	c #706950",
"D 	c #7E755D",
"E 	c #756D57",
"F 	c #6D6851",
"G 	c #645B45",
"H 	c #564E38",
"I 	c #58533A",
"J 	c #5A523B",
"K 	c #696048",
"L 	c #6E654D",
"M 	c #696049",
"N 	c #5F5741",
"O 	c #605944",
"P 	c #665E48",
"Q 	c #675E48",
"R 	c #59523D",
"S 	c #5E573F",
"T 	c #6C644C",
"U 	c #6F6851",
"V 	c #524835",
"W 	c #594F3A",
"X 	c #635B46",
"Y 	c #6A654F",
"Z 	c #686048",
"` 	c #766E55",
" .	c #625944",
"..	c #898066",
"+.	c #857B62",
"@.	c #7F765D",
"#.	c #69624B",
"$.	c #5D5841",
"%.	c #625B44",
"&.	c #605740",
"*.	c #635B44",
"=.	c #8C8368",
"-.	c #7B725A",
";.	c #766F55",
">.	c #6D654F",
",.	c #605741",
"'.	c #625B43",
").	c #6F664E",
"!.	c #746E55",
"~.	c #736B55",
"{.	c #867C63",
"].	c #7A7259",
"^.	c #6C654D",
"/.	c #655C47",
"(.	c #645C45",
"_.	c #69614B",
":.	c #6F6951",
"<.	c #786F56",
"[.	c #726951",
"}.	c #6B624B",
"|.	c #5F573F",
"1.	c #716850",
"2.	c #746B53",
"3.	c #70664F",
"4.	c #746B54",
"5.	c #877E63",
"6.	c #81775E",
"7.	c #8B8167",
"8.	c #887F64",
"9.	c #736A52",
"0.	c #6D654D",
"a.	c #696249",
"b.	c #716951",
"c.	c #68614A",
"d.	c #686049",
"e.	c #5D543F",
"f.	c #68624B",
"g.	c #776E56",
"h.	c #5A523A",
"i.	c #635B43",
"j.	c #676048",
"k.	c #81785F",
"l.	c #7D735B",
"m.	c #635C46",
"n.	c #7A7158",
"o.	c #766E56",
"p.	c #746A54",
"q.	c #615842",
"r.	c #5B533C",
"s.	c #5F5840",
"t.	c #6B644C",
"u.	c #5F5844",
"v.	c #514B36",
"w.	c #554C38",
"x.	c #5C533F",
"y.	c #605742",
"z.	c #716A51",
"A.	c #413924",
"B.	c #4D432E",
"C.	c #57503A",
"D.	c #463E29",
"E.	c #534B36",
"F.	c #5C533D",
"G.	c #594F39",
"H.	c #655A44",
"I.	c #796F58",
"J.	c #726953",
"K.	c #786F58",
"L.	c #766E58",
"M.	c #554C36",
"N.	c #524B35",
"O.	c #665D44",
"P.	c #615740",
"Q.	c #605840",
"R.	c #5C5742",
"S.	c #5C553F",
"T.	c #706951",
"U.	c #6F664F",
"V.	c #4C4330",
"W.	c #5E543E",
"X.	c #554B36",
"Y.	c #736952",
"Z.	c #6C654C",
"`.	c #676046",
" +	c #766D55",
".+	c #635C45",
"++	c #635B47",
"@+	c #6D644D",
"#+	c #5A503B",
"$+	c #6D664F",
"%+	c #7E755C",
"&+	c #7A7157",
"*+	c #81785E",
"=+	c #746B55",
"-+	c #645B44",
";+	c #5D573F",
">+	c #59503A",
",+	c #625942",
"'+	c #69604B",
")+	c #776D55",
"!+	c #6F664D",
"~+	c #7C735A",
"{+	c #5E5541",
"]+	c #645C46",
"^+	c #625946",
"/+	c #645D45",
"(+	c #6A6149",
"_+	c #554E39",
":+	c #645C44",
"<+	c #897F66",
"[+	c #837A60",
"}+	c #7C735B",
"|+	c #706850",
"1+	c #635943",
"2+	c #564C38",
"3+	c #746B52",
"4+	c #5B533E",
"5+	c #5B543E",
"6+	c #564E3A",
"7+	c #524B36",
"8+	c #7B7259",
"9+	c #676047",
"0+	c #655C46",
"a+	c #544E36",
"b+	c #5F5843",
"c+	c #6E654F",
"d+	c #6D6650",
"e+	c #6C644E",
"f+	c #5B533F",
"g+	c #5B543F",
"h+	c #605843",
"i+	c #665E47",
"j+	c #857C63",
"k+	c #5A533D",
"l+	c #595039",
"m+	c #675E47",
"n+	c #514832",
"o+	c #645C47",
"p+	c #706851",
"q+	c #554E38",
"r+	c #554E3A",
"s+	c #534B37",
"t+	c #4C432E",
"u+	c #69644D",
"v+	c #6D654C",
"w+	c #5B553F",
"x+	c #676146",
"y+	c #6B644A",
"z+	c #5E5741",
"A+	c #5F553E",
"B+	c #574E3A",
"C+	c #5F5842",
"D+	c #665D48",
"E+	c #635E47",
"F+	c #5F5742",
"G+	c #69644C",
"H+	c #6B644B",
"I+	c #736B52",
"J+	c #706852",
"K+	c #756D56",
"L+	c #7A7159",
"M+	c #69644E",
"N+	c #635C48",
"O+	c #676049",
"P+	c #5B523A",
"Q+	c #5F5740",
"R+	c #524834",
"S+	c #635D46",
"T+	c #7C735C",
"U+	c #847B62",
"V+	c #49422C",
"W+	c #6B644D",
"X+	c #797159",
"Y+	c #7C7359",
"Z+	c #6D6850",
"`+	c #645D48",
" @	c #605B44",
".@	c #564F3B",
"+@	c #625C46",
"@@	c #6F6850",
"#@	c #6F6952",
"$@	c #68614B",
"%@	c #786F57",
"&@	c #4E4531",
"*@	c #5B5442",
"=@	c #6C654E",
"-@	c #504835",
";@	c #4C4633",
">@	c #4B4531",
",@	c #5A503A",
"'@	c #5B523E",
")@	c #756E55",
"!@	c #66604A",
"~@	c #5A543F",
"{@	c #686249",
"]@	c #4E4530",
"^@	c #766D54",
"/@	c #776E55",
"(@	c #686149",
"_@	c #837A5F",
":@	c #797158",
"<@	c #5F5944",
"[@	c #68654B",
"}@	c #66654B",
"|@	c #58533B",
"1@	c #6E6951",
"2@	c #6F6954",
"3@	c #68624C",
"4@	c #67614A",
"5@	c #847B60",
"6@	c #564F3A",
"7@	c #7A7359",
"8@	c #898067",
"9@	c #8A8168",
"0@	c #7C735D",
"a@	c #67604A",
"b@	c #827A60",
"c@	c #7A725A",
"d@	c #706953",
"e@	c #5A543B",
"f@	c #766F56",
"g@	c #746D56",
"h@	c #645B46",
"i@	c #6B624A",
"j@	c #5B523C",
"k@	c #5F5942",
"l@	c #686047",
"m@	c #7C725A",
"n@	c #5E5542",
"o@	c #6A604A",
"p@	c #665D45",
"q@	c #645D47",
"r@	c #5B523B",
"s@	c #5A533C",
"t@	c #655B43",
"u@	c #5D5843",
"v@	c #4D4531",
"w@	c #6A6049",
"x@	c #786E56",
"y@	c #81775F",
"z@	c #716950",
"A@	c #514734",
"B@	c #574E39",
"C@	c #564C37",
"D@	c #665E45",
"E@	c #625B45",
"F@	c #5C5541",
"G@	c #5B523F",
"H@	c #5B5340",
"I@	c #867C64",
"J@	c #736A51",
"K@	c #59503B",
"L@	c #70684F",
"M@	c #554E37",
"N@	c #5C553E",
"O@	c #68604A",
"P@	c #4A432F",
"Q@	c #433A25",
"R@	c #524A34",
"S@	c #6C644F",
"T@	c #625B47",
"U@	c #6B644F",
"V@	c #7E765D",
"W@	c #70684E",
"X@	c #686248",
"Y@	c #645C43",
"Z@	c #514A35",
"`@	c #7F775E",
" #	c #6B654D",
".#	c #453E28",
"+#	c #4E4633",
"@#	c #5C533E",
"##	c #5D5441",
"$#	c #514B37",
"%#	c #4D4732",
"&#	c #504A36",
"*#	c #766D53",
"=#	c #6C684E",
"-#	c #59533E",
"  . + @ # $ % & * = - ; > , ' ) ! ~ { ] ^ / ( _ : < [ } | 1 2 3 ",
"4 5 6 7 8 9 0 a b c d e f g h i j k l m n o p q r s s t u 1 v w ",
"o x y z A B o 4 C 7 D E F G H I J K L L M N O P Q R S T U b V W ",
"X Y | v Z ` @  .. ..+.@.#.$.| %.&.*.=.$ -.;.>.5 ,.'.).!.~.{.].^.",
"/.= (.G _.= :.x <.[.}.H |.1.2.K 3.4.5.6.7.8.% 9.0.0.a.b.c.d.e.f.",
"g.h.i.j.s <.<.k.{.l.[.Q m.n.o.#.p.6 o a q.< r.s.t.u.v.w.J x.y.z.",
"A.B.C.D.E.F.G.H.0 9.I.J.K.L.f.q.M.N.& b.O.P.Q.M 0 R.g S.T.U.1 V.",
"W.s X.a g.Y.K.Z.Q `.].%  +0 .+R ++M ].n.2.x [ Q o  .T @+#+K K X.",
"p $+%+&+*+-.4.-.=+$+-+;+>+,+Q | '+)+!+Q ~+1.>.P {+]+n ^+(.+ /+(+",
"_+:+D 7 U.U.<+[+}+. |+1+2+& 2.3+. 6.L 4+5+6+7+P @ g.8+1.}.9+4.0+",
"C.a+Q 0 /+b+p o c+o U.o d.d+_.Q n e+K o u f+g+h+i+@ ` q.@ i.j+j+",
"k+v l+l+:+p h+&.m+| w.n+7+o+p+_.o q+r+s+t+#+| u+v+p+>.:+T.>.w+5+",
"x+y+Q.z+A+B+C+(.D+, E+F+_.G+H+I+J+K+8+L+4.p.` 9.c+c+M+  N+O+s < ",
"` P+m+9.Q+R+s.k+S+T+U+` 9.Z V+4+W+X+}+Y+n.<.&+Z+`+P O  @.@+@@@0.",
"#@$@K.].%@}.u &@*@m.o.=@-@;@>@>.9.o.e.,@'@3+k.].0 U k.4.= u.%.C+",
")@!@P ~@{@G N.]@(.+ ^@%+ +d.=@4._.X+/@(@o _@` |+@ k.<+:@$+<@[@}@",
"q.~ { ] ^ / }.m+y K [ } | 1 |@3   . + @ # $ % & * = 1@2@3@4@' ) ",
"j k l m n 5@[+n.|+o s t u J 6@^+M+5 6 7 8 9 U.T 7@8@9@j+0@o+E+i ",
"J m+L L M d.a@#.Q R S T U b V p _.x y z A B  +k.5.b@c@d@3@ .1 e@",
"&.p k.g.| 9+d.s p i+9.f@g@{.].^.X Y | v Z ` @ h@i@F+j@h+k@f.4.U.",
"}.4.` . } U.v+l@}.-.*+@.$+d.e.G+/.'+o G _.= T.o.` ^@3+Q+Q.1.2.K ",
"m@[+<.#.1 ,+1 s.^.  v.w.>+n@o@f@%@h.i.j.s <.].% I.[ p@X m.[.q@5+",
"r@s@:+Q Q.t@m+@+@+u@O k T.U.p v@A.B.C.D.E.F.G.H.} | w@0  +L.Z+Q ",
"++| l@+ v+x@y@<.0.= z@M A@3+[.B@W.s C@%.g.Y.K.t.o D@Z.o E@^+:+F@",
"0 )+L Q ].U.0 m.{+]+Q G@N 0 5+m+p @@6.~+*+-.4._.H@u.,.;+>+|.n Q ",
"o @+(+4+5+6+-@q@p+L+g.(+}.'.4.0+_+p@I@8.y@n.Q % j+m@o.-+2+& 9.J@",
"Q e+K (.K@f+h+]+i+p+L@p ^+M@& U.C.N@].%+~+@ %@<++. +L@,.o d+0 O@",
"F+q+v P@Q@R@S.u+J@=+>.:+$+@ E@a 5+v l+l+:+p h+j@i.s w.n+7+o+p+5 ",
"S@=+&+K.4.p.` 9.@ @ M+T@U@V@9.W@X@y+Y@P t@'@Z@q.>.f.E+F+_.G+H+z.",
"P K.K.<.n.<.&+Z+`+P O f.}+U+`@@@<.P+}.g.o 2+/+_. #T+U+:@ +}..#+#",
"5 p+@#,@'@3+k.X+0 U =+Q ##g %.C+#@$@K.].%@}.u &@*@m.g.T.6@$#%#&#",
"s+x *#(@o _@` U.@ k.D >.Q P =#}@)@!@P ~@{@G N.]@(.+ n.% K.d.-#Q "};
