/* XPM */
static char *portalRings2_3[] = {
/* columns rows colors chars-per-pixel */
"64 64 13 1 ",
"  c #584B44",
". c #6D6666",
"X c #1B945F",
"o c #35A948",
"O c #0C896D",
"+ c #C6E763",
"@ c #CEEF63",
"# c #D6EF63",
"$ c #D6F763",
"% c #E7F763",
"& c #8B8484",
"* c #BAB0B0",
"= c #9EDF8A",
/* pixels */
"############@@@@@@@@@@@@@@@@##******@@@@@@@@####$$$$$$$$%%%%%%%%",
"############@@@@@@@@@@@@@@@@##******@@@@@@@@####$$$$$$$$%%%%%%%%",
"############@@@@@@@@&&&&**    &&&&&&**    @@####$$$$$$$$%%%%%%%%",
"############@@@@@@@@&&&&**    &&&&&&**    @@####$$$$$$$$%%%%%%%%",
"%%%%%%%%####++**  &&&&&&**    &&&&&&**  &&&&**  ########$$$$$$$$",
"%%%%%%%%####++**  &&&&&&**    &&&&&&**  &&&&**  ########$$$$$$$$",
"%%%%%%%%##  &&&&**  ..&&&&**  &&&&&&    &&&&**    &&####$$$$$$$$",
"%%%%%%%%##  &&&&**  ..&&&&**  &&&&&&    &&&&**    &&####$$$$$$$$",
"####%%%%    ..&&&&    ..&&**  ......  &&&&**    &&&&**##@@@@%%%%",
"####%%%%    ..&&&&    ..&&**  ......  &&&&**    &&&&**##@@@@%%%%",
"####%%&&**    ..&&**    ..XXXXXXXXXX..&&**  &&&&&&&&**  @@@@%%%%",
"####%%&&**    ..&&**    ..XXXXXXXXXX..&&**  &&&&&&&&**  @@@@%%%%",
"$$$$  &&&&&&**  &&&&XXXXooooooooooooooXXXX  ..&&****  &&**@@$$$$",
"$$$$  &&&&&&**  &&&&XXXXooooooooooooooXXXX  ..&&****  &&**@@$$$$",
"$$$$  ....&&**XXXXoooooo==============ooooooXX**    &&&&&&**$$$$",
"$$$$  ....&&**XXXXoooooo==============ooooooXX**    &&&&&&**$$$$",
"##        ..  XXoo======oooooooooooooo======ooXXXX..&&&&&&  ####",
"##        ..  XXoo======oooooooooooooo======ooXXXX..&&&&&&  ####",
"##    &&**  oooo==ooooooXXXXXXXXXXXXXXoooooo==oooo..&&&&    ####",
"##    &&**  oooo==ooooooXXXXXXXXXXXXXXoooooo==oooo..&&&&    ####",
"##  ..&&&&**oo==ooooXXXXXXXXXXXXXXXXXXXXXXoooo==oooo..    &&**%%",
"##  ..&&&&**oo==ooooXXXXXXXXXXXXXXXXXXXXXXoooo==oooo..    &&**%%",
"##  ....&&&&==ooXXXXXXXXXXooooooooooXXXXXXXXXXoo==oo  &&&&&&**%%",
"##  ....&&&&==ooXXXXXXXXXXooooooooooXXXXXXXXXXoo==oo  &&&&&&**%%",
"&&&&        ooXXXXXXXXoooo==========ooooXXXXXXXXoo==..&&&&&&  ##",
"&&&&        ooXXXXXXXXoooo==========ooooXXXXXXXXoo==..&&&&&&  ##",
"..&&&&    ooXXXXXXoooo====oooooooooo====ooooXXXXXXoo==..    ****",
"..&&&&    ooXXXXXXoooo====oooooooooo====ooooXXXXXXoo==..    ****",
"  ..&&****ooXXXXoooo==ooooXXXXXXXXXXoooo==ooooXXXXoooo  &&&&&&**",
"  ..&&****ooXXXXoooo==ooooXXXXXXXXXXoooo==ooooXXXXoooo  &&&&&&**",
"    ..&&**XXXXXXoo==ooXXXXXXXXXXXXXXXXXXoo==ooXXXXXXoo..&&&&&&  ",
"    ..&&**XXXXXXoo==ooXXXXXXXXXXXXXXXXXXoo==ooXXXXXXoo..&&&&&&  ",
"          XXXXoo==ooXXOOXXXXooooooXXXXOOXXoo==ooXXXXoo..&&&&    ",
"          XXXXoo==ooXXOOXXXXooooooXXXXOOXXoo==ooXXXXoo..&&&&    ",
"..&&&&**  XXXXoo==XXOOXXoooo======ooooXXOOXX==ooXXXXXX      ****",
"..&&&&**  XXXXoo==XXOOXXoooo======ooooXXOOXX==ooXXXXXX      ****",
"  &&&&&&**XXoo==ooXXXXXXoo==oooooo==ooXXXXXXoo==ooXXXX..&&&&&&**",
"  &&&&&&**XXoo==ooXXXXXXoo==oooooo==ooXXXXXXoo==ooXXXX..&&&&&&**",
"  ..&&&&**XXoo==XXOOXXoo==ooXXXXXXoo==ooXXOOXX==ooXXXX..&&&&&&**",
"  ..&&&&**XXoo==XXOOXXoo==ooXXXXXXoo==ooXXOOXX==ooXXXX..&&&&&&**",
"  ..  ..  XXoo==XXOOXXoo==ooXXOOXXoo==ooXXOOXX==ooXXXX  ....    ",
"  ..  ..  XXoo==XXOOXXoo==ooXXOOXXoo==ooXXOOXX==ooXXXX  ....    ",
"          XXoo==XXOOXXoo==ooXXXXXXoo==ooXXOOXX==ooXXXX&&    ****",
"          XXoo==XXOOXXoo==ooXXXXXXoo==ooXXOOXX==ooXXXX&&    ****",
"&&&&****  XXoo==XXOOXXXXoo==oooooo==ooXXXXOOXX==ooXXXX&&&&&&&&**",
"&&&&****  XXoo==XXOOXXXXoo==oooooo==ooXXXXOOXX==ooXXXX&&&&&&&&**",
"..&&&&&&**XXXXoo==XXOOXXoooo======ooooXXOOXX==ooXXXXXX....&&    ",
"..&&&&&&**XXXXoo==XXOOXXoooo======ooooXXOOXX==ooXXXXXX....&&    ",
"....&&    XXXXoo==XXOOOOXXXXooooooXXXXOOOOXX==ooXXXXoo        **",
"....&&    XXXXoo==XXOOOOXXXXooooooXXXXOOOOXX==ooXXXXoo        **",
"  ..      XXXXXXoo==XXOOOOXXXXXXXXXXOOOOXX==ooXXXXXXoo&&&&**    ",
"  ..      XXXXXXoo==XXOOOOXXXXXXXXXXOOOOXX==ooXXXXXXoo&&&&**    ",
"      ****ooXXXXoooo==XXXXOOOOOOOOOOXXXX==ooooXXXXoooo&&&&&&**  ",
"      ****ooXXXXoooo==XXXXOOOOOOOOOOXXXX==ooooXXXXoooo&&&&&&**  ",
"  &&&&&&**ooXXXXXXoooo====XXXXXXXXXX====ooooXXXXXXoo==..&&&&&&**",
"  &&&&&&**ooXXXXXXoooo====XXXXXXXXXX====ooooXXXXXXoo==..&&&&&&**",
"  &&&&&&&&==ooXXXXXXXXoooo==========ooooXXXXXXXXoo==oo  ..&&    ",
"  &&&&&&&&==ooXXXXXXXXoooo==========ooooXXXXXXXXoo==oo  ..&&    ",
"          oo==ooXXXXXXXXXXooooooooooXXXXXXXXXXoo==oooo      ****",
"          oo==ooXXXXXXXXXXooooooooooXXXXXXXXXXoo==oooo      ****",
"&&&&&&**  oooo==ooooXXXXXXXXXXXXXXXXXXXXXXoooo==ooooXX..&&&&&&**",
"&&&&&&**  oooo==ooooXXXXXXXXXXXXXXXXXXXXXXoooo==ooooXX..&&&&&&**",
"....&&&&  XXoooo==ooooooXXXXXXXXXXXXXXoooooo==ooooXXOO  ..&&&&  ",
"....&&&&  XXoooo==ooooooXXXXXXXXXXXXXXoooooo==ooooXXOO  ..&&&&  "
};
