/* XPM */
static char * floor_xpm[] = {
"64 64 5 1",
" 	c #D6EF63",
".	c #CEEF63",
"+	c #D6F763",
"@	c #E7F763",
"#	c #C6E763",
"            ................    ............    ++++++++@@@@@@@@",
"            ................    ............    ++++++++@@@@@@@@",
"            ................    ............    ++++++++@@@@@@@@",
"            ................    ............    ++++++++@@@@@@@@",
"@@@@@@@@    ####................        ++++++++        ++++++++",
"@@@@@@@@    ####................        ++++++++        ++++++++",
"@@@@@@@@    ####................        ++++++++        ++++++++",
"@@@@@@@@    ####................        ++++++++        ++++++++",
"    @@@@........        ++++    ++++@@@@++++....        ....@@@@",
"    @@@@........        ++++    ++++@@@@++++....        ....@@@@",
"    @@@@........        ++++    ++++@@@@++++....        ....@@@@",
"    @@@@........        ++++    ++++@@@@++++....        ....@@@@",
"++++            ....    @@@@        ++++    ........    ....++++",
"++++            ....    @@@@        ++++    ........    ....++++",
"++++            ....    @@@@        ++++    ........    ....++++",
"++++            ....    @@@@        ++++    ........    ....++++",
"                ....        ........            ....++++        ",
"                ....        ........            ....++++        ",
"                ....        ........            ....++++        ",
"                ....        ........            ....++++        ",
"    ++++    ................####........    ....####        @@@@",
"    ++++    ................####........    ....####        @@@@",
"    ++++    ................####........    ....####        @@@@",
"    ++++    ................####........    ....####        @@@@",
"....    ............    @@@@        @@@@........####....        ",
"....    ............    @@@@        @@@@........####....        ",
"....    ............    @@@@        @@@@........####....        ",
"....    ............    @@@@        @@@@........####....        ",
"............############        ....        ............########",
"............############        ....        ............########",
"............############        ....        ............########",
"............############        ....        ............########",
"................########        ....####........####....####....",
"................########        ....####........####....####....",
"................########        ....####........####....####....",
"................########        ....####........####....####....",
"........    ++++    ....    ........................    @@@@    ",
"........    ++++    ....    ........................    @@@@    ",
"........    ++++    ....    ........................    @@@@    ",
"........    ++++    ....    ........................    @@@@    ",
"....        @@@@++++....    ####....        ++++    ++++@@@@    ",
"....        @@@@++++....    ####....        ++++    ++++@@@@    ",
"....        @@@@++++....    ####....        ++++    ++++@@@@    ",
"....        @@@@++++....    ####....        ++++    ++++@@@@    ",
"        ....    @@@@@@@@@@@@++++++++........    ....####....    ",
"        ....    @@@@@@@@@@@@++++++++........    ....####....    ",
"        ....    @@@@@@@@@@@@++++++++........    ....####....    ",
"        ....    @@@@@@@@@@@@++++++++........    ....####....    ",
"............    @@@@@@@@++++++++++++....................        ",
"............    @@@@@@@@++++++++++++....................        ",
"............    @@@@@@@@++++++++++++....................        ",
"............    @@@@@@@@++++++++++++....................        ",
"............    ++++@@@@    ........    ............++++        ",
"............    ++++@@@@    ........    ............++++        ",
"............    ++++@@@@    ........    ............++++        ",
"............    ++++@@@@    ........    ............++++        ",
"....####........    ++++    ....        ................++++....",
"....####........    ++++    ....        ................++++....",
"....####........    ++++    ....        ................++++....",
"....####........    ++++    ....        ................++++....",
"####....    ....####....            ++++++++....####............",
"####....    ....####....            ++++++++....####............",
"####....    ....####....            ++++++++....####............",
"####....    ....####....            ++++++++....####............"};
