/* XPM */
static char *Plant3_Idle_full_0[] = {
/* columns rows colors chars-per-pixel */
"64 64 36 1 ",
"  c #11312C",
". c #60173E",
"X c #4F3432",
"o c #6E493F",
"O c #31215C",
"+ c #422D72",
"@ c #1F5240",
"# c #286E45",
"$ c #7F5D4F",
"% c #734354",
"& c #88304E",
"* c #A74554",
"= c #9D7861",
"- c #C85854",
"; c #368C47",
": c #94AA56",
"> c #99AA56",
", c #99AF56",
"< c #A4AF56",
"1 c #C6E763",
"2 c #CEEF63",
"3 c #D6EF63",
"4 c #D6F763",
"5 c #E7F763",
"6 c #603994",
"7 c #763BA9",
"8 c #B97283",
"9 c #9544C1",
"0 c #BA50DC",
"q c #E85CF9",
"w c #A79E8D",
"e c #CF828C",
"r c #E9888A",
"t c #FFA193",
"y c #EDEBDB",
"u c #FFFFF3",
/* pixels */
"3333333333332222222222222222333322222222222233334444444455555555",
"3333333333332222222222222222333322222222222233334444444455555555",
"3333333333332222222222222222333322222222222233334444444455555555",
"3333333333332222222222222222333322222222222233334444444455555555",
"5555555533331111222222222222222233333333444444443333333344444444",
"5555555533331111222222222222222233333333444444443333333344444444",
"5555555533331111222222222222222233333333444444443333333344444444",
"5555555533331111222222222222222233333333444444443333333344444444",
"3333555522222222333333334444333344445555444422223333333322225555",
"3333555522222222333333334444333344445555444422223333333322225555",
"3333555522222222333333334444333344445555444422223333333322225555",
"3333555522222222333333334444333344445555444422223333333322225555",
"4444333333333333222233335555333333334444333322222222333322224444",
"4444333333333333222233335555333333334444333322222222333322224444",
"4444333333333333222233335555333.33334444333322222222333322224444",
"444433333333333322223333555533.-.3334444333322222222333322224444",
"33333333333333332222333333332.-*-.223333333333332222444433333333",
"33333333333333332222333333332.-*-.223333333333332222444433333333",
"3333333333333333222....33333.-*.*-.23333....33332222444433333333",
"3333333333333333222.---..333.*&.&*.233..---.33332222444433333333",
"3333444433332222222.-&**-.2OOO%%%OOO2.-**&-.22221111333333335555",
"3333444433332222222.**.&*-O79errre97O-*&.**.22221111333333335555",
"33334444333322222222.*&.&O799rrtrr997O&.&*.322221111333333335555",
"33334444333322222222.&*&%87900ttt00978%&*&.322221111333333335555",
"22223333222222222222.&&*%8e900qqq009e8%*&&.222221111222233333333",
"222233332222222222223.&%88e9000q0009e88%&.2222221111222233333333",
"2222333322222222222233.%8899000q0009988%.22222221111222233333333",
"22223333222222222222333O879990rrr099978O222222221111222233333333",
"22222222222211111111111O67799errre99776O333322222222222211111111",
"2222222222221111111111.O6+779eeree977+6O.33322222222222211111111",
"222222222222111111111.&O6++779eee977++6O&.3322222222222211111111",
"22222222222211111111.-*&O+y+7799977+y+O&*-.322222222222211111111",
"2222222222222222111.-*..O6+w+77777+w+6O..*-.22221111222211112222",
"2222222222222222111.-**&&O6+u+++++u+6O&&**-.22221111222211112222",
"2222222222222222111...-*&&O6++uwu++6O&&*-...22221111222211112222",
"2222222222222222111111.....O67+++76O.....22222221111222211112222",
"2222222233334444333322223333O67776O22222222222222222333355553333",
"222222223333444433332    333.OOOOO.22222222222222222333355553333",
"222222223333444433332 ;;; 332.&.&.222222222222222222333355553333",
"2222222233334444333322 #@; 32X.*. 222222222222222222333355553333",
"22223333333355554444222 #@ 3X= .# 223333333344443333444455553333",
"222233333333555544442222   3X= #; 223    33344443333444455553333",
"222233333333555544442222333 X$ ;; :2 #;; 33344443333444455553333",
"2222333333335555444422223>>>  ##; : @@# 333344443333444455553333",
"33333333222233335555555<<<XXo @##  ,   ::22233332222111122223333",
"3333333322223333555555<<<<<XX @@@ ,,::::::2233332222111122223333",
"3333333322223333555555<<<<<<,,   ,,,::::::2233332222111122223333",
"3333333322223333555555<<<<<<,,,,,,,,::::::2233332222111122223333",
"22222222222233335555555<,,,,,,,,,,,,:::::22222222222222233333333",
"2222222222223333555555554,,,,,,,,,,,:::2222222222222222233333333",
"22222222222233335555555544444,,,,,,42222222222222222222233333333",
"2222222222223333555555554444444444442222222222222222222233333333",
"2222222222223333444455553333222222223333222222222222444433333333",
"2222222222223333444455553333222222223333222222222222444433333333",
"2222222222223333444455553333222222223333222222222222444433333333",
"2222222222223333444455553333222222223333222222222222444433333333",
"2222111122222222333344443333222233333333222222222222222244442222",
"2222111122222222333344443333222233333333222222222222222244442222",
"2222111122222222333344443333222233333333222222222222222244442222",
"2222111122222222333344443333222233333333222222222222222244442222",
"1111222233332222111122223333333333334444444422221111222222222222",
"1111222233332222111122223333333333334444444422221111222222222222",
"1111222233332222111122223333333333334444444422221111222222222222",
"1111222233332222111122223333333333334444444422221111222222222222"
};
