/* XPM */
static char * wall_xpm[] = {
"64 64 20 1",
" 	c #D6EF63",
".	c #CEEF63",
"+	c #D6F763",
"@	c #E7F763",
"#	c #C6E763",
"$	c #23674E",
"%	c #14A02E",
"&	c #59C135",
"*	c #333941",
"=	c #7DE230",
"-	c #242234",
";	c #200F0E",
">	c #8E5252",
",	c #5B3138",
"'	c #B3D055",
")	c #C9D755",
"!	c #BB7547",
"~	c #BAD755",
"{	c #71413B",
"]	c #BAD055",
"            ................    ............    ++++++++@@@@@@@@",
"            ................    ............    ++++++++@@@@@@@@",
"            ................    ............    ++++++++@@@@@@@@",
"            ................    ............    ++++++++@@@@@@@@",
"@@@@@@@@    ####................        ++++++++        ++++++++",
"@@@@@@@@    ####................        ++++++++        ++++++++",
"@@@@@@@@    ####..........$$$$$$        ++++++++        ++++++++",
"@@@@@@@@    ####.........$%%&&&%$$$$$   ++++++++        ++++++++",
"    @@@@........        +$%%&&&%$$$$$@@@++++....        ....@@@@",
"    @@@@........      $**%&&===&===&&*@@++++....        ....@@@@",
"    @@@@........    $$%&&==========&&%$$++++....        ....@@@@",
"    @@@@........    $$%&&==========&&%$$++++....        ....@@@@",
"++++            ....$$%%%=========&%%&&&$$$ ........    ....++++",
"++++            ....**&&&&===&&===&&&&&&%$$ ........    ....++++",
"++++            ....**&&&&===&&===&&&&&&%$$ ........    ....++++",
"++++            ....$$&&&&&&&&&&&&&&&===&** ........    ....++++",
"                ...*$$%&&&&&===&&&======&$$*    ....++++        ",
"                ...*$$%&&&&&===&&&======&$$*    ....++++        ",
"                ...%&&&===&&===&&&===&&&$$$---* ....++++        ",
"                .$$%&&&======&&&&&&&&&%%$%%%%%$$$$..++++        ",
"    ++++    .....$$%&&&======&&&&&&&&&%%$%%%%%$$$$##        @@@@",
"    ++++    ..$$$--*%%&&&&===&&&&&&&&&&&&%%%&&&%%$##        @@@@",
"    ++++    ..$$%%%&&&%$$$&&&&&&&&&&&%&&===&===%%*##        @@@@",
"    ++++    ..$$%%%&&&%$$$&&&&&&&&&&&%&&===&===%%*##        @@@@",
"....    ......**%%%&&&&&&&&&%%%&%%&&&%&&=======&&&--....        ",
"....    .....****&&&===&&&%%&&&$%%%$$&=========&&&--....        ",
"....    .....****&&&===&&&%%&&&$%%%$$&=========&&&--....        ",
"....    ...**$$$&=========&&&&&%$$$%%&=========&&%**-...        ",
"...........**$&&&===========&&&&&&%&&&&&&&&===&&&&$$-...########",
"...........**$&&&===========&&&&&&%&&&&&&&&===&&&&$$-...########",
"...........--*&&&&&====&&===&&&&&&%&&&&&&&&&&&&&&&%%-...########",
"...........--%%%$&&&===&&&&&&&&&&&&%%%&&&&&&&&&%%%%%-...########",
"...........--%%%$&&&===&&&&&&&&&&&&%%%&&&&&&&&&%%%%%-...####....",
"...........--%%%&&&&&&&&&&&&&&&&&&&%%%%%&&&%&&&%%$**....####....",
".............-%%&&&%%%&&&&&&%$$&&&&$$&&&$%%&%%%$$$##....####....",
".............-%%&&&%%%&&&&&&%$$&&&&$$&&&$%%&%%%$$$##....####....",
"........    +-$$%%%$&&&&&&&&&$$&&&%%%&&&&&&&%%*$$$..    @@@@    ",
"........    +-$$$$$*&&&%%&&&&%%%%%%$$%%%&&&%%%%--...    @@@@    ",
"........    +-$$$$$*&&&%%&&&&%%%%%%$$%%%&&&%%%%--...    @@@@    ",
"........    ++--$**$%%%$$%%%%%%%%%%%%$%%%$$*%%%--...    @@@@    ",
"....        @@@@-**$$$$$$%%%%%%$%%%%%$%%%$$****--   ++++@@@@    ",
"....        @@@@-**$$$$$$%%%%%%$%%%%%$%%%$$****--   ++++@@@@    ",
"....        @@@@+--***$$$*$$%%%$*****$$$$***---+    ++++@@@@    ",
"....        @@@@+-----***$$$$$$*$$$$$*$$$---++++    ++++@@@@    ",
"        ....    @-----***$$$$$$*$$$$$*$$$---    ....####....    ",
"        ....    @@@@@@---$$$******$$$------.    ....####....    ",
"        ....    @@@@@@@@@;---------;;*......    ....####....    ",
"        ....    @@@@@@@@@;---------;;*......    ....####....    ",
"............    @@@@@@@;;>,,-,,,--,>>;'''...............        ",
"............    @@@@@@),,>>>,>>>,,>>>>;;'''.............        ",
"............    @@@@@@),,>>>,>>>,,>>>>;;'''.............        ",
"............    @@@@)),!!!>>>>>!>>>!!!>>;'''............        ",
"............    +++~));!!!{{>!!!>>>!!!,,;'''........++++        ",
"............    +++~));!!!{{>!!!>>>!!!,,;'''........++++        ",
"............    +++~))),,,;;!!!!!!,>>];;''''........++++        ",
"............    +++~))))],]]!!!!'',;;]]]'..'........++++        ",
"....####........   ]~~~~],]]!!!!]],;;]]]'..'............++++....",
"....####........   ]++~~]]]];''']];]] ]]'...............++++....",
"....####........    ++~+ ]  '''.  ]   ]]................++++....",
"....####........    ++~+ ]  '''.  ]   ]]................++++....",
"####....    ....####....            ++++++++....####............",
"####....    ....####....            ++++++++....####............",
"####....    ....####....            ++++++++....####............",
"####....    ....####....            ++++++++....####............"};
