/* XPM */
static char *Plant3_Idle_full_2[] = {
/* columns rows colors chars-per-pixel */
"64 64 35 1 ",
"  c #11312C",
". c #60173E",
"X c #4F3432",
"o c #31215C",
"O c #422D72",
"+ c #1F5240",
"@ c #286E45",
"# c #7F5D4F",
"$ c #734354",
"% c #88304E",
"& c #A74554",
"* c #9D7861",
"= c #C85854",
"- c #368C47",
"; c #94AA56",
": c #99AA56",
"> c #99AF56",
", c #A4AF56",
"< c #C6E763",
"1 c #CEEF63",
"2 c #D6EF63",
"3 c #D6F763",
"4 c #E7F763",
"5 c #603994",
"6 c #763BA9",
"7 c #B97283",
"8 c #9544C1",
"9 c #BA50DC",
"0 c #E85CF9",
"q c #A79E8D",
"w c #CF828C",
"e c #E9888A",
"r c #FFA193",
"t c #EDEBDB",
"y c #FFFFF3",
/* pixels */
"2222222222221111111111111111222211111111111122223333333344444444",
"2222222222221111111111111111222211111111111122223333333344444444",
"2222222222221111111111111111222211111111111122223333333344444444",
"2222222222221111111111111111222211111111111122223333333344444444",
"444444442222<<<<111111111111111122222222333333332222222233333333",
"444444442222<<<<111111111111111122222222333333332222222233333333",
"444444442222<<<<111111111111111122222222333333332222222233333333",
"444444442222<<<<111111111111111122222222333333332222222233333333",
"2222444411111111222222223333222233334444333311112222222211114444",
"2222444411111111222222223333222233334444333311112222222211114444",
"2222444411111111222222223333222233334444333311112222222211114444",
"2222444411111111222222223333222233334444333311112222222211114444",
"3333222222222222111122224444222222223333222211111111222211113333",
"3333222222222222111122224444222222223333222211111111222211113333",
"3333222222222222111122224444222222223333222211111111222211113333",
"3333222222222222111122224444222.22223333222211111111222211113333",
"222222222222222211112222222211.=.1112222222222221111333322222222",
"2222222222222222111122222222..&%&..12222222222221111333322222222",
"222222222222222211112222222ooo$$$ooo2222222222221111333322222222",
"22222222222222221111222222o68weeew86o222222222221111333322222222",
"2222333322221111111111...o688eeree886o...2221111<<<<222222224444",
"22223333222211111111..=&$76899rrr99867$&=..21111<<<<222222224444",
"2222333322221111111.=&&%$7w899000998w7$%&&=.1111<<<<222222224444",
"222233332222111111.=&%.$77w899909998w77$.%&=.111<<<<222222224444",
"11112222111111111.=&&&%$778899909998877$%&&&=.11<<<<111122222222",
"111122221111111111....&o768889eee988867o&....111<<<<111122222222",
"1111222211111111111122.o56688weeew88665o.1111111<<<<111122222222",
"11112222111111111111222o5O668wweww866O5o11111111<<<<111122222222",
"111111111111<<<<<<<<<<<o5OO668www866OO5o2222111111111111<<<<<<<<",
"111111111111<<<<<<<<<<.%oOtO6688866OtOo%.222111111111111<<<<<<<<",
"111111111111<<<<<<<<<<.%o5OqO66666OqO5o%.222111111111111<<<<<<<<",
"111111111111<<<<<<<<<.&%.o5OyOOOOOyO5o.%&.22111111111111<<<<<<<<",
"1111111111111111<<<<<.=&.%o5OOyqyOO5o%.&=.111111<<<<1111<<<<1111",
"1111111111111111<<<<<.=%&&.o56OOO65o.&&%=.111111<<<<1111<<<<1111",
"1111111111111111<<<<<.=&=.22o56665o1<.=&=.111111<<<<1111<<<<1111",
"1111111111111111<<<<<<.=.222.ooooo.1<<.=.1111111<<<<1111<<<<1111",
"1111111122223333222211..22221.%.%.11111..11111111111222244442222",
"111111112222333322221111222211.&. 111111111111111111222244442222",
"111111112222333322221111222211 .@ 111111111111111111222244442222",
"1111111122223333222211    221X +@ 111111111111111111222244442222",
"111122222222444433331 --@@ 2X* +@ 112222222233332222333344442222",
"11112222222244443333 -@@++  X* @- 1    2222233332222333344442222",
"111122222222444433331     22 # --  +@-- 222233332222333344442222",
"1111222222224444333311112:XX# @@- ; ++@- 22233332222333344442222",
"22222222111122224444444,,,,XX +@@ >>     11122221111<<<<11112222",
"2222222211112222444444,,,,,,> +++ >>;;;;;;1122221111<<<<11112222",
"2222222211112222444444,,,,,,>>   >>>;;;;;;1122221111<<<<11112222",
"2222222211112222444444,,,,,,>>>>>>>>;;;;;;1122221111<<<<11112222",
"11111111111122224444444,>>>>>>>>>>>>;;;;;11111111111111122222222",
"1111111111112222444444443>>>>>>>>>>>;;;1111111111111111122222222",
"11111111111122224444444433333>>>>>>31111111111111111111122222222",
"1111111111112222444444443333333333331111111111111111111122222222",
"1111111111112222333344442222111111112222111111111111333322222222",
"1111111111112222333344442222111111112222111111111111333322222222",
"1111111111112222333344442222111111112222111111111111333322222222",
"1111111111112222333344442222111111112222111111111111333322222222",
"1111<<<<11111111222233332222111122222222111111111111111133331111",
"1111<<<<11111111222233332222111122222222111111111111111133331111",
"1111<<<<11111111222233332222111122222222111111111111111133331111",
"1111<<<<11111111222233332222111122222222111111111111111133331111",
"<<<<111122221111<<<<1111222222222222333333331111<<<<111111111111",
"<<<<111122221111<<<<1111222222222222333333331111<<<<111111111111",
"<<<<111122221111<<<<1111222222222222333333331111<<<<111111111111",
"<<<<111122221111<<<<1111222222222222333333331111<<<<111111111111"
};
