/* XPM */
static char *attack1_l_0[] = {
/* columns rows colors chars-per-pixel */
"64 64 12 1 ",
"  c #04193F",
". c #03396B",
"X c #C3242F",
"o c #E7333B",
"O c #C6E763",
"+ c #CEEF63",
"@ c #D6EF63",
"# c #D6F763",
"$ c #E7F763",
"% c #0696DB",
"& c #0FEFFB",
"* c #FCFEFE",
/* pixels */
"@@@@@@@@@@@@++++++++++++++++@@@@++++++++++++@@@@########$$$$$$$$",
"@@@@@@@@@@@@++++++++++++++++@@@@++++++++++++@@@@########$$$$$$$$",
"@@@@@@@@@@@@++++++++++++++++@@@@++++++++++++@@@@########$$$$$$$$",
"@@@@@@@@@@@@++++++++++++++++@@@@++++++++++++@@@@########$$$$$$$$",
"$$$$$$$$@@@@OOOO++++++++++++++++@@@@@@@@########@@@@@@@@########",
"$$$$$$$$@@@@OOOO++++++++++++++++@@@@@@@@########@@@@@@@@########",
"$$$$$$$$@@@@OOOO++++++++++++++++@@@@@@@@########@@@@@@@@########",
"$$$$$$$$@@@@OOOO++++++++++++++++@@@@@@@@########@@@@@@@@########",
"@@@@$$$$++++++++@@@@@@@@####@@@@####$$$$####++++@@@@@@@@++++$$$$",
"@@@@$$$$++++++++@@@@@@@@####@@@@####$$$$####++++@@@@@@@@++++$$$$",
"@@@@$$$$++++++++@@@@@@@@####@@@@####$$$$####++++@@@@@@@@++++$$$$",
"@@@@$$$$++++++++@@@@@@@@####@@@@####$$$$####++++@@@@@@@@++++$$$$",
"####@@@@@@@@@@@@++++@@@@$$$$          ##@@@@++++++++@@@@++++####",
"####@@@@@@@@@@@@++++@@@@$$$$          ##@@@@++++++++@@@@++++####",
"####@@@@@@@@@@@@++++@@@@    %%%%&&&&&&    @@++++++++@@@@++++####",
"####@@@@@@@@@@@@++++@@@@    %%%%&&&&&&    @@++++++++@@@@++++####",
"@@@@@@@@@@@@@@@@++++@@  ....%%&&&&&&&&&&&&  @@@@++++####@@@@@@@@",
"@@@@@@@@@@@@@@@@++++@@  ....%%&&&&&&&&&&&&  @@@@++++####@@@@@@@@",
"@@@@@@@@@@@@@@@@++++  ....    &&&&&&&&&&&&&&  @@++++####@@@@@@@@",
"@@@@@@@@@@@@@@@@++++  ....    &&&&&&&&&&&&&&  @@++++####@@@@@@@@",
"@@@@####@@@@++++++  ......    &&&&&&&&&&&&&&&&  OOOO@@@@@@@@$$$$",
"@@@@####@@@@++++++  ......    &&&&&&&&&&&&&&&&  OOOO@@@@@@@@$$$$",
"@@@@####@@@@++++++    ....%%%%&&&&      &&&&&&  OOOO@@@@@@@@$$$$",
"@@@@####@@@@++++++    ....%%%%&&&&      &&&&&&  OOOO@@@@@@@@$$$$",
"++++@@@@++++++++  **    %%%%%%&&  ****    &&&&&&  OO++++@@@@@@@@",
"++++@@@@++++++++  **    %%%%%%&&  ****    &&&&&&  OO++++@@@@@@@@",
"++++@@@@++++++++  **    %%%%%%&&  ****    &&&&&&  OO++++@@@@@@@@",
"++++@@@@++++++++  **    %%%%%%&&  ****    &&&&&&  OO++++@@@@@@@@",
"++++++++++++OOOO        %%%%%%&&          &&&&&&  ++++++OOOOOOOO",
"++++++++++++OOOO        %%%%%%&&          &&&&&&  ++++++OOOOOOOO",
"++++++++++++OOOO      ..%%%%%%%%&&      &&&&&&&&  ++++++OOOOOOOO",
"++++++++++++OOOO      ..%%%%%%%%&&      &&&&&&&&  ++++++OOOOOOOO",
"++++++++++++++++  ......%%%%%%%%&&&&&&&&&&&&&&&&  OO++++OOOO++++",
"++++++++++++++++  ......%%%%%%%%&&&&&&&&&&&&&&&&  OO++++OOOO++++",
"++++++++++++++++OO  ......%%%%%%%%&&&&&&&&&&&&  OOOO++++OOOO++++",
"++++++++++++++++OO  ......%%%%%%%%&&&&&&&&&&&&  OOOO++++OOOO++++",
"++++++++@@@@####@@  ......    %%%%%%%%&&&&&&&&  ++++@@@@$$$$@@@@",
"++++++++@@@@####@@  ......    %%%%%%%%&&&&&&&&  ++++@@@@$$$$@@@@",
"++++++++@@@@####@@@@  ....%%%%%%%%%%%%%%%%%%  ++++++@@@@$$$$@@@@",
"++++++++@@@@####@@@@  ....%%%%%%%%%%%%%%%%%%  ++++++@@@@$$$$@@@@",
"++++@@@@@@@@$$$$####  ......%%%%%%%%%%%%XXXX  ##@@@@####$$$$@@@@",
"++++@@@@@@@@$$$$####  ......%%%%%%%%%%%%XXXX  ##@@@@####$$$$@@@@",
"++++@@@@@@@@$$$$####  XX........%%XXXXXXoooo  ##@@@@####$$$$@@@@",
"++++@@@@@@@@$$$$####  XX........%%XXXXXXoooo  ##@@@@####$$$$@@@@",
"@@@@@@@@++++@@@@$$$$  ooXXXXXXXXXXoooooooo  ..  ++++OOOO++++@@@@",
"@@@@@@@@++++@@@@$$$$  ooXXXXXXXXXXoooooooo  ..  ++++OOOO++++@@@@",
"@@@@@@@@++++@@@@$$$$  oooooooooooooooo    ..%%  ++++OOOO++++@@@@",
"@@@@@@@@++++@@@@$$$$  oooooooooooooooo    ..%%  ++++OOOO++++@@@@",
"++++++++++++@@@@$$  ..  oooooooooooo  ....%%%%%%  ++++++@@@@@@@@",
"++++++++++++@@@@$$  ..  oooooooooooo  ....%%%%%%  ++++++@@@@@@@@",
"++++++++++++@@@@$$  ....oooooooo    ....%%%%%%%%  ++++++@@@@@@@@",
"++++++++++++@@@@$$  ....oooooooo    ....%%%%%%%%  ++++++@@@@@@@@",
"++++++++++++@@@@##  ....  oo    ....%%%%..%%%%%%  ++####@@@@@@@@",
"++++++++++++@@@@##  ....  oo    ....%%%%..%%%%%%  ++####@@@@@@@@",
"++++++++++++@@@@####    ..  ....%%%%%%%%%%....  ++++####@@@@@@@@",
"++++++++++++@@@@####    ..  ....%%%%%%%%%%....  ++++####@@@@@@@@",
"++++OOOO++++++++@@@@##  ..........%%%%%%%%%%  ++++++++++####++++",
"++++OOOO++++++++@@@@##  ..........%%%%%%%%%%  ++++++++++####++++",
"++++OOOO++++++++@@@@##  ........    %%%%%%%%  ++++++++++####++++",
"++++OOOO++++++++@@@@##  ........    %%%%%%%%  ++++++++++####++++",
"OOOO++++@@@@++++OOOO++++  ......    %%%%%%%%  ++OOOO++++++++++++",
"OOOO++++@@@@++++OOOO++++  ......    %%%%%%%%  ++OOOO++++++++++++",
"OOOO++++@@@@++++OOOO++++  ......  @@  %%%%%%  ++OOOO++++++++++++",
"OOOO++++@@@@++++OOOO++++  ......  @@  %%%%%%  ++OOOO++++++++++++"
};
