/* XPM */
static char *idle_l_2[] = {
/* columns rows colors chars-per-pixel */
"64 64 12 1 ",
"  c #04193F",
". c #03396B",
"X c #C3242F",
"o c #E7333B",
"O c #C6E763",
"+ c #CEEF63",
"@ c #D6EF63",
"# c #D6F763",
"$ c #E7F763",
"% c #0696DB",
"& c #0FEFFB",
"* c #FCFEFE",
/* pixels */
"@@@@@@@@@@@@++++++++++++++++@@@@++++++++++++@@@@########$$$$$$$$",
"@@@@@@@@@@@@++++++++++++++++@@@@++++++++++++@@@@########$$$$$$$$",
"@@@@@@@@@@@@++++++++++++++++@@@@++++++++++++@@@@########$$$$$$$$",
"@@@@@@@@@@@@++++++++++++++++@@@@++++++++++++@@@@########$$$$$$$$",
"$$$$$$$$@@@@OOOO++++++++++++++++@@@@@@@@########@@@@@@@@########",
"$$$$$$$$@@@@OOOO++++++++++++++++@@@@@@@@########@@@@@@@@########",
"$$$$$$$$@@@@OOOO++++++++++++++++@@@@@@@@########@@@@@@@@########",
"$$$$$$$$@@@@OOOO++++++++++++++++@@@@@@@@########@@@@@@@@########",
"@@@@$$$$++++++++@@@@@@@@####@@@@####$$$$####++++@@@@@@@@++++$$$$",
"@@@@$$$$++++++++@@@@@@@@####@@@@####$$$$####++++@@@@@@@@++++$$$$",
"@@@@$$$$++++++++@@@@@@@@####          $$####++++@@@@@@@@++++$$$$",
"@@@@$$$$++++++++@@@@@@@@####          $$####++++@@@@@@@@++++$$$$",
"####@@@@@@@@@@@@++++@@@@    %%%%&&&&&&    @@++++++++@@@@++++####",
"####@@@@@@@@@@@@++++@@@@    %%%%&&&&&&    @@++++++++@@@@++++####",
"####@@@@@@@@@@@@++++@@  ....%%&&&&&&&&&&&&  ++++++++@@@@++++####",
"####@@@@@@@@@@@@++++@@  ....%%&&&&&&&&&&&&  ++++++++@@@@++++####",
"@@@@@@@@@@@@@@@@++++  ....    &&&&&&&&&&&&&&  @@++++####@@@@@@@@",
"@@@@@@@@@@@@@@@@++++  ....    &&&&&&&&&&&&&&  @@++++####@@@@@@@@",
"@@@@@@@@@@@@@@@@++  ......    &&&&&&&&&&&&&&&&  ++++####@@@@@@@@",
"@@@@@@@@@@@@@@@@++  ......    &&&&&&&&&&&&&&&&  ++++####@@@@@@@@",
"@@@@####@@@@++++++    ....%%%%&&&&      &&&&&&  OOOO@@@@@@@@$$$$",
"@@@@####@@@@++++++    ....%%%%&&&&      &&&&&&  OOOO@@@@@@@@$$$$",
"@@@@####@@@@++++  **    %%%%%%&&  ****    &&&&&&  OO@@@@@@@@$$$$",
"@@@@####@@@@++++  **    %%%%%%&&  ****    &&&&&&  OO@@@@@@@@$$$$",
"++++@@@@++++++++  **    %%%%%%&&  ****    &&&&&&  OO++++@@@@@@@@",
"++++@@@@++++++++  **    %%%%%%&&  ****    &&&&&&  OO++++@@@@@@@@",
"++++@@@@++++++++        %%%%%%&&          &&&&&&  OO++++@@@@@@@@",
"++++@@@@++++++++        %%%%%%&&          &&&&&&  OO++++@@@@@@@@",
"++++++++++++OOOO      ..%%%%%%%%&&      &&&&&&&&  ++++++OOOOOOOO",
"++++++++++++OOOO      ..%%%%%%%%&&      &&&&&&&&  ++++++OOOOOOOO",
"++++++++++++OOOO  ......%%%%%%%%&&&&&&&&&&&&&&&&  ++++++OOOOOOOO",
"++++++++++++OOOO  ......%%%%%%%%&&&&&&&&&&&&&&&&  ++++++OOOOOOOO",
"++++++++++++++++OO  ......%%%%%%%%&&&&&&&&&&&&  OOOO++++OOOO++++",
"++++++++++++++++OO  ......%%%%%%%%&&&&&&&&&&&&  OOOO++++OOOO++++",
"++++++++++++++++OO  ......    %%%%%%%%&&&&&&&&  OOOO++++OOOO++++",
"++++++++++++++++OO  ......    %%%%%%%%&&&&&&&&  OOOO++++OOOO++++",
"++++++++@@@@####@@@@  ....%%%%%%%%%%%%%%%%%%  ++++++@@@@$$$$@@@@",
"++++++++@@@@####@@@@  ....%%%%%%%%%%%%%%%%%%  ++++++@@@@$$$$@@@@",
"++++++++@@@@####@@@@  ......%%%%%%%%%%%%XXXX  ++++++@@@@$$$$@@@@",
"++++++++@@@@####@@@@  ......%%%%%%%%%%%%XXXX  ++++++@@@@$$$$@@@@",
"++++@@@@@@@@$$$$####  XX..........XXXXXXoo..  ##@@@@####$$$$@@@@",
"++++@@@@@@@@$$$$####  XX..........XXXXXXoo..  ##@@@@####$$$$@@@@",
"++++@@@@@@@@$$$$####  ooXXXXXXXXXXoooooo..%%%%  @@@@####$$$$@@@@",
"++++@@@@@@@@$$$$####  ooXXXXXXXXXXoooooo..%%%%  @@@@####$$$$@@@@",
"@@@@@@@@++++@@@@$$    oooooooooooooooo  %%%%%%%%  ++OOOO++++@@@@",
"@@@@@@@@++++@@@@$$    oooooooooooooooo  %%%%%%%%  ++OOOO++++@@@@",
"@@@@@@@@++++@@@@  ....  oooooooooooo  ....%%%%%%%%  OOOO++++@@@@",
"@@@@@@@@++++@@@@  ....  oooooooooooo  ....%%%%%%%%  OOOO++++@@@@",
"++++++++++++@@@@  ....  oooooooo    ..%%..%%%%%%%%  ++++@@@@@@@@",
"++++++++++++@@@@  ....  oooooooo    ..%%..%%%%%%%%  ++++@@@@@@@@",
"++++++++++++@@@@  ....    oo    ....%%%%%%..%%%%%%  ++++@@@@@@@@",
"++++++++++++@@@@  ....    oo    ....%%%%%%..%%%%%%  ++++@@@@@@@@",
"++++++++++++@@@@##      ..  ....%%%%%%%%%%%%..    ++####@@@@@@@@",
"++++++++++++@@@@##      ..  ....%%%%%%%%%%%%..    ++####@@@@@@@@",
"++++++++++++@@@@####$$  ..........%%%%%%%%%%  ++++++####@@@@@@@@",
"++++++++++++@@@@####$$  ..........%%%%%%%%%%  ++++++####@@@@@@@@",
"++++OOOO++++++++@@@@##  ........    %%%%%%%%  ++++++++++####++++",
"++++OOOO++++++++@@@@##  ........    %%%%%%%%  ++++++++++####++++",
"++++OOOO++++++++@@@@####  ......    %%%%%%%%  ++++++++++####++++",
"++++OOOO++++++++@@@@####  ......    %%%%%%%%  ++++++++++####++++",
"OOOO++++@@@@++++OOOO++++  ......  @@  %%%%%%  ++OOOO++++++++++++",
"OOOO++++@@@@++++OOOO++++  ......  @@  %%%%%%  ++OOOO++++++++++++",
"OOOO++++@@@@++++OOOO++++  ......  @@  %%%%%%  ++OOOO++++++++++++",
"OOOO++++@@@@++++OOOO++++  ......  @@  %%%%%%  ++OOOO++++++++++++"
};
