/* XPM */
static char *jump_r_4[] = {
/* columns rows colors chars-per-pixel */
"64 64 12 1 ",
"  c #04193F",
". c #03396B",
"X c #C3242F",
"o c #E7333B",
"O c #C6E763",
"+ c #CEEF63",
"@ c #D6EF63",
"# c #D6F763",
"$ c #E7F763",
"% c #0696DB",
"& c #0FEFFB",
"* c #FCFEFE",
/* pixels */
"@@@@@@@@@@@@++++++++++++++++@@@@++++++++++++@@@@########$$$$$$$$",
"@@@@@@@@@@@@++++++++++++++++@@@@++++++++++++@@@@########$$$$$$$$",
"@@@@@@@@@@@@++++++++++++++++@@@@++++++++++++@@@@########$$$$$$$$",
"@@@@@@@@@@@@++++++++++++++++@@@@++++++++++++@@@@########$$$$$$$$",
"$$$$$$$$@@@@OOOO++++++++++          @@@@########@@@@@@@@########",
"$$$$$$$$@@@@OOOO++++++++++          @@@@########@@@@@@@@########",
"$$$$$$$$@@@@OOOO++++++    &&&&&&%%%%    ########@@@@@@@@########",
"$$$$$$$$@@@@OOOO++++++    &&&&&&%%%%    ########@@@@@@@@########",
"@@@@$$$$++++++++@@@@  &&&&&&&&&&&&%%....  ##++++@@@@@@@@++++$$$$",
"@@@@$$$$++++++++@@@@  &&&&&&&&&&&&%%....  ##++++@@@@@@@@++++$$$$",
"@@@@$$$$++++++++@@  &&&&&&&&&&&&&&    ....  ++++@@@@@@@@++++$$$$",
"@@@@$$$$++++++++@@  &&&&&&&&&&&&&&    ....  ++++@@@@@@@@++++$$$$",
"####@@@@@@@@@@@@  &&&&&&&&&&&&&&&&    ......  ++++++@@@@++++####",
"####@@@@@@@@@@@@  &&&&&&&&&&&&&&&&    ......  ++++++@@@@++++####",
"####@@@@@@@@@@@@  &&&&&&      &&&&%%%%....    ++++++@@@@++++####",
"####@@@@@@@@@@@@  &&&&&&      &&&&%%%%....    ++++++@@@@++++####",
"@@@@@@@@@@@@@@  &&&&&&    ****  &&%%%%%%    **  ++++####@@@@@@@@",
"@@@@@@@@@@@@@@  &&&&&&    ****  &&%%%%%%    **  ++++####@@@@@@@@",
"@@@@@@@@@@@@@@  &&&&&&    ****  &&%%%%%%    **  ++++####@@@@@@@@",
"@@@@@@@@@@@@@@  &&&&&&    ****  &&%%%%%%    **  ++++####@@@@@@@@",
"@@@@####@@@@++  &&&&&&          &&%%%%%%        OOOO@@@@@@@@$$$$",
"@@@@####@@@@++  &&&&&&          &&%%%%%%        OOOO@@@@@@@@$$$$",
"@@@@####@@@@++  &&&&&&&&      &&%%%%%%%%..      OOOO@@@@@@@@$$$$",
"@@@@####@@@@++  &&&&&&&&      &&%%%%%%%%..      OOOO@@@@@@@@$$$$",
"++++@@@@++++++  &&&&&&&&&&&&&&&&%%%%%%%%......  OOOO++++@@@@@@@@",
"++++@@@@++++++  &&&&&&&&&&&&&&&&%%%%%%%%......  OOOO++++@@@@@@@@",
"++++@@@@++++++++  &&&&&&&&&&&&%%%%%%%%......  ++OOOO++++@@@@@@@@",
"++++@@@@++++++++  &&&&&&&&&&&&%%%%%%%%......  ++OOOO++++@@@@@@@@",
"++++++++++++OOOO  &&&&&&&&%%%%%%%%    ......  ++++++++++OOOOOOOO",
"++++++++++++OOOO  &&&&&&&&%%%%%%%%    ......  ++++++++++OOOOOOOO",
"++++++++++++OOOOOO  %%%%%%%%%%%%%%%%%%....  ++++++++++++OOOOOOOO",
"++++++++++++OOOOOO  %%%%%%%%%%%%%%%%%%....  ++++++++++++OOOOOOOO",
"++++++++++++++++OO  XXXX%%%%%%%%%%%%......  ++++OOOO++++OOOO++++",
"++++++++++++++++OO  XXXX%%%%%%%%%%%%......  ++++OOOO++++OOOO++++",
"++++++++++++++++OO  ..ooXXXXXX..........XX  ++++OOOO++++OOOO++++",
"++++++++++++++++OO  ..ooXXXXXX..........XX  ++++OOOO++++OOOO++++",
"++++++++@@@@####  %%%%..ooooooXXXXXXXXXXoo  ++++++++@@@@$$$$@@@@",
"++++++++@@@@####  %%%%..ooooooXXXXXXXXXXoo  ++++++++@@@@$$$$@@@@",
"++++++++@@@@##  %%%%%%%%..oooooooooooooooo  ++++++++@@@@$$$$@@@@",
"++++++++@@@@##  %%%%%%%%..oooooooooooooooo  ++++++++@@@@$$$$@@@@",
"++++@@@@@@@@  %%%%%%%%%%..  oooooooooooooo    ##@@@@####$$$$@@@@",
"++++@@@@@@@@  %%%%%%%%%%..  oooooooooooooo    ##@@@@####$$$$@@@@",
"++++@@@@@@@@  %%%%%%%%..%%..  oooooooooo  ....  @@@@####$$$$@@@@",
"++++@@@@@@@@  %%%%%%%%..%%..  oooooooooo  ....  @@@@####$$$$@@@@",
"@@@@@@@@++++  %%%%%%..%%%%%%..    oooooo  ....  ++++OOOO++++@@@@",
"@@@@@@@@++++  %%%%%%..%%%%%%..    oooooo  ....  ++++OOOO++++@@@@",
"@@@@@@@@++++@@    ..%%%%%%%%%%....  oo        @@++++OOOO++++@@@@",
"@@@@@@@@++++@@    ..%%%%%%%%%%....  oo        @@++++OOOO++++@@@@",
"++++++++++++@@@@$$  %%%%%%%%%%......  ..  ++++++++++++++@@@@@@@@",
"++++++++++++@@@@$$  %%%%%%%%%%......  ..  ++++++++++++++@@@@@@@@",
"++++++++++++@@@@$$  %%%%%%%%    ........  ++++++++++++++@@@@@@@@",
"++++++++++++@@@@$$  %%%%%%%%    ........  ++++++++++++++@@@@@@@@",
"++++++++++++@@@@##  %%%%%%%%    ......  ++++++++++++####@@@@@@@@",
"++++++++++++@@@@##  %%%%%%%%    ......  ++++++++++++####@@@@@@@@",
"++++++++++++@@@@##  %%%%%%  ++  ......  ++++++++++++####@@@@@@@@",
"++++++++++++@@@@##  %%%%%%  ++  ......  ++++++++++++####@@@@@@@@",
"++++OOOO++++++++@@@@        ++++        ++++++++++++++++####++++",
"++++OOOO++++++++@@@@        ++++        ++++++++++++++++####++++",
"++++OOOO++++++++@@@@####@@@@++++@@@@@@@@++++++++++++++++####++++",
"++++OOOO++++++++@@@@####@@@@++++@@@@@@@@++++++++++++++++####++++",
"OOOO++++@@@@++++OOOO++++@@@@@@@@@@@@########++++OOOO++++++++++++",
"OOOO++++@@@@++++OOOO++++@@@@@@@@@@@@########++++OOOO++++++++++++",
"OOOO++++@@@@++++OOOO++++@@@@@@@@@@@@########++++OOOO++++++++++++",
"OOOO++++@@@@++++OOOO++++@@@@@@@@@@@@########++++OOOO++++++++++++"
};
