/* XPM */
static char *jump_l_4[] = {
/* columns rows colors chars-per-pixel */
"64 64 12 1 ",
"  c #04193F",
". c #03396B",
"X c #C3242F",
"o c #E7333B",
"O c #C6E763",
"+ c #CEEF63",
"@ c #D6EF63",
"# c #D6F763",
"$ c #E7F763",
"% c #0696DB",
"& c #0FEFFB",
"* c #FCFEFE",
/* pixels */
"@@@@@@@@@@@@++++++++++++++++@@@@++++++++++++@@@@########$$$$$$$$",
"@@@@@@@@@@@@++++++++++++++++@@@@++++++++++++@@@@########$$$$$$$$",
"@@@@@@@@@@@@++++++++++++++++@@@@++++++++++++@@@@########$$$$$$$$",
"@@@@@@@@@@@@++++++++++++++++@@@@++++++++++++@@@@########$$$$$$$$",
"$$$$$$$$@@@@OOOO++++++++++++          @@########@@@@@@@@########",
"$$$$$$$$@@@@OOOO++++++++++++          @@########@@@@@@@@########",
"$$$$$$$$@@@@OOOO++++++++    %%%%&&&&&&    ######@@@@@@@@########",
"$$$$$$$$@@@@OOOO++++++++    %%%%&&&&&&    ######@@@@@@@@########",
"@@@@$$$$++++++++@@@@@@  ....%%&&&&&&&&&&&&  ++++@@@@@@@@++++$$$$",
"@@@@$$$$++++++++@@@@@@  ....%%&&&&&&&&&&&&  ++++@@@@@@@@++++$$$$",
"@@@@$$$$++++++++@@@@  ....    &&&&&&&&&&&&&&  ++@@@@@@@@++++$$$$",
"@@@@$$$$++++++++@@@@  ....    &&&&&&&&&&&&&&  ++@@@@@@@@++++$$$$",
"####@@@@@@@@@@@@++  ......    &&&&&&&&&&&&&&&&  ++++@@@@++++####",
"####@@@@@@@@@@@@++  ......    &&&&&&&&&&&&&&&&  ++++@@@@++++####",
"####@@@@@@@@@@@@++    ....%%%%&&&&      &&&&&&  ++++@@@@++++####",
"####@@@@@@@@@@@@++    ....%%%%&&&&      &&&&&&  ++++@@@@++++####",
"@@@@@@@@@@@@@@@@  **    %%%%%%&&  ****    &&&&&&  ++####@@@@@@@@",
"@@@@@@@@@@@@@@@@  **    %%%%%%&&  ****    &&&&&&  ++####@@@@@@@@",
"@@@@@@@@@@@@@@@@  **    %%%%%%&&  ****    &&&&&&  ++####@@@@@@@@",
"@@@@@@@@@@@@@@@@  **    %%%%%%&&  ****    &&&&&&  ++####@@@@@@@@",
"@@@@####@@@@++++        %%%%%%&&          &&&&&&  OO@@@@@@@@$$$$",
"@@@@####@@@@++++        %%%%%%&&          &&&&&&  OO@@@@@@@@$$$$",
"@@@@####@@@@++++      ..%%%%%%%%&&      &&&&&&&&  OO@@@@@@@@$$$$",
"@@@@####@@@@++++      ..%%%%%%%%&&      &&&&&&&&  OO@@@@@@@@$$$$",
"++++@@@@++++++++  ......%%%%%%%%&&&&&&&&&&&&&&&&  OO++++@@@@@@@@",
"++++@@@@++++++++  ......%%%%%%%%&&&&&&&&&&&&&&&&  OO++++@@@@@@@@",
"++++@@@@++++++++++  ......%%%%%%%%&&&&&&&&&&&&  OOOO++++@@@@@@@@",
"++++@@@@++++++++++  ......%%%%%%%%&&&&&&&&&&&&  OOOO++++@@@@@@@@",
"++++++++++++OOOOOO  ......    %%%%%%%%&&&&&&&&  ++++++++OOOOOOOO",
"++++++++++++OOOOOO  ......    %%%%%%%%&&&&&&&&  ++++++++OOOOOOOO",
"++++++++++++OOOOOOOO  ....%%%%%%%%%%%%%%%%%%  ++++++++++OOOOOOOO",
"++++++++++++OOOOOOOO  ....%%%%%%%%%%%%%%%%%%  ++++++++++OOOOOOOO",
"++++++++++++++++OOOO  ......%%%%%%%%%%%%XXXX  ++OOOO++++OOOO++++",
"++++++++++++++++OOOO  ......%%%%%%%%%%%%XXXX  ++OOOO++++OOOO++++",
"++++++++++++++++OOOO  XX..........XXXXXXoo..  ++OOOO++++OOOO++++",
"++++++++++++++++OOOO  XX..........XXXXXXoo..  ++OOOO++++OOOO++++",
"++++++++@@@@####@@@@  ooXXXXXXXXXXoooooo..%%%%  ++++@@@@$$$$@@@@",
"++++++++@@@@####@@@@  ooXXXXXXXXXXoooooo..%%%%  ++++@@@@$$$$@@@@",
"++++++++@@@@####@@@@  oooooooooooooooo..%%%%%%%%  ++@@@@$$$$@@@@",
"++++++++@@@@####@@@@  oooooooooooooooo..%%%%%%%%  ++@@@@$$$$@@@@",
"++++@@@@@@@@$$$$##    oooooooooooooo  ..%%%%%%%%%%  ####$$$$@@@@",
"++++@@@@@@@@$$$$##    oooooooooooooo  ..%%%%%%%%%%  ####$$$$@@@@",
"++++@@@@@@@@$$$$  ....  oooooooooo  ..%%..%%%%%%%%  ####$$$$@@@@",
"++++@@@@@@@@$$$$  ....  oooooooooo  ..%%..%%%%%%%%  ####$$$$@@@@",
"@@@@@@@@++++@@@@  ....  oooooo    ..%%%%%%..%%%%%%  OOOO++++@@@@",
"@@@@@@@@++++@@@@  ....  oooooo    ..%%%%%%..%%%%%%  OOOO++++@@@@",
"@@@@@@@@++++@@@@$$        oo  ....%%%%%%%%%%..    ++OOOO++++@@@@",
"@@@@@@@@++++@@@@$$        oo  ....%%%%%%%%%%..    ++OOOO++++@@@@",
"++++++++++++@@@@$$$$$$  ..  ......%%%%%%%%%%  ++++++++++@@@@@@@@",
"++++++++++++@@@@$$$$$$  ..  ......%%%%%%%%%%  ++++++++++@@@@@@@@",
"++++++++++++@@@@$$$$$$  ........    %%%%%%%%  ++++++++++@@@@@@@@",
"++++++++++++@@@@$$$$$$  ........    %%%%%%%%  ++++++++++@@@@@@@@",
"++++++++++++@@@@####$$$$  ......    %%%%%%%%  ++++++####@@@@@@@@",
"++++++++++++@@@@####$$$$  ......    %%%%%%%%  ++++++####@@@@@@@@",
"++++++++++++@@@@####$$$$  ......  ++  %%%%%%  ++++++####@@@@@@@@",
"++++++++++++@@@@####$$$$  ......  ++  %%%%%%  ++++++####@@@@@@@@",
"++++OOOO++++++++@@@@####        @@@@        ++++++++++++####++++",
"++++OOOO++++++++@@@@####        @@@@        ++++++++++++####++++",
"++++OOOO++++++++@@@@####@@@@++++@@@@@@@@++++++++++++++++####++++",
"++++OOOO++++++++@@@@####@@@@++++@@@@@@@@++++++++++++++++####++++",
"OOOO++++@@@@++++OOOO++++@@@@@@@@@@@@########++++OOOO++++++++++++",
"OOOO++++@@@@++++OOOO++++@@@@@@@@@@@@########++++OOOO++++++++++++",
"OOOO++++@@@@++++OOOO++++@@@@@@@@@@@@########++++OOOO++++++++++++",
"OOOO++++@@@@++++OOOO++++@@@@@@@@@@@@########++++OOOO++++++++++++"
};
