/* XPM */
static char *jump_r_6[] = {
/* columns rows colors chars-per-pixel */
"64 64 12 1 ",
"  c #04193F",
". c #03396B",
"X c #C3242F",
"o c #E7333B",
"O c #C6E763",
"+ c #CEEF63",
"@ c #D6EF63",
"# c #D6F763",
"$ c #E7F763",
"% c #0696DB",
"& c #0FEFFB",
"* c #FCFEFE",
/* pixels */
"@@@@@@@@@@@@++++++++++++++++@@@@++++++++++++@@@@########$$$$$$$$",
"@@@@@@@@@@@@++++++++++++++++@@@@++++++++++++@@@@########$$$$$$$$",
"@@@@@@@@@@@@++++++++++++++++@@@@++++++++++++@@@@########$$$$$$$$",
"@@@@@@@@@@@@++++++++++++++++@@@@++++++++++++@@@@########$$$$$$$$",
"$$$$$$$$@@@@OOOO++++++++++++++++@@@@@@@@########@@@@@@@@########",
"$$$$$$$$@@@@OOOO++++++++++++++++@@@@@@@@########@@@@@@@@########",
"$$$$$$$$@@@@OOOO++++++++++++++++@@@@@@@@########@@@@@@@@########",
"$$$$$$$$@@@@OOOO++++++++++++++++@@@@@@@@########@@@@@@@@########",
"@@@@$$$$++++++++@@@@@@@@####@@@@####$$$$####++++@@@@@@@@++++$$$$",
"@@@@$$$$++++++++@@@@@@@@####@@@@####$$$$####++++@@@@@@@@++++$$$$",
"@@@@$$$$++++++++@@@@@@@@####@@@@####$$$$####++++@@@@@@@@++++$$$$",
"@@@@$$$$++++++++@@@@@@@@####@@@@####$$$$####++++@@@@@@@@++++$$$$",
"####@@@@@@@@@@@@++++@@@@$$$$@@@@@@@@####@@@@++++++++@@@@++++####",
"####@@@@@@@@@@@@++++@@@@$$$$@@@@@@@@####@@@@++++++++@@@@++++####",
"####@@@@@@@@@@@@++++@@@@$$$$@@@@@@@@####@@@@++++++++@@@@++++####",
"####@@@@@@@@@@@@++++@@@@$$$$@@@@@@@@####@@@@++++++++@@@@++++####",
"@@@@@@@@@@@@@@@@++++@@@@@@          @@@@@@@@@@@@++++####@@@@@@@@",
"@@@@@@@@@@@@@@@@++++@@@@@@          @@@@@@@@@@@@++++####@@@@@@@@",
"@@@@@@@@@@@@@@@@++++@@    &&&&&&%%%%    @@@@@@@@++++####@@@@@@@@",
"@@@@@@@@@@@@@@@@++++@@    &&&&&&%%%%    @@@@@@@@++++####@@@@@@@@",
"@@@@####@@@@++++++++  &&&&&&&&&&&&%%....  @@++++OOOO@@@@@@@@$$$$",
"@@@@####@@@@++++++++  &&&&&&&&&&&&%%....  @@++++OOOO@@@@@@@@$$$$",
"@@@@####@@@@++++++  &&&&&&&&&&&&&&    ....  ++++OOOO@@@@@@@@$$$$",
"@@@@####@@@@++++++  &&&&&&&&&&&&&&    ....  ++++OOOO@@@@@@@@$$$$",
"++++@@@@++++++++  &&&&&&&&&&&&&&&&    ......  ++OOOO++++@@@@@@@@",
"++++@@@@++++++++  &&&&&&&&&&&&&&&&    ......  ++OOOO++++@@@@@@@@",
"++++@@@@++++++++  &&&&&&      &&&&%%%%....    ++OOOO++++@@@@@@@@",
"++++@@@@++++++++  &&&&&&      &&&&%%%%....    ++OOOO++++@@@@@@@@",
"++++++++++++OO  &&&&&&    ****  &&%%%%%%    **  ++++++++OOOOOOOO",
"++++++++++++OO  &&&&&&    ****  &&%%%%%%    **  ++++++++OOOOOOOO",
"++++++++++++OO  &&&&&&          &&%%%%%%        ++++++++OOOOOOOO",
"++++++++++++OO  &&&&&&          &&%%%%%%        ++++++++OOOOOOOO",
"++++++++++++++  &&&&&&          &&%%%%%%        OOOO++++OOOO++++",
"++++++++++++++  &&&&&&          &&%%%%%%        OOOO++++OOOO++++",
"++++++++++++++  &&&&&&&&      &&%%%%%%%%..      OOOO++++OOOO++++",
"++++++++++++++  &&&&&&&&      &&%%%%%%%%..      OOOO++++OOOO++++",
"++++++++@@@@##  &&&&&&&&&&&&&&&&%%%%%%%%......  ++++@@@@$$$$@@@@",
"++++++++@@@@##  &&&&&&&&&&&&&&&&%%%%%%%%......  ++++@@@@$$$$@@@@",
"++++++++@@@@####  &&&&&&&&&&&&%%%%%%%%......  ++++++@@@@$$$$@@@@",
"++++++++@@@@####  &&&&&&&&&&&&%%%%%%%%......  ++++++@@@@$$$$@@@@",
"++++@@@@@@@@$$$$  &&&&&&&&%%%%%%%%    ......  ##@@@@####$$$$@@@@",
"++++@@@@@@@@$$$$  &&&&&&&&%%%%%%%%    ......  ##@@@@####$$$$@@@@",
"++++@@@@@@@@$$$$##  %%%%%%%%%%%%%%%%%%....  ####@@@@####$$$$@@@@",
"++++@@@@@@@@$$$$##  %%%%%%%%%%%%%%%%%%....  ####@@@@####$$$$@@@@",
"@@@@@@@@++          XXXX%%%%%%%%%%%%......        ++OOOO++++@@@@",
"@@@@@@@@++          XXXX%%%%%%%%%%%%......        ++OOOO++++@@@@",
"@@@@@@@@  %%%%%%%%%%..ooXXXXXX..........XX  ......  OOOO++++@@@@",
"@@@@@@@@  %%%%%%%%%%..ooXXXXXX..........XX  ......  OOOO++++@@@@",
"++++++++  %%%%%%%%%%%%..ooooooXXXXXXXXXXoo  ......  ++++@@@@@@@@",
"++++++++  %%%%%%%%%%%%..ooooooXXXXXXXXXXoo  ......  ++++@@@@@@@@",
"++++++++  %%%%%%%%%%%%%%..  oooooooooooo  ........  ++++@@@@@@@@",
"++++++++  %%%%%%%%%%%%%%..  oooooooooooo  ........  ++++@@@@@@@@",
"++++++++++        ....%%%%..    oooooo            ++####@@@@@@@@",
"++++++++++        ....%%%%..    oooooo            ++####@@@@@@@@",
"++++++++++++@@@@##  %%%%%%%%....      ..  ++++++++++####@@@@@@@@",
"++++++++++++@@@@##  %%%%%%%%....      ..  ++++++++++####@@@@@@@@",
"++++OOOO++++++++@@  %%%%%%%%%%..........  ++++++++++++++####++++",
"++++OOOO++++++++@@  %%%%%%%%%%..........  ++++++++++++++####++++",
"++++OOOO++++++++@@  %%%%%%%%%%..........  ++++++++++++++####++++",
"++++OOOO++++++++@@  %%%%%%%%%%..........  ++++++++++++++####++++",
"OOOO++++@@@@++++OO  %%%%%%%%    ........  ##++++OOOO++++++++++++",
"OOOO++++@@@@++++OO  %%%%%%%%    ........  ##++++OOOO++++++++++++",
"OOOO++++@@@@++++OO  %%%%%%  @@  ......  ####++++OOOO++++++++++++",
"OOOO++++@@@@++++OO  %%%%%%  @@  ......  ####++++OOOO++++++++++++"
};
