/* XPM */
static char *walk_l_3[] = {
/* columns rows colors chars-per-pixel */
"64 64 12 1 ",
"  c #04193F",
". c #03396B",
"X c #C3242F",
"o c #E7333B",
"O c #C6E763",
"+ c #CEEF63",
"@ c #D6EF63",
"# c #D6F763",
"$ c #E7F763",
"% c #0696DB",
"& c #0FEFFB",
"* c #FCFEFE",
/* pixels */
"@@@@@@@@@@@@++++++++++++++++@@@@++++++++++++@@@@########$$$$$$$$",
"@@@@@@@@@@@@++++++++++++++++@@@@++++++++++++@@@@########$$$$$$$$",
"@@@@@@@@@@@@++++++++++++++++@@@@++++++++++++@@@@########$$$$$$$$",
"@@@@@@@@@@@@++++++++++++++++@@@@++++++++++++@@@@########$$$$$$$$",
"$$$$$$$$@@@@OOOO++++++++++++++++@@@@@@@@########@@@@@@@@########",
"$$$$$$$$@@@@OOOO++++++++++++++++@@@@@@@@########@@@@@@@@########",
"$$$$$$$$@@@@OOOO++++++++++++++++@@@@@@@@########@@@@@@@@########",
"$$$$$$$$@@@@OOOO++++++++++++++++@@@@@@@@########@@@@@@@@########",
"@@@@$$$$++++++++@@@@@@@@####@@@@####$$$$####++++@@@@@@@@++++$$$$",
"@@@@$$$$++++++++@@@@@@@@####@@@@####$$$$####++++@@@@@@@@++++$$$$",
"@@@@$$$$++++++++@@@@@@@@####@@@@####$$$$####++++@@@@@@@@++++$$$$",
"@@@@$$$$++++++++@@@@@@@@####@@@@####$$$$####++++@@@@@@@@++++$$$$",
"####@@@@@@@@@@@@++++@@@@$$$$@@@@@@@@####@@@@++++++++@@@@++++####",
"####@@@@@@@@@@@@++++@@@@$$$$@@@@@@@@####@@@@++++++++@@@@++++####",
"####@@@@@@@@@@@@++++@@@@$$$$          ##@@@@++++++++@@@@++++####",
"####@@@@@@@@@@@@++++@@@@$$$$          ##@@@@++++++++@@@@++++####",
"@@@@@@@@@@@@@@@@++++@@@@    %%%%&&&&&&    @@@@@@++++####@@@@@@@@",
"@@@@@@@@@@@@@@@@++++@@@@    %%%%&&&&&&    @@@@@@++++####@@@@@@@@",
"@@@@@@@@@@@@@@@@++++@@  ....%%&&&&&&&&&&&&  @@@@++++####@@@@@@@@",
"@@@@@@@@@@@@@@@@++++@@  ....%%&&&&&&&&&&&&  @@@@++++####@@@@@@@@",
"@@@@####@@@@++++++++  ....    &&&&&&&&&&&&&&  ++OOOO@@@@@@@@$$$$",
"@@@@####@@@@++++++++  ....    &&&&&&&&&&&&&&  ++OOOO@@@@@@@@$$$$",
"@@@@####@@@@++++++  ......    &&&&&&&&&&&&&&&&  OOOO@@@@@@@@$$$$",
"@@@@####@@@@++++++  ......    &&&&&&&&&&&&&&&&  OOOO@@@@@@@@$$$$",
"++++@@@@++++++++++    ....%%%%&&&&      &&&&&&  OOOO++++@@@@@@@@",
"++++@@@@++++++++++    ....%%%%&&&&      &&&&&&  OOOO++++@@@@@@@@",
"++++@@@@++++++++  **    %%%%%%&&  ****    &&&&&&  OO++++@@@@@@@@",
"++++@@@@++++++++  **    %%%%%%&&  ****    &&&&&&  OO++++@@@@@@@@",
"++++++++++++OOOO        %%%%%%&&          &&&&&&  ++++++OOOOOOOO",
"++++++++++++OOOO        %%%%%%&&          &&&&&&  ++++++OOOOOOOO",
"++++++++++++OOOO        %%%%%%&&          &&&&&&  ++++++OOOOOOOO",
"++++++++++++OOOO        %%%%%%&&          &&&&&&  ++++++OOOOOOOO",
"++++++++++++++++      ..%%%%%%%%&&      &&&&&&&&  OO++++OOOO++++",
"++++++++++++++++      ..%%%%%%%%&&      &&&&&&&&  OO++++OOOO++++",
"++++++++++++++++  ......%%%%%%%%&&&&&&&&&&&&&&&&  OO++++OOOO++++",
"++++++++++++++++  ......%%%%%%%%&&&&&&&&&&&&&&&&  OO++++OOOO++++",
"++++++++@@@@####@@  ......%%%%%%%%&&&&&&&&&&&&  ++++@@@@$$$$@@@@",
"++++++++@@@@####@@  ......%%%%%%%%&&&&&&&&&&&&  ++++@@@@$$$$@@@@",
"++++++++@@@@####@@  ......    %%%%%%%%&&&&&&&&  ++++@@@@$$$$@@@@",
"++++++++@@@@####@@  ......    %%%%%%%%&&&&&&&&  ++++@@@@$$$$@@@@",
"++++@@@@@@@@$$$$####  ....%%%%%%%%%%%%%%%%%%  ##@@@@####$$$$@@@@",
"++++@@@@@@@@$$$$####  ....%%%%%%%%%%%%%%%%%%  ##@@@@####$$$$@@@@",
"++++@@@@@@@@$$$$####  ......%%%%%%%%%%%%XXXX  ##@@@@####$$$$@@@@",
"++++@@@@@@@@$$$$####  ......%%%%%%%%%%%%XXXX  ##@@@@####$$$$@@@@",
"@@@@@@@@++++@@@@$$$$  XX..........XXXXXXoooo  @@++++OOOO++++@@@@",
"@@@@@@@@++++@@@@$$$$  XX..........XXXXXXoooo  @@++++OOOO++++@@@@",
"@@@@@@@@++++@@@@$$$$  ooXXXXXXXXXXoooooooo..%%  ++++OOOO++++@@@@",
"@@@@@@@@++++@@@@$$$$  ooXXXXXXXXXXoooooooo..%%  ++++OOOO++++@@@@",
"++++++++++++@@@@$$      oooooooooooooooo  %%%%%%  ++++++@@@@@@@@",
"++++++++++++@@@@$$      oooooooooooooooo  %%%%%%  ++++++@@@@@@@@",
"++++++++++++@@@@  ....  oooooooooooooo  ..%%%%%%%%  ++++@@@@@@@@",
"++++++++++++@@@@  ....  oooooooooooooo  ..%%%%%%%%  ++++@@@@@@@@",
"++++++++++++@@@@  ......  oooooooooo  ....%%%%%%%%  ####@@@@@@@@",
"++++++++++++@@@@  ......  oooooooooo  ....%%%%%%%%  ####@@@@@@@@",
"++++++++++++@@@@  ........    oooo  ..%%%%  %%%%%%  ####@@@@@@@@",
"++++++++++++@@@@  ........    oooo  ..%%%%  %%%%%%  ####@@@@@@@@",
"++++OOOO++++++++@@      ......    ..%%%%  ++      ++++++####++++",
"++++OOOO++++++++@@      ......    ..%%%%  ++      ++++++####++++",
"++++OOOO++++++++@@@@####  ........%%%%%%  ++++++++++++++####++++",
"++++OOOO++++++++@@@@####  ........%%%%%%  ++++++++++++++####++++",
"OOOO++++@@@@++++OOOO++++@@    %%%%%%%%  ####++++OOOO++++++++++++",
"OOOO++++@@@@++++OOOO++++@@    %%%%%%%%  ####++++OOOO++++++++++++",
"OOOO++++@@@@++++OOOO++++@@@@  %%%%%%%%  ####++++OOOO++++++++++++",
"OOOO++++@@@@++++OOOO++++@@@@  %%%%%%%%  ####++++OOOO++++++++++++"
};
