/* XPM */
static char * idle_l_0_xpm[] = {
"64 64 10 1",
" 	c None",
".	c #2A304E",
"+	c #FCFEFE",
"@	c #94A0BA",
"#	c #667291",
"$	c #1C1A30",
"%	c #1C121B",
"&	c #5E2C29",
"*	c #FC5003",
"=	c #FDA216",
"                                                                ",
"                                                                ",
"                                                                ",
"                                                                ",
"                                                                ",
"                                                                ",
"                                                                ",
"                                                                ",
"                                                                ",
"                                                                ",
"                                                                ",
"                                                                ",
"                        ............                            ",
"                        ............                            ",
"                    ....++++++++++@@....                        ",
"                    ....++++++++++@@....                        ",
"                ....++++++++++++++++@@@@..                      ",
"                ....++++++++++++++++@@@@..                      ",
"              ..++++++++++##############@@..                    ",
"              ..++++++++++##############@@..                    ",
"            ..++++++++++##################..                    ",
"            ..++++++++++##################..                    ",
"          ..++++++++++++######....########....                  ",
"          ..++++++++++++######....########....                  ",
"        ..++++++++++++######..++++########++..                  ",
"        ..++++++++++++######..++++########++..                  ",
"      ..++++++++++++++######$$++++########++..                  ",
"      ..++++++++++++++######$$++++########++..                  ",
"      ..++++++##++++++######$$$$$$##%%%%##$$##..                ",
"      ..++++++##++++++######$$$$$$##%%%%##$$##..                ",
"      ........##++++++##############%%%%%%####..                ",
"      ........##++++++##############%%%%%%####..                ",
"            ..@@++++++##############%%%%%%####..                ",
"            ..@@++++++##############%%%%%%####..                ",
"            ..++++++++++############....%%####..                ",
"            ..++++++++++############....%%####..                ",
"              ..++++++++####################..                  ",
"              ..++++++++####################..                  ",
"              ..++++++++++########++@@@@####..                  ",
"              ..++++++++++########++@@@@####..                  ",
"                ..++++++++++++++++++@@@@@@..                    ",
"                ..++++++++++++++++++@@@@@@..                    ",
"                  ..&&++++++++++++@@@@@@..                      ",
"                  ..&&++++++++++++@@@@@@..                      ",
"                ..++@@&&&&&&&&@@@@@@@@&&##..                    ",
"                ..++@@&&&&&&&&@@@@@@@@&&##..                    ",
"                ..++++++++##@@&&&&&&&&####..                    ",
"                ..++++++++##@@&&&&&&&&####..                    ",
"              ..++++++++##++++++**====@@####..                  ",
"              ..++++++++##++++++**====@@####..                  ",
"              ..++++++++##++++++**====@@####..                  ",
"              ..++++++++##++++++**====@@####..                  ",
"              ..++++++##++++++++**====@@####..                  ",
"              ..++++++##++++++++**====@@####..                  ",
"                ..####++++++++++@@@@@@##....                    ",
"                ..####++++++++++@@@@@@##....                    ",
"                  ..++++++++++@@@@@@####..                      ",
"                  ..++++++++++@@@@@@####..                      ",
"                  ..++++++++....########..                      ",
"                  ..++++++++....########..                      ",
"                  ..++++++++....######..                        ",
"                  ..++++++++....######..                        ",
"                  ..++++++..  ..######..                        ",
"                  ..++++++..  ..######..                        "};
