/* XPM */
static char * wall_xpm[] = {
"64 64 2 1",
" 	c #42B5F7",
".	c #42C6FF",
"                    ............        ....        ....        ",
"                    ............        ....        ....        ",
"                    ............        ....        ....        ",
"                    ............        ....        ....        ",
"                ....        ....        ....        ............",
"                ....        ....        ....        ............",
"                ....        ....        ....        ............",
"                ....        ....        ....        ............",
"....        ....                ....................            ",
"....        ....                ....................            ",
"....        ....                ....................            ",
"....        ....                ....................            ",
"    ............                ....                ....        ",
"    ............                ....                ....        ",
"    ............                ....                ....        ",
"    ............                ....                ....        ",
"            ........................                    ........",
"            ........................                    ........",
"            ........................                    ........",
"            ........................                    ........",
"                    ....        ........................        ",
"                    ....        ........................        ",
"                    ....        ........................        ",
"                    ....        ........................        ",
"                ....                            ........        ",
"                ....                            ........        ",
"                ....                            ........        ",
"                ....                            ........        ",
"            ........            ....        ....        ....    ",
"            ........            ....        ....        ....    ",
"            ........            ....        ....        ....    ",
"            ........            ....        ....        ....    ",
"....    ....        ............            ....            ....",
"....    ....        ............            ....            ....",
"....    ....        ............            ....            ....",
"....    ....        ............            ....            ....",
"    ....        ....        ....        ........    ........    ",
"    ....        ....        ....        ........    ........    ",
"    ....        ....        ....        ........    ........    ",
"    ....        ....        ....        ........    ........    ",
"    ....    ....                ........        ....            ",
"    ....    ....                ........        ....            ",
"    ....    ....                ........        ....            ",
"    ....    ....                ........        ....            ",
"        ........                ....            ....        ....",
"        ........                ....            ....        ....",
"        ........                ....            ....        ....",
"        ........                ....            ....        ....",
"                ............................        ........    ",
"                ............................        ........    ",
"                ............................        ........    ",
"                ............................        ........    ",
"            ....        ....            ............            ",
"            ....        ....            ............            ",
"            ....        ....            ............            ",
"            ....        ....            ............            ",
"        ........            ....    ........................    ",
"        ........            ....    ........................    ",
"        ........            ....    ........................    ",
"        ........            ....    ........................    ",
"    ........        ........        ....                    ....",
"    ........        ........        ....                    ....",
"    ........        ........        ....                    ....",
"    ........        ........        ....                    ...."};
