/* XPM */
static char * wall_oxoo_0_xpm[] = {
"64 64 6 1",
" 	c #D6846B",
".	c #B5639C",
"+	c #D6F7FF",
"@	c #42C6FF",
"#	c #42B5F7",
"$	c #4A73F7",
"                                                                ",
"                                                                ",
"                                                                ",
"                                                                ",
"................................................................",
"................................................................",
"................................................................",
"................................................................",
"................................................................",
"................................................................",
"................................................................",
"................................................................",
"................................................................",
"................................................................",
"................................................................",
"................................................................",
"................................................................",
"................................................................",
"................................................................",
"................................................................",
"........++++++++....++++++++........................++++++++....",
"........++++++++....++++++++........................++++++++....",
"........++++++++....++++++++........................++++++++....",
"........++++++++....++++++++........................++++++++....",
"++++++++++++@@@@++++++++@@@@++++++++............++++@@@@@@@@++++",
"++++++++++++@@@@++++++++@@@@++++++++............++++@@@@@@@@++++",
"++++++++++++@@@@++++++++@@@@++++++++............++++@@@@@@@@++++",
"++++++++++++@@@@++++++++@@@@++++++++............++++@@@@@@@@++++",
"####$$$$$$$$$$$$################++++++++++++++++################",
"####$$$$$$$$$$$$################++++++++++++++++################",
"####$$$$$$$$$$$$################++++++++++++++++################",
"####$$$$$$$$$$$$################++++++++++++++++################",
"$$$$$$$$$$$$$$$$$$$$$$$$$$$$$$$$################$$$$$$$$$$$$$$$$",
"$$$$$$$$$$$$$$$$$$$$$$$$$$$$$$$$################$$$$$$$$$$$$$$$$",
"$$$$$$$$$$$$$$$$$$$$$$$$$$$$$$$$################$$$$$$$$$$$$$$$$",
"$$$$$$$$$$$$$$$$$$$$$$$$$$$$$$$$################$$$$$$$$$$$$$$$$",
"$$$$$$$$$$$$$$$$$$$$$$$$$$$$$$$$$$$$$$$$$$$$$$$$$$$$$$$$$$$$$$$$",
"$$$$$$$$$$$$$$$$$$$$$$$$$$$$$$$$$$$$$$$$$$$$$$$$$$$$$$$$$$$$$$$$",
"$$$$$$$$$$$$$$$$$$$$$$$$$$$$$$$$$$$$$$$$$$$$$$$$$$$$$$$$$$$$$$$$",
"$$$$$$$$$$$$$$$$$$$$$$$$$$$$$$$$$$$$$$$$$$$$$$$$$$$$$$$$$$$$$$$$",
"$$$$$$$$$$$$$$$$$$$$$$$$$$$$$$$$$$$$$$$$$$$$$$$$$$$$$$$$$$$$$$$$",
"$$$$$$$$$$$$$$$$$$$$$$$$$$$$$$$$$$$$$$$$$$$$$$$$$$$$$$$$$$$$$$$$",
"$$$$$$$$$$$$$$$$$$$$$$$$$$$$$$$$$$$$$$$$$$$$$$$$$$$$$$$$$$$$$$$$",
"$$$$$$$$$$$$$$$$$$$$$$$$$$$$$$$$$$$$$$$$$$$$$$$$$$$$$$$$$$$$$$$$",
"$$$$$$$$$$$$$$$$########$$$$$$$$$$$$$$$$############$$$$$$$$$$$$",
"$$$$$$$$$$$$$$$$########$$$$$$$$$$$$$$$$############$$$$$$$$$$$$",
"$$$$$$$$$$$$$$$$########$$$$$$$$$$$$$$$$############$$$$$$$$$$$$",
"$$$$$$$$$$$$$$$$########$$$$$$$$$$$$$$$$############$$$$$$$$$$$$",
"########@@@@####@@@@@@@@@@@@@@@@####################@@@@@@@@####",
"########@@@@####@@@@@@@@@@@@@@@@####################@@@@@@@@####",
"########@@@@####@@@@@@@@@@@@@@@@####################@@@@@@@@####",
"########@@@@####@@@@@@@@@@@@@@@@####################@@@@@@@@####",
"############@@@@############################@@@@################",
"############@@@@############################@@@@################",
"############@@@@############################@@@@################",
"############@@@@############################@@@@################",
"############################@@@@########@@@@@@@@@@@@####@@@@####",
"############################@@@@########@@@@@@@@@@@@####@@@@####",
"############################@@@@########@@@@@@@@@@@@####@@@@####",
"############################@@@@########@@@@@@@@@@@@####@@@@####",
"####@@@@############@@@@@@@@########@@@@####################@@@@",
"####@@@@############@@@@@@@@########@@@@####################@@@@",
"####@@@@############@@@@@@@@########@@@@####################@@@@",
"####@@@@############@@@@@@@@########@@@@####################@@@@"};
